<mxfile host="app.diagrams.net" agent="Mozilla/5.0 (Windows NT 10.0; Win64; x64) AppleWebKit/537.36 (KHTML, like Gecko) Chrome/138.0.0.0 Safari/537.36 Edg/138.0.0.0" version="28.0.7">
  <diagram name="第 1 页" id="NIifgobLFxdSbTSAk4Eo">
    <mxGraphModel dx="987" dy="636" grid="1" gridSize="10" guides="1" tooltips="1" connect="1" arrows="1" fold="1" page="1" pageScale="1" pageWidth="3300" pageHeight="4681" background="none" math="0" shadow="0">
      <root>
        <mxCell id="0" />
        <mxCell id="1" parent="0" />
        <mxCell id="ZqhY7Jv1n4GMDDzjucdt-14" style="edgeStyle=orthogonalEdgeStyle;rounded=0;orthogonalLoop=1;jettySize=auto;html=1;exitX=0.5;exitY=0;exitDx=0;exitDy=0;entryX=0.5;entryY=0;entryDx=0;entryDy=0;fontFamily=Times New Roman;fontSize=15;fontColor=#99FFFF;strokeColor=#000000;" parent="1" source="ZqhY7Jv1n4GMDDzjucdt-4" target="ZqhY7Jv1n4GMDDzjucdt-9" edge="1">
          <mxGeometry relative="1" as="geometry" />
        </mxCell>
        <mxCell id="ZqhY7Jv1n4GMDDzjucdt-4" value="Encoder" style="shape=trapezoid;perimeter=trapezoidPerimeter;whiteSpace=wrap;html=1;fixedSize=1;direction=south;fillColor=#f8cecc;strokeColor=#b85450;fontFamily=Times New Roman;fontSize=15;gradientColor=#ea6b66;" parent="1" vertex="1">
          <mxGeometry x="160" y="240" width="60" height="80" as="geometry" />
        </mxCell>
        <mxCell id="ZqhY7Jv1n4GMDDzjucdt-15" style="edgeStyle=orthogonalEdgeStyle;rounded=0;orthogonalLoop=1;jettySize=auto;html=1;exitX=0.5;exitY=0;exitDx=0;exitDy=0;entryX=0.5;entryY=0;entryDx=0;entryDy=0;fontFamily=Times New Roman;fontSize=15;fontColor=#99FFFF;strokeColor=#000000;" parent="1" source="ZqhY7Jv1n4GMDDzjucdt-5" target="ZqhY7Jv1n4GMDDzjucdt-10" edge="1">
          <mxGeometry relative="1" as="geometry" />
        </mxCell>
        <mxCell id="ZqhY7Jv1n4GMDDzjucdt-5" value="Encoder" style="shape=trapezoid;perimeter=trapezoidPerimeter;whiteSpace=wrap;html=1;fixedSize=1;direction=south;fillColor=#f8cecc;strokeColor=#b85450;fontFamily=Times New Roman;fontSize=15;gradientColor=#ea6b66;" parent="1" vertex="1">
          <mxGeometry x="160" y="320" width="60" height="80" as="geometry" />
        </mxCell>
        <mxCell id="ZqhY7Jv1n4GMDDzjucdt-16" style="edgeStyle=orthogonalEdgeStyle;rounded=0;orthogonalLoop=1;jettySize=auto;html=1;exitX=0.5;exitY=0;exitDx=0;exitDy=0;entryX=0.5;entryY=0;entryDx=0;entryDy=0;fontFamily=Times New Roman;fontSize=15;fontColor=#99FFFF;strokeColor=#000000;" parent="1" source="ZqhY7Jv1n4GMDDzjucdt-6" target="ZqhY7Jv1n4GMDDzjucdt-11" edge="1">
          <mxGeometry relative="1" as="geometry" />
        </mxCell>
        <mxCell id="ZqhY7Jv1n4GMDDzjucdt-6" value="Encoder" style="shape=trapezoid;perimeter=trapezoidPerimeter;whiteSpace=wrap;html=1;fixedSize=1;direction=south;fillColor=#f8cecc;strokeColor=#b85450;fontFamily=Times New Roman;fontSize=15;gradientColor=#ea6b66;" parent="1" vertex="1">
          <mxGeometry x="160" y="400" width="60" height="80" as="geometry" />
        </mxCell>
        <mxCell id="ZqhY7Jv1n4GMDDzjucdt-17" style="edgeStyle=orthogonalEdgeStyle;rounded=0;orthogonalLoop=1;jettySize=auto;html=1;exitX=0.5;exitY=0;exitDx=0;exitDy=0;entryX=0.5;entryY=0;entryDx=0;entryDy=0;fontFamily=Times New Roman;fontSize=15;fontColor=#99FFFF;strokeColor=#000000;" parent="1" source="ZqhY7Jv1n4GMDDzjucdt-7" target="ZqhY7Jv1n4GMDDzjucdt-12" edge="1">
          <mxGeometry relative="1" as="geometry">
            <Array as="points">
              <mxPoint x="260" y="520" />
              <mxPoint x="260" y="520" />
            </Array>
          </mxGeometry>
        </mxCell>
        <mxCell id="ZqhY7Jv1n4GMDDzjucdt-7" value="Encoder" style="shape=trapezoid;perimeter=trapezoidPerimeter;whiteSpace=wrap;html=1;fixedSize=1;direction=south;fillColor=#f8cecc;strokeColor=#b85450;fontFamily=Times New Roman;fontSize=15;gradientColor=#ea6b66;" parent="1" vertex="1">
          <mxGeometry x="160" y="480" width="60" height="80" as="geometry" />
        </mxCell>
        <mxCell id="ZqhY7Jv1n4GMDDzjucdt-9" value="&lt;font&gt;Decoder&lt;/font&gt;" style="shape=trapezoid;perimeter=trapezoidPerimeter;whiteSpace=wrap;html=1;fixedSize=1;direction=north;fillColor=#dae8fc;strokeColor=#6c8ebf;fontFamily=Times New Roman;fontSize=15;gradientColor=#7ea6e0;" parent="1" vertex="1">
          <mxGeometry x="380" y="240" width="60" height="80" as="geometry" />
        </mxCell>
        <mxCell id="ZqhY7Jv1n4GMDDzjucdt-10" value="Decoder" style="shape=trapezoid;perimeter=trapezoidPerimeter;whiteSpace=wrap;html=1;fixedSize=1;direction=north;fillColor=#dae8fc;strokeColor=#6c8ebf;fontFamily=Times New Roman;fontSize=15;gradientColor=#7ea6e0;" parent="1" vertex="1">
          <mxGeometry x="380" y="320" width="60" height="80" as="geometry" />
        </mxCell>
        <mxCell id="ZqhY7Jv1n4GMDDzjucdt-11" value="Decoder" style="shape=trapezoid;perimeter=trapezoidPerimeter;whiteSpace=wrap;html=1;fixedSize=1;direction=north;fillColor=#dae8fc;strokeColor=#6c8ebf;fontFamily=Times New Roman;fontSize=15;gradientColor=#7ea6e0;" parent="1" vertex="1">
          <mxGeometry x="380" y="400" width="60" height="80" as="geometry" />
        </mxCell>
        <mxCell id="ZqhY7Jv1n4GMDDzjucdt-12" value="Decoder" style="shape=trapezoid;perimeter=trapezoidPerimeter;whiteSpace=wrap;html=1;fixedSize=1;direction=north;fillColor=#dae8fc;strokeColor=#6c8ebf;fontFamily=Times New Roman;fontSize=15;gradientColor=#7ea6e0;" parent="1" vertex="1">
          <mxGeometry x="380" y="480" width="60" height="80" as="geometry" />
        </mxCell>
        <mxCell id="Fs77FOUwGI9zr51j0gGx-35" style="edgeStyle=orthogonalEdgeStyle;rounded=0;orthogonalLoop=1;jettySize=auto;html=1;exitX=0.75;exitY=1;exitDx=0;exitDy=0;" edge="1" parent="1" source="ZqhY7Jv1n4GMDDzjucdt-21">
          <mxGeometry relative="1" as="geometry">
            <mxPoint x="600" y="140" as="targetPoint" />
          </mxGeometry>
        </mxCell>
        <mxCell id="Fs77FOUwGI9zr51j0gGx-36" style="edgeStyle=orthogonalEdgeStyle;rounded=0;orthogonalLoop=1;jettySize=auto;html=1;exitX=0.25;exitY=1;exitDx=0;exitDy=0;" edge="1" parent="1" source="ZqhY7Jv1n4GMDDzjucdt-21">
          <mxGeometry relative="1" as="geometry">
            <mxPoint x="600" y="200" as="targetPoint" />
          </mxGeometry>
        </mxCell>
        <mxCell id="ZqhY7Jv1n4GMDDzjucdt-21" value="Fusion" style="shape=trapezoid;perimeter=trapezoidPerimeter;whiteSpace=wrap;html=1;fixedSize=1;direction=north;fillColor=#fff2cc;strokeColor=#d6b656;fontFamily=Times New Roman;fontSize=15;gradientColor=#ffd966;" parent="1" vertex="1">
          <mxGeometry x="440" y="110" width="100" height="120" as="geometry" />
        </mxCell>
        <mxCell id="ZqhY7Jv1n4GMDDzjucdt-22" value="" style="endArrow=none;html=1;rounded=0;fontFamily=Times New Roman;fontSize=15;fontColor=#99FFFF;strokeColor=#000000;" parent="1" edge="1">
          <mxGeometry width="50" height="50" relative="1" as="geometry">
            <mxPoint x="240" y="520" as="sourcePoint" />
            <mxPoint x="240" y="140" as="targetPoint" />
          </mxGeometry>
        </mxCell>
        <mxCell id="ZqhY7Jv1n4GMDDzjucdt-59" value="" style="endArrow=none;html=1;rounded=0;fontFamily=Times New Roman;fontSize=15;fontColor=#99FFFF;strokeColor=#000000;" parent="1" edge="1">
          <mxGeometry width="50" height="50" relative="1" as="geometry">
            <mxPoint x="270" y="440" as="sourcePoint" />
            <mxPoint x="270" y="140" as="targetPoint" />
          </mxGeometry>
        </mxCell>
        <mxCell id="ZqhY7Jv1n4GMDDzjucdt-61" value="" style="endArrow=none;html=1;rounded=0;fontFamily=Times New Roman;fontSize=15;fontColor=#99FFFF;strokeColor=#000000;" parent="1" edge="1">
          <mxGeometry width="50" height="50" relative="1" as="geometry">
            <mxPoint x="300" y="360" as="sourcePoint" />
            <mxPoint x="300" y="140" as="targetPoint" />
          </mxGeometry>
        </mxCell>
        <mxCell id="ZqhY7Jv1n4GMDDzjucdt-62" value="" style="endArrow=none;html=1;rounded=0;fontFamily=Times New Roman;fontSize=15;fontColor=#99FFFF;strokeColor=#000000;" parent="1" edge="1">
          <mxGeometry width="50" height="50" relative="1" as="geometry">
            <mxPoint x="330" y="280" as="sourcePoint" />
            <mxPoint x="330" y="140" as="targetPoint" />
          </mxGeometry>
        </mxCell>
        <mxCell id="ZqhY7Jv1n4GMDDzjucdt-65" value="" style="endArrow=classic;html=1;rounded=0;entryX=0.75;entryY=0;entryDx=0;entryDy=0;fontFamily=Times New Roman;fontSize=15;fontColor=#99FFFF;strokeColor=#000000;" parent="1" source="ZqhY7Jv1n4GMDDzjucdt-105" target="ZqhY7Jv1n4GMDDzjucdt-21" edge="1">
          <mxGeometry width="50" height="50" relative="1" as="geometry">
            <mxPoint x="240" y="140" as="sourcePoint" />
            <mxPoint x="290" y="90" as="targetPoint" />
          </mxGeometry>
        </mxCell>
        <mxCell id="ZqhY7Jv1n4GMDDzjucdt-67" value="" style="endArrow=classic;html=1;rounded=0;entryX=0.25;entryY=0;entryDx=0;entryDy=0;fontFamily=Times New Roman;fontSize=15;fontColor=#99FFFF;strokeColor=#000000;" parent="1" source="ZqhY7Jv1n4GMDDzjucdt-107" target="ZqhY7Jv1n4GMDDzjucdt-21" edge="1">
          <mxGeometry width="50" height="50" relative="1" as="geometry">
            <mxPoint x="240" y="200" as="sourcePoint" />
            <mxPoint x="370" y="180" as="targetPoint" />
          </mxGeometry>
        </mxCell>
        <mxCell id="ZqhY7Jv1n4GMDDzjucdt-87" value="" style="endArrow=none;html=1;rounded=0;" parent="1" edge="1">
          <mxGeometry width="50" height="50" relative="1" as="geometry">
            <mxPoint x="440" y="280" as="sourcePoint" />
            <mxPoint x="480" y="280" as="targetPoint" />
          </mxGeometry>
        </mxCell>
        <mxCell id="ZqhY7Jv1n4GMDDzjucdt-90" value="" style="endArrow=none;html=1;rounded=0;" parent="1" edge="1">
          <mxGeometry width="50" height="50" relative="1" as="geometry">
            <mxPoint x="440" y="359.58" as="sourcePoint" />
            <mxPoint x="480" y="359.58" as="targetPoint" />
          </mxGeometry>
        </mxCell>
        <mxCell id="ZqhY7Jv1n4GMDDzjucdt-91" value="" style="endArrow=none;html=1;rounded=0;" parent="1" edge="1">
          <mxGeometry width="50" height="50" relative="1" as="geometry">
            <mxPoint x="440" y="439.58" as="sourcePoint" />
            <mxPoint x="480" y="439.58" as="targetPoint" />
          </mxGeometry>
        </mxCell>
        <mxCell id="ZqhY7Jv1n4GMDDzjucdt-92" value="" style="endArrow=none;html=1;rounded=0;" parent="1" edge="1">
          <mxGeometry width="50" height="50" relative="1" as="geometry">
            <mxPoint x="440" y="519.58" as="sourcePoint" />
            <mxPoint x="480" y="519.58" as="targetPoint" />
          </mxGeometry>
        </mxCell>
        <mxCell id="ZqhY7Jv1n4GMDDzjucdt-93" value="" style="endArrow=none;html=1;rounded=0;" parent="1" edge="1">
          <mxGeometry width="50" height="50" relative="1" as="geometry">
            <mxPoint x="480" y="520" as="sourcePoint" />
            <mxPoint x="480" y="280" as="targetPoint" />
          </mxGeometry>
        </mxCell>
        <mxCell id="ZqhY7Jv1n4GMDDzjucdt-94" value="" style="endArrow=classic;html=1;rounded=0;entryX=0;entryY=0.5;entryDx=0;entryDy=0;" parent="1" target="Fs77FOUwGI9zr51j0gGx-30" edge="1">
          <mxGeometry width="50" height="50" relative="1" as="geometry">
            <mxPoint x="480" y="399" as="sourcePoint" />
            <mxPoint x="520" y="399" as="targetPoint" />
          </mxGeometry>
        </mxCell>
        <mxCell id="ZqhY7Jv1n4GMDDzjucdt-75" value="&lt;p class=&quot;MsoNormal&quot; align=&quot;center&quot; style=&quot;text-align:center;line-height:10.0pt;&#xa;mso-line-height-rule:exactly&quot;&gt;&lt;span lang=&quot;EN-US&quot; style=&quot;font-size:9.0pt;&#xa;font-family:&amp;quot;Times New Roman&amp;quot;,serif;mso-fareast-font-family:黑体&quot;&gt;✓&lt;/span&gt;&lt;/p&gt;" style="text;whiteSpace=wrap;html=1;" parent="1" vertex="1">
          <mxGeometry x="270" y="130" width="10" height="30" as="geometry" />
        </mxCell>
        <mxCell id="ZqhY7Jv1n4GMDDzjucdt-77" value="&lt;p class=&quot;MsoNormal&quot; align=&quot;center&quot; style=&quot;text-align:center;line-height:10.0pt;&#xa;mso-line-height-rule:exactly&quot;&gt;&lt;span lang=&quot;EN-US&quot; style=&quot;font-size:9.0pt;&#xa;font-family:&amp;quot;Times New Roman&amp;quot;,serif;mso-fareast-font-family:黑体&quot;&gt;✓&lt;/span&gt;&lt;/p&gt;" style="text;whiteSpace=wrap;html=1;" parent="1" vertex="1">
          <mxGeometry x="240" y="130" width="10" height="30" as="geometry" />
        </mxCell>
        <mxCell id="ZqhY7Jv1n4GMDDzjucdt-78" value="&lt;p class=&quot;MsoNormal&quot; align=&quot;center&quot; style=&quot;text-align:center;line-height:10.0pt;&#xa;mso-line-height-rule:exactly&quot;&gt;&lt;span lang=&quot;EN-US&quot; style=&quot;font-size:9.0pt;&#xa;font-family:&amp;quot;Times New Roman&amp;quot;,serif;mso-fareast-font-family:黑体&quot;&gt;✓&lt;/span&gt;&lt;/p&gt;" style="text;whiteSpace=wrap;html=1;" parent="1" vertex="1">
          <mxGeometry x="300" y="130" width="10" height="30" as="geometry" />
        </mxCell>
        <mxCell id="ZqhY7Jv1n4GMDDzjucdt-79" value="&lt;p class=&quot;MsoNormal&quot; align=&quot;center&quot; style=&quot;text-align:center;line-height:10.0pt;&#xa;mso-line-height-rule:exactly&quot;&gt;&lt;span lang=&quot;EN-US&quot; style=&quot;font-size:9.0pt;&#xa;font-family:&amp;quot;Times New Roman&amp;quot;,serif;mso-fareast-font-family:黑体&quot;&gt;✓&lt;/span&gt;&lt;/p&gt;" style="text;whiteSpace=wrap;html=1;" parent="1" vertex="1">
          <mxGeometry x="330" y="130" width="10" height="30" as="geometry" />
        </mxCell>
        <mxCell id="ZqhY7Jv1n4GMDDzjucdt-81" value="&lt;p style=&quot;text-align:center;line-height:10.0pt;&lt;br/&gt;mso-line-height-rule:exactly&quot; align=&quot;center&quot; class=&quot;MsoNormal&quot;&gt;&lt;span style=&quot;font-size:9.0pt;&lt;br/&gt;font-family:&amp;quot;Times New Roman&amp;quot;,serif;mso-fareast-font-family:黑体&quot; lang=&quot;EN-US&quot;&gt;✕&lt;/span&gt;&lt;/p&gt;" style="text;whiteSpace=wrap;html=1;" parent="1" vertex="1">
          <mxGeometry x="270" y="200" width="10" height="30" as="geometry" />
        </mxCell>
        <mxCell id="ZqhY7Jv1n4GMDDzjucdt-82" value="&lt;p style=&quot;text-align:center;line-height:10.0pt;&lt;br/&gt;mso-line-height-rule:exactly&quot; align=&quot;center&quot; class=&quot;MsoNormal&quot;&gt;&lt;span style=&quot;font-size:9.0pt;&lt;br/&gt;font-family:&amp;quot;Times New Roman&amp;quot;,serif;mso-fareast-font-family:黑体&quot; lang=&quot;EN-US&quot;&gt;✕&lt;/span&gt;&lt;/p&gt;" style="text;whiteSpace=wrap;html=1;" parent="1" vertex="1">
          <mxGeometry x="330" y="200" width="10" height="30" as="geometry" />
        </mxCell>
        <mxCell id="ZqhY7Jv1n4GMDDzjucdt-83" value="&lt;p class=&quot;MsoNormal&quot; align=&quot;center&quot; style=&quot;text-align:center;line-height:10.0pt;&#xa;mso-line-height-rule:exactly&quot;&gt;&lt;span lang=&quot;EN-US&quot; style=&quot;font-size:9.0pt;&#xa;font-family:&amp;quot;Times New Roman&amp;quot;,serif;mso-fareast-font-family:黑体&quot;&gt;✓&lt;/span&gt;&lt;/p&gt;" style="text;whiteSpace=wrap;html=1;" parent="1" vertex="1">
          <mxGeometry x="240" y="200" width="10" height="30" as="geometry" />
        </mxCell>
        <mxCell id="ZqhY7Jv1n4GMDDzjucdt-84" value="&lt;p class=&quot;MsoNormal&quot; align=&quot;center&quot; style=&quot;text-align:center;line-height:10.0pt;&#xa;mso-line-height-rule:exactly&quot;&gt;&lt;span lang=&quot;EN-US&quot; style=&quot;font-size:9.0pt;&#xa;font-family:&amp;quot;Times New Roman&amp;quot;,serif;mso-fareast-font-family:黑体&quot;&gt;✓&lt;/span&gt;&lt;/p&gt;" style="text;whiteSpace=wrap;html=1;" parent="1" vertex="1">
          <mxGeometry x="300" y="200" width="10" height="30" as="geometry" />
        </mxCell>
        <mxCell id="ZqhY7Jv1n4GMDDzjucdt-106" value="" style="endArrow=classic;html=1;rounded=0;entryX=0;entryY=0.49;entryDx=0;entryDy=0;fontFamily=Times New Roman;fontSize=15;fontColor=#99FFFF;strokeColor=#000000;entryPerimeter=0;" parent="1" target="ZqhY7Jv1n4GMDDzjucdt-105" edge="1">
          <mxGeometry width="50" height="50" relative="1" as="geometry">
            <mxPoint x="240" y="140" as="sourcePoint" />
            <mxPoint x="430" y="140" as="targetPoint" />
          </mxGeometry>
        </mxCell>
        <mxCell id="ZqhY7Jv1n4GMDDzjucdt-105" value="C" style="ellipse;whiteSpace=wrap;html=1;aspect=fixed;" parent="1" vertex="1">
          <mxGeometry x="370" y="130" width="20" height="20" as="geometry" />
        </mxCell>
        <mxCell id="ZqhY7Jv1n4GMDDzjucdt-108" value="" style="endArrow=classic;html=1;rounded=0;entryX=0;entryY=0.5;entryDx=0;entryDy=0;fontFamily=Times New Roman;fontSize=15;fontColor=#99FFFF;strokeColor=#000000;" parent="1" target="ZqhY7Jv1n4GMDDzjucdt-107" edge="1">
          <mxGeometry width="50" height="50" relative="1" as="geometry">
            <mxPoint x="240" y="200" as="sourcePoint" />
            <mxPoint x="430" y="200" as="targetPoint" />
          </mxGeometry>
        </mxCell>
        <mxCell id="ZqhY7Jv1n4GMDDzjucdt-107" value="C" style="ellipse;whiteSpace=wrap;html=1;aspect=fixed;" parent="1" vertex="1">
          <mxGeometry x="370" y="190" width="20" height="20" as="geometry" />
        </mxCell>
        <mxCell id="ZqhY7Jv1n4GMDDzjucdt-109" value="&lt;span style=&quot;color: rgba(0, 0, 0, 0); font-size: 0px; text-align: start; text-wrap-mode: nowrap;&quot;&gt;%3CmxGraphModel%3E%3Croot%3E%3CmxCell%20id%3D%220%22%2F%3E%3CmxCell%20id%3D%221%22%20parent%3D%220%22%2F%3E%3CmxCell%20id%3D%222%22%20value%3D%22C%22%20style%3D%22ellipse%3BwhiteSpace%3Dwrap%3Bhtml%3D1%3Baspect%3Dfixed%3B%22%20vertex%3D%221%22%20parent%3D%221%22%3E%3CmxGeometry%20x%3D%22370%22%20y%3D%22130%22%20width%3D%2220%22%20height%3D%2220%22%20as%3D%22geometry%22%2F%3E%3C%2FmxCell%3E%3C%2Froot%3E%3C%2FmxGraphModel%3E&lt;/span&gt;" style="rounded=1;whiteSpace=wrap;html=1;fontFamily=Times New Roman;fillColor=#f5f5f5;fontColor=#333333;strokeColor=#666666;" parent="1" vertex="1">
          <mxGeometry x="750" y="500" width="140" height="120" as="geometry" />
        </mxCell>
        <mxCell id="ZqhY7Jv1n4GMDDzjucdt-110" value="C" style="ellipse;whiteSpace=wrap;html=1;aspect=fixed;fontFamily=Times New Roman;" parent="1" vertex="1">
          <mxGeometry x="760" y="510" width="20" height="20" as="geometry" />
        </mxCell>
        <mxCell id="ZqhY7Jv1n4GMDDzjucdt-112" value="：Concatenation" style="text;html=1;align=center;verticalAlign=middle;resizable=0;points=[];autosize=1;fontFamily=Times New Roman;" parent="1" vertex="1">
          <mxGeometry x="780" y="505" width="100" height="30" as="geometry" />
        </mxCell>
        <mxCell id="ZqhY7Jv1n4GMDDzjucdt-125" value="" style="ellipse;whiteSpace=wrap;html=1;aspect=fixed;" parent="1" vertex="1">
          <mxGeometry x="230" y="161" width="20" height="20" as="geometry" />
        </mxCell>
        <mxCell id="ZqhY7Jv1n4GMDDzjucdt-126" value="" style="endArrow=none;html=1;rounded=0;exitX=0;exitY=1;exitDx=0;exitDy=0;entryX=1;entryY=0;entryDx=0;entryDy=0;" parent="1" source="ZqhY7Jv1n4GMDDzjucdt-125" target="ZqhY7Jv1n4GMDDzjucdt-125" edge="1">
          <mxGeometry width="50" height="50" relative="1" as="geometry">
            <mxPoint x="730" y="291" as="sourcePoint" />
            <mxPoint x="760" y="261" as="targetPoint" />
          </mxGeometry>
        </mxCell>
        <mxCell id="ZqhY7Jv1n4GMDDzjucdt-127" value="" style="endArrow=none;html=1;rounded=0;exitX=1;exitY=1;exitDx=0;exitDy=0;entryX=0;entryY=0;entryDx=0;entryDy=0;" parent="1" source="ZqhY7Jv1n4GMDDzjucdt-125" target="ZqhY7Jv1n4GMDDzjucdt-125" edge="1">
          <mxGeometry width="50" height="50" relative="1" as="geometry">
            <mxPoint x="770" y="351" as="sourcePoint" />
            <mxPoint x="720" y="241" as="targetPoint" />
          </mxGeometry>
        </mxCell>
        <mxCell id="ZqhY7Jv1n4GMDDzjucdt-131" value="" style="ellipse;whiteSpace=wrap;html=1;aspect=fixed;" parent="1" vertex="1">
          <mxGeometry x="260" y="161" width="20" height="20" as="geometry" />
        </mxCell>
        <mxCell id="ZqhY7Jv1n4GMDDzjucdt-132" value="" style="endArrow=none;html=1;rounded=0;exitX=0;exitY=1;exitDx=0;exitDy=0;entryX=1;entryY=0;entryDx=0;entryDy=0;" parent="1" source="ZqhY7Jv1n4GMDDzjucdt-131" target="ZqhY7Jv1n4GMDDzjucdt-131" edge="1">
          <mxGeometry width="50" height="50" relative="1" as="geometry">
            <mxPoint x="760" y="291" as="sourcePoint" />
            <mxPoint x="790" y="261" as="targetPoint" />
          </mxGeometry>
        </mxCell>
        <mxCell id="ZqhY7Jv1n4GMDDzjucdt-133" value="" style="endArrow=none;html=1;rounded=0;exitX=1;exitY=1;exitDx=0;exitDy=0;entryX=0;entryY=0;entryDx=0;entryDy=0;" parent="1" source="ZqhY7Jv1n4GMDDzjucdt-131" target="ZqhY7Jv1n4GMDDzjucdt-131" edge="1">
          <mxGeometry width="50" height="50" relative="1" as="geometry">
            <mxPoint x="800" y="351" as="sourcePoint" />
            <mxPoint x="750" y="241" as="targetPoint" />
          </mxGeometry>
        </mxCell>
        <mxCell id="ZqhY7Jv1n4GMDDzjucdt-134" value="" style="ellipse;whiteSpace=wrap;html=1;aspect=fixed;" parent="1" vertex="1">
          <mxGeometry x="290" y="161" width="20" height="20" as="geometry" />
        </mxCell>
        <mxCell id="ZqhY7Jv1n4GMDDzjucdt-135" value="" style="endArrow=none;html=1;rounded=0;exitX=0;exitY=1;exitDx=0;exitDy=0;entryX=1;entryY=0;entryDx=0;entryDy=0;" parent="1" source="ZqhY7Jv1n4GMDDzjucdt-134" target="ZqhY7Jv1n4GMDDzjucdt-134" edge="1">
          <mxGeometry width="50" height="50" relative="1" as="geometry">
            <mxPoint x="790" y="291" as="sourcePoint" />
            <mxPoint x="820" y="261" as="targetPoint" />
          </mxGeometry>
        </mxCell>
        <mxCell id="ZqhY7Jv1n4GMDDzjucdt-136" value="" style="endArrow=none;html=1;rounded=0;exitX=1;exitY=1;exitDx=0;exitDy=0;entryX=0;entryY=0;entryDx=0;entryDy=0;" parent="1" source="ZqhY7Jv1n4GMDDzjucdt-134" target="ZqhY7Jv1n4GMDDzjucdt-134" edge="1">
          <mxGeometry width="50" height="50" relative="1" as="geometry">
            <mxPoint x="830" y="351" as="sourcePoint" />
            <mxPoint x="780" y="241" as="targetPoint" />
          </mxGeometry>
        </mxCell>
        <mxCell id="ZqhY7Jv1n4GMDDzjucdt-137" value="" style="ellipse;whiteSpace=wrap;html=1;aspect=fixed;" parent="1" vertex="1">
          <mxGeometry x="320" y="161" width="20" height="20" as="geometry" />
        </mxCell>
        <mxCell id="ZqhY7Jv1n4GMDDzjucdt-138" value="" style="endArrow=none;html=1;rounded=0;exitX=0;exitY=1;exitDx=0;exitDy=0;entryX=1;entryY=0;entryDx=0;entryDy=0;" parent="1" source="ZqhY7Jv1n4GMDDzjucdt-137" target="ZqhY7Jv1n4GMDDzjucdt-137" edge="1">
          <mxGeometry width="50" height="50" relative="1" as="geometry">
            <mxPoint x="820" y="291" as="sourcePoint" />
            <mxPoint x="850" y="261" as="targetPoint" />
          </mxGeometry>
        </mxCell>
        <mxCell id="ZqhY7Jv1n4GMDDzjucdt-139" value="" style="endArrow=none;html=1;rounded=0;exitX=1;exitY=1;exitDx=0;exitDy=0;entryX=0;entryY=0;entryDx=0;entryDy=0;" parent="1" source="ZqhY7Jv1n4GMDDzjucdt-137" target="ZqhY7Jv1n4GMDDzjucdt-137" edge="1">
          <mxGeometry width="50" height="50" relative="1" as="geometry">
            <mxPoint x="860" y="351" as="sourcePoint" />
            <mxPoint x="810" y="241" as="targetPoint" />
          </mxGeometry>
        </mxCell>
        <mxCell id="ZqhY7Jv1n4GMDDzjucdt-140" value="" style="ellipse;whiteSpace=wrap;html=1;aspect=fixed;" parent="1" vertex="1">
          <mxGeometry x="230" y="230" width="20" height="20" as="geometry" />
        </mxCell>
        <mxCell id="ZqhY7Jv1n4GMDDzjucdt-141" value="" style="endArrow=none;html=1;rounded=0;exitX=0;exitY=1;exitDx=0;exitDy=0;entryX=1;entryY=0;entryDx=0;entryDy=0;" parent="1" source="ZqhY7Jv1n4GMDDzjucdt-140" target="ZqhY7Jv1n4GMDDzjucdt-140" edge="1">
          <mxGeometry width="50" height="50" relative="1" as="geometry">
            <mxPoint x="730" y="360" as="sourcePoint" />
            <mxPoint x="760" y="330" as="targetPoint" />
          </mxGeometry>
        </mxCell>
        <mxCell id="ZqhY7Jv1n4GMDDzjucdt-142" value="" style="endArrow=none;html=1;rounded=0;exitX=1;exitY=1;exitDx=0;exitDy=0;entryX=0;entryY=0;entryDx=0;entryDy=0;" parent="1" source="ZqhY7Jv1n4GMDDzjucdt-140" target="ZqhY7Jv1n4GMDDzjucdt-140" edge="1">
          <mxGeometry width="50" height="50" relative="1" as="geometry">
            <mxPoint x="770" y="420" as="sourcePoint" />
            <mxPoint x="720" y="310" as="targetPoint" />
          </mxGeometry>
        </mxCell>
        <mxCell id="ZqhY7Jv1n4GMDDzjucdt-143" value="" style="ellipse;whiteSpace=wrap;html=1;aspect=fixed;" parent="1" vertex="1">
          <mxGeometry x="260" y="230" width="20" height="20" as="geometry" />
        </mxCell>
        <mxCell id="ZqhY7Jv1n4GMDDzjucdt-144" value="" style="endArrow=none;html=1;rounded=0;exitX=0;exitY=1;exitDx=0;exitDy=0;entryX=1;entryY=0;entryDx=0;entryDy=0;" parent="1" source="ZqhY7Jv1n4GMDDzjucdt-143" target="ZqhY7Jv1n4GMDDzjucdt-143" edge="1">
          <mxGeometry width="50" height="50" relative="1" as="geometry">
            <mxPoint x="760" y="360" as="sourcePoint" />
            <mxPoint x="790" y="330" as="targetPoint" />
          </mxGeometry>
        </mxCell>
        <mxCell id="ZqhY7Jv1n4GMDDzjucdt-145" value="" style="endArrow=none;html=1;rounded=0;exitX=1;exitY=1;exitDx=0;exitDy=0;entryX=0;entryY=0;entryDx=0;entryDy=0;" parent="1" source="ZqhY7Jv1n4GMDDzjucdt-143" target="ZqhY7Jv1n4GMDDzjucdt-143" edge="1">
          <mxGeometry width="50" height="50" relative="1" as="geometry">
            <mxPoint x="800" y="420" as="sourcePoint" />
            <mxPoint x="750" y="310" as="targetPoint" />
          </mxGeometry>
        </mxCell>
        <mxCell id="ZqhY7Jv1n4GMDDzjucdt-146" value="" style="ellipse;whiteSpace=wrap;html=1;aspect=fixed;" parent="1" vertex="1">
          <mxGeometry x="290" y="230" width="20" height="20" as="geometry" />
        </mxCell>
        <mxCell id="ZqhY7Jv1n4GMDDzjucdt-147" value="" style="endArrow=none;html=1;rounded=0;exitX=0;exitY=1;exitDx=0;exitDy=0;entryX=1;entryY=0;entryDx=0;entryDy=0;" parent="1" source="ZqhY7Jv1n4GMDDzjucdt-146" target="ZqhY7Jv1n4GMDDzjucdt-146" edge="1">
          <mxGeometry width="50" height="50" relative="1" as="geometry">
            <mxPoint x="790" y="360" as="sourcePoint" />
            <mxPoint x="820" y="330" as="targetPoint" />
          </mxGeometry>
        </mxCell>
        <mxCell id="ZqhY7Jv1n4GMDDzjucdt-148" value="" style="endArrow=none;html=1;rounded=0;exitX=1;exitY=1;exitDx=0;exitDy=0;entryX=0;entryY=0;entryDx=0;entryDy=0;" parent="1" source="ZqhY7Jv1n4GMDDzjucdt-146" target="ZqhY7Jv1n4GMDDzjucdt-146" edge="1">
          <mxGeometry width="50" height="50" relative="1" as="geometry">
            <mxPoint x="830" y="420" as="sourcePoint" />
            <mxPoint x="780" y="310" as="targetPoint" />
          </mxGeometry>
        </mxCell>
        <mxCell id="ZqhY7Jv1n4GMDDzjucdt-149" value="" style="ellipse;whiteSpace=wrap;html=1;aspect=fixed;" parent="1" vertex="1">
          <mxGeometry x="320" y="230" width="20" height="20" as="geometry" />
        </mxCell>
        <mxCell id="ZqhY7Jv1n4GMDDzjucdt-150" value="" style="endArrow=none;html=1;rounded=0;exitX=0;exitY=1;exitDx=0;exitDy=0;entryX=1;entryY=0;entryDx=0;entryDy=0;" parent="1" source="ZqhY7Jv1n4GMDDzjucdt-149" target="ZqhY7Jv1n4GMDDzjucdt-149" edge="1">
          <mxGeometry width="50" height="50" relative="1" as="geometry">
            <mxPoint x="820" y="360" as="sourcePoint" />
            <mxPoint x="850" y="330" as="targetPoint" />
          </mxGeometry>
        </mxCell>
        <mxCell id="ZqhY7Jv1n4GMDDzjucdt-151" value="" style="endArrow=none;html=1;rounded=0;exitX=1;exitY=1;exitDx=0;exitDy=0;entryX=0;entryY=0;entryDx=0;entryDy=0;" parent="1" source="ZqhY7Jv1n4GMDDzjucdt-149" target="ZqhY7Jv1n4GMDDzjucdt-149" edge="1">
          <mxGeometry width="50" height="50" relative="1" as="geometry">
            <mxPoint x="860" y="420" as="sourcePoint" />
            <mxPoint x="810" y="310" as="targetPoint" />
          </mxGeometry>
        </mxCell>
        <mxCell id="Fs77FOUwGI9zr51j0gGx-1" value="" style="ellipse;whiteSpace=wrap;html=1;aspect=fixed;fontFamily=Times New Roman;" vertex="1" parent="1">
          <mxGeometry x="760" y="535" width="20" height="20" as="geometry" />
        </mxCell>
        <mxCell id="Fs77FOUwGI9zr51j0gGx-2" value="" style="endArrow=none;html=1;rounded=0;exitX=0;exitY=1;exitDx=0;exitDy=0;entryX=1;entryY=0;entryDx=0;entryDy=0;fontFamily=Times New Roman;" edge="1" parent="1" source="Fs77FOUwGI9zr51j0gGx-1" target="Fs77FOUwGI9zr51j0gGx-1">
          <mxGeometry width="50" height="50" relative="1" as="geometry">
            <mxPoint x="1370" y="540" as="sourcePoint" />
            <mxPoint x="1400" y="510" as="targetPoint" />
          </mxGeometry>
        </mxCell>
        <mxCell id="Fs77FOUwGI9zr51j0gGx-3" value="" style="endArrow=none;html=1;rounded=0;exitX=1;exitY=1;exitDx=0;exitDy=0;entryX=0;entryY=0;entryDx=0;entryDy=0;fontFamily=Times New Roman;" edge="1" parent="1" source="Fs77FOUwGI9zr51j0gGx-1" target="Fs77FOUwGI9zr51j0gGx-1">
          <mxGeometry width="50" height="50" relative="1" as="geometry">
            <mxPoint x="1410" y="600" as="sourcePoint" />
            <mxPoint x="1360" y="490" as="targetPoint" />
          </mxGeometry>
        </mxCell>
        <mxCell id="Fs77FOUwGI9zr51j0gGx-17" value="： Multiplication" style="text;html=1;align=center;verticalAlign=middle;resizable=0;points=[];autosize=1;fontFamily=Times New Roman;" vertex="1" parent="1">
          <mxGeometry x="775" y="530" width="110" height="30" as="geometry" />
        </mxCell>
        <mxCell id="Fs77FOUwGI9zr51j0gGx-24" value="&lt;font style=&quot;forced-color-adjust: none; color: rgb(0, 0, 0); font-style: normal; font-variant-ligatures: normal; font-variant-caps: normal; font-weight: 400; letter-spacing: normal; orphans: 2; text-align: left; text-indent: 0px; text-transform: none; widows: 2; word-spacing: 0px; -webkit-text-stroke-width: 0px; white-space: nowrap; background-color: rgb(236, 236, 236); text-decoration-thickness: initial; text-decoration-style: initial; text-decoration-color: initial;&quot;&gt;&lt;span style=&quot;forced-color-adjust: none; background-color: transparent; color: light-dark(rgb(0, 0, 0), rgb(255, 255, 255)); text-wrap-mode: wrap;&quot;&gt;&lt;span style=&quot;text-align: center;&quot;&gt;✕&lt;/span&gt;：M&lt;font&gt;&lt;span&gt;issing moda&lt;/span&gt;&lt;font&gt;lities&lt;/font&gt;&lt;/font&gt;&lt;/span&gt;&lt;/font&gt;&lt;span style=&quot;forced-color-adjust: none; color: light-dark(rgb(0, 0, 0), rgb(255, 255, 255)); font-style: normal; font-variant-ligatures: normal; font-variant-caps: normal; font-weight: 400; letter-spacing: normal; orphans: 2; text-align: left; text-indent: 0px; text-transform: none; widows: 2; word-spacing: 0px; -webkit-text-stroke-width: 0px; white-space: nowrap; background-color: transparent; text-decoration-thickness: initial; text-decoration-style: initial; text-decoration-color: initial;&quot;&gt;&amp;nbsp;&lt;/span&gt;" style="text;whiteSpace=wrap;html=1;fontFamily=Times New Roman;fontSize=12;" vertex="1" parent="1">
          <mxGeometry x="760" y="580" width="150" height="30" as="geometry" />
        </mxCell>
        <mxCell id="Fs77FOUwGI9zr51j0gGx-26" value="&lt;font style=&quot;forced-color-adjust: none; color: rgb(0, 0, 0); font-size: 12px; font-style: normal; font-variant-ligatures: normal; font-variant-caps: normal; font-weight: 400; letter-spacing: normal; orphans: 2; text-align: left; text-indent: 0px; text-transform: none; widows: 2; word-spacing: 0px; -webkit-text-stroke-width: 0px; white-space-collapse: collapse; background-color: rgb(236, 236, 236); text-decoration-thickness: initial; text-decoration-style: initial; text-decoration-color: initial;&quot;&gt;&lt;span style=&quot;text-wrap-mode: wrap; forced-color-adjust: none; background-color: transparent; color: light-dark(rgb(0, 0, 0), rgb(255, 255, 255));&quot;&gt;✓&amp;nbsp;：Available&lt;/span&gt;&lt;span style=&quot;forced-color-adjust: none; background-color: transparent; color: light-dark(rgb(0, 0, 0), rgb(255, 255, 255)); text-wrap-mode: nowrap;&quot;&gt;&amp;nbsp;modalities&lt;/span&gt;&lt;/font&gt;" style="text;whiteSpace=wrap;html=1;fontFamily=Times New Roman;" vertex="1" parent="1">
          <mxGeometry x="760" y="560" width="150" height="30" as="geometry" />
        </mxCell>
        <mxCell id="Fs77FOUwGI9zr51j0gGx-27" value="" style="rounded=1;whiteSpace=wrap;html=1;fillColor=#d5e8d4;strokeColor=#82b366;gradientColor=#97d077;" vertex="1" parent="1">
          <mxGeometry x="425" y="760" width="325" height="120" as="geometry" />
        </mxCell>
        <mxCell id="Fs77FOUwGI9zr51j0gGx-30" value="Meta-AMF" style="rounded=1;whiteSpace=wrap;html=1;fillColor=#f5f5f5;strokeColor=#666666;gradientColor=#b3b3b3;" vertex="1" parent="1">
          <mxGeometry x="540" y="360" width="120" height="80" as="geometry" />
        </mxCell>
        <mxCell id="Fs77FOUwGI9zr51j0gGx-31" value="" style="rounded=1;whiteSpace=wrap;html=1;" vertex="1" parent="1">
          <mxGeometry x="120" y="780" width="120" height="60" as="geometry" />
        </mxCell>
        <mxCell id="Fs77FOUwGI9zr51j0gGx-32" value="" style="rounded=1;whiteSpace=wrap;html=1;" vertex="1" parent="1">
          <mxGeometry x="120" y="880" width="120" height="60" as="geometry" />
        </mxCell>
        <mxCell id="Fs77FOUwGI9zr51j0gGx-37" value="" style="shape=image;verticalLabelPosition=bottom;labelBackgroundColor=default;verticalAlign=top;aspect=fixed;imageAspect=0;image=data:image/png,iVBORw0KGgoAAAANSUhEUgAABwgAAAcICAYAAAAok5WGAAAAOnRFWHRTb2Z0d2FyZQBNYXRwbG90bGliIHZlcnNpb24zLjEwLjMsIGh0dHBzOi8vbWF0cGxvdGxpYi5vcmcvZiW1igAAAAlwSFlzAAAuIwAALiMBeKU/dgABAABJREFUeJzs28uPbcmVEPw8ed4n35n3Vbeqbj3sale7MZimBeoW3QYZEAMGtIQEjGgEAwb8OUwZMENMethDq6GRAJmWUBu72qp2lavK933zfd6vT2fwCfF9xAoT6Vvpcvx+06W1d+yIFbF3auVpbG1trbcAAAAAAACAKmzf9gAAAAAAAACAL48GIQAAAAAAAFREgxAAAAAAAAAqokEIAAAAAAAAFdEgBAAAAAAAgIpoEAIAAAAAAEBFNAgBAAAAAACgIhqEAAAAAAAAUBENQgAAAAAAAKiIBiEAAAAAAABURIMQAAAAAAAAKqJBCAAAAAAAABXRIAQAAAAAAICKaBACAAAAAABARTQIAQAAAAAAoCIahAAAAAAAAFARDUIAAAAAAACoiAYhAAAAAAAAVESDEAAAAAAAACqiQQgAAAAAAAAV0SAEAAAAAACAimgQAgAAAAAAQEU0CAEAAAAAAKAiGoQAAAAAAABQEQ1CAAAAAAAAqIgGIQAAAAAAAFREgxAAAAAAAAAqokEIAAAAAAAAFdEgBAAAAAAAgIpoEAIAAAAAAEBFNAgBAAAAAACgIhqEAAAAAAAAUBENQgAAAAAAAKiIBiEAAAAAAABURIMQAAAAAAAAKqJBCAAAAAAAABXRIAQAAAAAAICKaBACAAAAAABARTQIAQAAAAAAoCIahAAAAAAAAFARDUIAAAAAAACoiAYhAAAAAAAAVESDEAAAAAAAACqiQQgAAAAAAAAV0SAEAAAAAACAimgQAgAAAAAAQEU0CAEAAAAAAKAiGoQAAAAAAABQEQ1CAAAAAAAAqIgGIQAAAAAAAFREgxAAAAAAAAAqokEIAAAAAAAAFdEgBAAAAAAAgIpoEAIAAAAAAEBFNAgBAAAAAACgIhqEAAAAAAAAUBENQgAAAAAAAKiIBiEAAAAAAABURIMQAAAAAAAAKqJBCAAAAAAAABXRIAQAAAAAAICKaBACAAAAAABARTQIAQAAAAAAoCIahAAAAAAAAFARDUIAAAAAAACoiAYhAAAAAAAAVESDEAAAAAAAACqiQQgAAAAAAAAV0SAEAAAAAACAimgQAgAAAAAAQEU0CAEAAAAAAKAiGoQAAAAAAABQEQ1CAAAAAAAAqIgGIQAAAAAAAFREgxAAAAAAAAAqokEIAAAAAAAAFdEgBAAAAAAAgIpoEAIAAAAAAEBFNAgBAAAAAACgIhqEAAAAAAAAUBENQgAAAAAAAKiIBiEAAAAAAABURIMQAAAAAAAAKqJBCAAAAAAAABXRIAQAAAAAAICKaBACAAAAAABARTQIAQAAAAAAoCIahAAAAAAAAFARDUIAAAAAAACoiAYhAAAAAAAAVESDEAAAAAAAACqiQQgAAAAAAAAV0SAEAAAAAACAimgQAgAAAAAAQEU0CAEAAAAAAKAiGoQAAAAAAABQEQ1CAAAAAAAAqIgGIQAAAAAAAFREgxAAAAAAAAAqokEIAAAAAAAAFdEgBAAAAAAAgIpoEAIAAAAAAEBFNAgBAAAAAACgIhqEAAAAAAAAUBENQgAAAAAAAKiIBiEAAAAAAABURIMQAAAAAAAAKqJBCAAAAAAAABXRIAQAAAAAAICKaBACAAAAAABARTQIAQAAAAAAoCIahAAAAAAAAFARDUIAAAAAAACoiAYhAAAAAAAAVESDEAAAAAAAACqiQQgAAAAAAAAV0SAEAAAAAACAimgQAgAAAAAAQEU0CAEAAAAAAKAiGoQAAAAAAABQEQ1CAAAAAAAAqIgGIQAAAAAAAFREgxAAAAAAAAAqokEIAAAAAAAAFdEgBAAAAAAAgIpoEAIAAAAAAEBFNAgBAAAAAACgIhqEAAAAAAAAUBENQgAAAAAAAKiIBiEAAAAAAABURIMQAAAAAAAAKqJBCAAAAAAAABXRIAQAAAAAAICKaBACAAAAAABARTQIAQAAAAAAoCIahAAAAAAAAFARDUIAAAAAAACoiAYhAAAAAAAAVESDEAAAAAAAACqiQQgAAAAAAAAV0SAEAAAAAACAimgQAgAAAAAAQEU0CAEAAAAAAKAiGoQAAAAAAABQEQ1CAAAAAAAAqIgGIQAAAAAAAFREgxAAAAAAAAAqokEIAAAAAAAAFdEgBAAAAAAAgIpoEAIAAAAAAEBFNAgBAAAAAACgIhqEAAAAAAAAUBENQgAAAAAAAKiIBiEAAAAAAABURIMQAAAAAAAAKqJBCAAAAAAAABXRIAQAAAAAAICKaBACAAAAAABARTQIAQAAAAAAoCIahAAAAAAAAFARDUIAAAAAAACoiAYhAAAAAAAAVESDEAAAAAAAACqiQQgAAAAAAAAV0SAEAAAAAACAimgQAgAAAAAAQEU0CAEAAAAAAKAiGoQAAAAAAABQEQ1CAAAAAAAAqIgGIQAAAAAAAFREgxAAAAAAAAAqokEIAAAAAAAAFdEgBAAAAAAAgIpoEAIAAAAAAEBFNAgBAAAAAACgIhqEAAAAAAAAUBENQgAAAAAAAKiIBiEAAAAAAABURIMQAAAAAAAAKqJBCAAAAAAAABXRIAQAAAAAAICKaBACAAAAAABARTQIAQAAAAAAoCIahAAAAAAAAFARDUIAAAAAAACoiAYhAAAAAAAAVESDEAAAAAAAACqiQQgAAAAAAAAV0SAEAAAAAACAimgQAgAAAAAAQEU0CAEAAAAAAKAiGoQAAAAAAABQEQ1CAAAAAAAAqIgGIQAAAAAAAFREgxAAAAAAAAAqokEIAAAAAAAAFdEgBAAAAAAAgIpoEAIAAAAAAEBFNAgBAAAAAACgIhqEAAAAAAAAUBENQgAAAAAAAKiIBiEAAAAAAABURIMQAAAAAAAAKqJBCAAAAAAAABXRIAQAAAAAAICKaBACAAAAAABARTQIAQAAAAAAoCIahAAAAAAAAFARDUIAAAAAAACoiAYhAAAAAAAAVESDEAAAAAAAACqiQQgAAAAAAAAV0SAEAAAAAACAimgQAgAAAAAAQEU0CAEAAAAAAKAiGoQAAAAAAABQEQ1CAAAAAAAAqIgGIQAAAAAAAFREgxAAAAAAAAAqokEIAAAAAAAAFdEgBAAAAAAAgIpoEAIAAAAAAEBFNAgBAAAAAACgIhqEAAAAAAAAUBENQgAAAAAAAKiIBiEAAAAAAABURIMQAAAAAAAAKqJBCAAAAAAAABXRIAQAAAAAAICKaBACAAAAAABARTQIAQAAAAAAoCIahAAAAAAAAFARDUIAAAAAAACoiAYhAAAAAAAAVESDEAAAAAAAACqiQQgAAAAAAAAV0SAEAAAAAACAimgQAgAAAAAAQEU0CAEAAAAAAKAiGoQAAAAAAABQEQ1CAAAAAAAAqIgGIQAAAAAAAFREgxAAAAAAAAAqokEIAAAAAAAAFdEgBAAAAAAAgIpoEAIAAAAAAEBFNAgBAAAAAACgIhqEAAAAAAAAUBENQgAAAAAAAKiIBiEAAAAAAABURIMQAAAAAAAAKqJBCAAAAAAAABXRIAQAAAAAAICKaBACAAAAAABARTQIAQAAAAAAoCIahAAAAAAAAFARDUIAAAAAAACoiAYhAAAAAAAAVESDEAAAAAAAACqiQQgAAAAAAAAV0SAEAAAAAACAimgQAgAAAAAAQEU0CAEAAAAAAKAiGoQAAAAAAABQEQ1CAAAAAAAAqIgGIQAAAAAAAFREgxAAAAAAAAAqokEIAAAAAAAAFdEgBAAAAAAAgIpoEAIAAAAAAEBFNAgBAAAAAACgIhqEAAAAAAAAUBENQgAAAAAAAKiIBiEAAAAAAABURIMQAAAAAAAAKqJBCAAAAAAAABXRIAQAAAAAAICKaBACAAAAAABARTQIAQAAAAAAoCIahAAAAAAAAFARDUIAAAAAAACoiAYhAAAAAAAAVESDEAAAAAAAACqiQQgAAAAAAAAV0SAEAAAAAACAimgQAgAAAAAAQEU0CAEAAAAAAKAiGoQAAAAAAABQEQ1CAAAAAAAAqIgGIQAAAAAAAFREgxAAAAAAAAAqokEIAAAAAAAAFdEgBAAAAAAAgIpoEAIAAAAAAEBFNAgBAAAAAACgIhqEAAAAAAAAUBENQgAAAAAAAKiIBiEAAAAAAABURIMQAAAAAAAAKqJBCAAAAAAAABXRIAQAAAAAAICKaBACAAAAAABARTQIAQAAAAAAoCIahAAAAAAAAFARDUIAAAAAAACoiAYhAAAAAAAAVESDEAAAAAAAACqiQQgAAAAAAAAV0SAEAAAAAACAimgQAgAAAAAAQEU0CAEAAAAAAKAiGoQAAAAAAABQEQ1CAAAAAAAAqIgGIQAAAAAAAFREgxAAAAAAAAAqokEIAAAAAAAAFdEgBAAAAAAAgIpoEAIAAAAAAEBFNAgBAAAAAACgIhqEAAAAAAAAUBENQgAAAAAAAKhI67YHAAAAAF+Gw8PDZKzRaIS5q9UqGbu4uLjRuAAAAL5sfkEIAAAAAAAAFdEgBAAAAAAAgIpoEAIAAAAAAEBFNAgBAAAAAACgIhqEAAAAAAAAUBENQgAAAAAAAKiIBiEAAAAAAABUpLG1tbW+7UEAAABfPXfv3g3j29vp/0dsNDZ/iqS12+3i3NVqlYx98cUXYS5fbW+++WYYH4/HRfW60Wq1krHlchnmrtfr4tzS6270+/1k7MmTJ8X3BQAAvvr8ghAAAAAAAAAqokEIAAAAAAAAFdEgBAAAAAAAgIpoEAIAAAAAAEBFNAgBAAAAAACgIhqEAAAAAAAAUJHG1tbW+rYHAQAAvD737t1LxhaLRZjbbreTsfU6/lNitVolY51OJ8yN4vv7+2Huq1evip5no9VqJWMff/xxmMsvxte//vUwHtVstH45w+EwjC+Xy6IxbfR6vWRsNpuFuY3G5s/2/7Nms1l83+h5NsbjcTI2n8+L7xudC7k9+vjx4zAXAAD4+fkFIQAAAAAAAFREgxAAAAAAAAAqokEIAAAAAAAAFdEgBAAAAAAAgIpoEAIAAAAAAEBFNAgBAAAAAACgIhqEAAAAAAAAUJHG1tbW+rYHAQAAlHv06FEY395O/1/gwcFBmNtobP5k+D+bTCZh7mKxSMZ6vV6Ye3V1VXTdjdVqlYzdvXs3zL1//34y1u/3w9xOp5OMDYfDMPeP/uiPtmry9//+30/G3nzzzTB3NBolYz/72c/C3Ovr6+J6nk6nydjl5WXxPorqdaPZbCZj63X853y0z6JzYWM2mxXvwei+0Tzm1uHo6CjM/fTTT8M4AADwv/gFIQAAAAAAAFREgxAAAAAAAAAqokEIAAAAAAAAFdEgBAAAAAAAgIpoEAIAAAAAAEBFNAgBAAAAAACgIo2tra31bQ8CAAC+Ku7evZuMNZvNMHc+nydj3W63+L7Hx8dh7sOHD5Ox1WoV5k4mk61ST548ScbW6/jPkOvr66Ln2Tg5OUnGrq6uwtzDw8NkbDAYhLmtVisZm81mYW40rv/wH/7D1lfNP/pH/yiMv/fee8lYp9MJc3u9XjJ2enoa5n7++efFtXF2dpaMXVxcbJVaLpdhPJqP3P4trdfcHo32Z+6syz3vcDgsPiejfdZut8PcXO0AAMCvGr8gBAAAAAAAgIpoEAIAAAAAAEBFNAgBAAAAAACgIhqEAAAAAAAAUBENQgAAAAAAAKiIBiEAAAAAAABURIMQAAAAAAAAKtLY2tpa3/YgAADg/+vRo0dh/LPPPnst9z06OgrjjcbmE/r/rN1uh7ndbjcZu3fvXpj7rW99Kxnb2dkJcy8uLpKx7e34fwb39vaSseVyGeb++Mc/TsZarVaY2+v1imIb+/v7ydjV1VWY22w2k7FOpxPmHhwcFM/V5eVlUWzjD//wD7duw9/5O38nGfvmN78Z5s7n82RsNBqFudH6R3sst/6z2SzMnU6nxXs/2mer1SrMja6dq6vhcLhVKlqjaJ9s9Pv9ZGw8HhefV2dnZ2Hus2fPkrHFYhHmrtfroufJnWc//elPw1wAALgtfkEIAAAAAAAAFdEgBAAAAAAAgIpoEAIAAAAAAEBFNAgBAAAAAACgIhqEAAAAAAAAUBENQgAAAAAAAKhIY2tra33bgwAAoE53794tzl2tVkWxXHy9jj+Pm81mMnZ0dBTmvv3228nYvXv3wtz33nsvGRsOh2HuixcvkrHj4+Mwdz6fJ2OLxSLMjeYymseN5XJZFNtotVrJ2PZ2+f9I5uqq0+kkY/1+P8ydTCbFz/vRRx8lY5999lnxM7Xb7TD3t3/7t5Ox+/fvh7kXFxfJ2P7+fpjb7XaL5+ry8rKo1nPXzuWORqNkrNfrhbmNRqM4NxpzdN2b7qPBYFB839lsloxdXV2Fuc+ePUvGXr58Gea+evWqaH/m9n4uNzoLnz9/HuYCAMBN+AUhAAAAAAAAVESDEAAAAAAAACqiQQgAAAAAAAAV0SAEAAAAAACAimgQAgAAAAAAQEU0CAEAAAAAAKAiGoQAAAAAAABQkdZtDwAAgF9d9+7dC+OdTicZOzw8DHN7vV4y1mw2w9zd3d1k7OjoKMx98uRJMjadTsPcR48eJWOLxSLMnUwmxXO1Wq2SsdFoFOZGz5Sb52h9x+PxVqncfSPb29vFc5UTPVOrFf/p1e/3i2vjW9/6VjJ2fn4e5kbxnZ2dMHc+nxc/b3TtXE2enZ0V74Vo/XN11Wg0iuYid67s7e2FudH6X19fF9dku90uPmNzNRnVVW59o3WIzpSNhw8fJmPvvPNOmHt6epqMffLJJ2Hu8+fPi/dRdLYDAMDr5BeEAAAAAAAAUBENQgAAAAAAAKiIBiEAAAAAAABURIMQAAAAAAAAKqJBCAAAAAAAABXRIAQAAAAAAICKtG57AAAAfLU9fPgwGbt7925x7u7ubpi7WCySsW63G+a22+3i+x4eHiZjf/EXfxHmzufzojHlckejUZh7fn6ejE0mkzA3GtdqtQpzW630nxuNRmPrdZlOp8nYbDYLczudTvHzRs+Um+fo2rkxb2+n/+/zgw8+CHM/+uijZKzZbIa5UXy9XhfXxnA4LL5vtH4b4/G4ODdaw2iPbRwdHSVjV1dXxWddrq6iuVoul2FuNK5+vx/mDgaDorXf2NvbS8aePXsW5kZrGK1BLndnZyfM/fGPf1z8Xoie98GDB2FutIa5MUfnxk9+8pMwFwCAXw1+QQgAAAAAAAAV0SAEAAAAAACAimgQAgAAAAAAQEU0CAEAAAAAAKAiGoQAAAAAAABQEQ1CAAAAAAAAqIgGIQAAAAAAAFSkddsDAADgl9s777wTxt94443i3F6vl4wtFoswd39/Pxlrt9th7mQyScYuLy/D3L29vWTs4cOHYe5sNisec5QbPc9N53k+n2+VajQaxfftdDrJ2PZ2/H+O0Xz0+/0wd7VaJWPX19dhbrPZLIrl7hvNRS43WoON3d3d4jG3Wq3i9V0ul1ulor3wySefhLnT6TQZe/vtt8PcaI/m5iqK59YoqvfBYBDmRuuQO+tye6V0rqL12zg7O0vG1ut18VmXe97T09Nk7O7du2Hut7/97a1Sz58/T8aGw2GYm1v/0rP9/v37xfv35cuXxWMCAODL5ReEAAAAAAAAUBENQgAAAAAAAKiIBiEAAAAAAABURIMQAAAAAAAAKqJBCAAAAAAAABXRIAQAAAAAAICKtG57AAAA/HJ7//33w/iv/dqvJWOTySTMvb6+Tsa2t+P/ZRsMBsnY+fl5mLtarZKxvb29MHc0GiVju7u7xbnRmHLxXG6j0UjG1ut1mButw3K5DHOn02nRmDZms1nxmBeLRTI2n8/D3OFwmIz1er0wt9vtFl0390ytVvxnW7/fT8Z2dnbC3GazmYy12+0wN1r/3P6Nrp1bo2g+cns/um9Uczc9N6KzMKqb3F7JjTmay9y5kVv/SLT+JycnYe7Z2dlreafkzqvc/i7dR48ePQpzo7Mh906J5jJ6R268evWqaEy5Nco972effRbGAQD48vgFIQAAAAAAAFREgxAAAAAAAAAqokEIAAAAAAAAFdEgBAAAAAAAgIpoEAIAAAAAAEBFNAgBAAAAAACgIhqEAAAAAAAAUJHWbQ8AAIDb9/u///vJ2P7+fpg7mUySsevr6zC31WoVxTYuLi62XofT09Mwvlwuk7FGoxHmrlarouvmcheLRXFuu90uXt9OpxPmDofDrVLRtXNjnk6nydh4PA5zo2s3m82tUrl6zj1TpN/vF81FLt7tdovHnNv7g8GguJ63t7eLYrl1yNVr9Ey7u7vF982NeT6fF+3t3BrdpOaurq7CeLTPDg8Pw9zoLMydz/fu3Svev9GYc3MV1Wxurg4ODpKxDz74oDg3Ors33n777WRsNBqFuR999FEy9vz58zD3rbfeSsa++OKLMBcAgF8svyAEAAAAAACAimgQAgAAAAAAQEU0CAEAAAAAAKAiGoQAAAAAAABQEQ1CAAAAAAAAqIgGIQAAAAAAAFSkddsDAADg5/MP/sE/COO9Xi8Za7fbYe72dvr/xlarVZgbxRuNRpgbxZfLZZg7HA6TsZ2dnTC32WwmY7PZrDg3J8pdLBZh7nQ6Lc5dr9fJ2GAwCHOja0fXzdXdaDQKczudTnFNRvfN5UZrFK1Bzt7eXvHz5vZvtEatVvmffLlaj8Z8dXVVfO3ournnze393LlSmpur5+h8zonOydx1o9xcbczn82Ts8vIyzM2tQ+n65moj2iuTyeS11UY0l7n9e3x8XHzGvnjxIhnrdrthbr/fLz6vvva1rxW/j8bjcRgHAODL4xeEAAAAAAAAUBENQgAAAAAAAKiIBiEAAAAAAABURIMQAAAAAAAAKqJBCAAAAAAAABXRIAQAAAAAAICKaBACAAAAAABARVq3PQAAAP6Xf/Wv/lUyNhwOw9zZbJaMbW/H/xc2n8+TsZ2dnTA3Gtd0Og1zW6305+hyuQxze73eVqnctSOj0SgZm0wmYW673S6K5eI3eZ6obnLr/+rVqzC33++/lvWL1iCn0WiE8cViUbRPcs/U6XSK90I0jxvj8bh4faMx7+7uhrlRveeeNzob9vb2wtz1el28vlE8t76r1SoZu7q6CnOjPdpsNovXKKrX3DznaqPb7SZjg8EgzI3m8iZzdZOzIfcOvcmZFO3BaG/n5vkm79Dc80TvlNzZfnx8nIx9+OGHYe5/+2//LYwDAPDl8QtCAAAAAAAAqIgGIQAAAAAAAFREgxAAAAAAAAAqokEIAAAAAAAAFdEgBAAAAAAAgIpoEAIAAAAAAEBFWrc9AACAmvzBH/xBGB+Px8lYqxV/uq1Wq2RsMpmEudG1ozFtzOfzZGx/f3+rVPQ8G+12uzh3Op0mY4vFIsxtNBrJWLfbLc7NrVGv10vG1ut18RqNRqMw9/j4OBnb2dkpvu9gMAhzo3VYLpdhbrT+uX0UrdHu7m6Y22w2i9e30+kUjzmaq36/H+bu7e0Vr2+0hrk9GNXd9vZ28d7PzdVN1iiay9zzRvHcGRvVe7THcnN1E1G93vTMuYmDg4PiucjNZek7JbcHo7nMne1R/PHjx2Huo0ePit43OScnJ2H8rbfeSsZ+8pOfFN8XAID/e35BCAAAAAAAABXRIAQAAAAAAICKaBACAAAAAABARTQIAQAAAAAAoCIahAAAAAAAAFARDUIAAAAAAACoiAYhAAAAAAAAVKR12wMAAPhV8/u///vJ2HQ6DXNXq1Uy1m63i8e0XC7DeLPZLM5dr9fJ2Gw2K75vp9Mpvm9unieTydbrMJ/Pw3i/30/GhsNh8X2jutm4urpKxnZ2dorv2+v1wni0Drk1uklNRvMRXXej0WgU3zeyvR3/b2a0V3LzfBO7u7tFdZPLjWo990y5vbBYLIrr6iZrdHBwULz3X9c+Go/HxXPV7XbD3OjauTOn1Wq9lvfgTc6rm5z70fsmZzAYhPHoTMqtb5Sbm6tof0d1k3s/5/bCw4cPk7G/9tf+Wpj73//7fw/jAAD83/ELQgAAAAAAAKiIBiEAAAAAAABURIMQAAAAAAAAKqJBCAAAAAAAABXRIAQAAAAAAICKaBACAAAAAABARVq3PQAAgF81h4eHydhwOAxzB4NB8X3X63Vx7mQyKc5tt9vJ2Hw+Lx5zp9MJc2ezWfHzbG9vF8U2rq6ukrFms7lVKve8o9GoeJ5vct+b5EbzMR6Pw9ydnZ2imstZrVZhvNvtFucul8tkbLFYFOfu7+8Xz1XuzImeN7ePov3basV/akY1m6vnRqNR9Dwb19fXxfu31+sVrUHu3MjVRjTPuftGc5Wb52hc0XVzezR3xkb7LFdXUc3mnndvb++1vF+jd1Wu7nJnzk3O2Ju8N6JzJXc+R+fZnTt3wtwPP/wwGfvoo4/CXAAA/v/8ghAAAAAAAAAqokEIAAAAAAAAFdEgBAAAAAAAgIpoEAIAAAAAAEBFNAgBAAAAAACgIhqEAAAAAAAAUBENQgAAAAAAAKhI67YHAADwq2a9Xidj7XY7zJ1Op8lYs9kMc6P4arUKc8fjcRgvve9yuQxzW63052ij0Sieq/l8Xnzf3FxF8ePj4zD36uqqeA263W7R82z0er3i543G3O/3i++bq41oPnK1EY0rVxvRtaO9vTGbzZKxo6Oj4vXN7f1oLnNzlaud13XfXLzUYDAI45eXl8XXjtZoZ2cnzI3iuTFFe2F/f794nnN7cDKZFO3tXG5urqJ9dHZ2Fubu7e0lY8PhMMx94403tkpF7/bt7fj/sqNzJZcbrW/ueyM6+3NnTjTm3N6O1j93Tr569SoZe/fdd8PcTz/9NIwDANTILwgBAAAAAACgIhqEAAAAAAAAUBENQgAAAAAAAKiIBiEAAAAAAABURIMQAAAAAAAAKqJBCAAAAAAAABVp3fYAAAB+Gf3Df/gPk7FHjx6FuVdXV8lYo9EIc2ezWTK2vR3/b1cUz9239Lq5Mbda5Z+bp6enYXw+nydjy+UyzG2328lYt9sNcyeTSVFsY7VaFc/VTXLX63XxmKP1j+Zxo9frFY0pJ3ff6No7OzthbqfTKd4Lg8GguK4iuXqO9ndurqbTaTI2Ho+L92C09rl5vri4KD5zon2ysbu7W/Q8G81mMxk7PDwMc6Nr5+Y52t+5Md+kriI3Oa8Wi0Vxbm59ozXK7d9oL+T2UXTf0Wi0Veom5+RNvjdyudF85Oo5Ohty9717925xbUTvulxudN//+T//Z5gLAPDLzC8IAQAAAAAAoCIahAAAAAAAAFARDUIAAAAAAACoiAYhAAAAAAAAVESDEAAAAAAAACqiQQgAAAAAAAAV0SAEAAAAAACAirRuewAAALfhd37nd8L47u5uMjafz4vvu1wuw/hqtUrGZrNZmNvpdJKxRqMR5m5vp/9vrNvtFue2WvHn5uXlZfFc7ezsFM1jbsy53Giep9Np8X17vV6YO5lMkrFmsxnmLhaL4nmOrj0YDF5bTUb3za1RFD84OAhz1+t1Uc3l5iM35uhcieYxN5e5mry6uiqqm43Dw8Pi542Mx+PivZCbq1w8MhqNiq8bPVO73Q5zo7MhN8/RGXyTmozO7o27d+8WXTc3H7lz48mTJ8V7PzpzcvsoeqbcGRudObm5iuouet/knjc3z1HtRM+zcX5+XvwefPDgQTJ2cnJSfD6/fPkyzH3x4kUYBwD4qvILQgAAAAAAAKiIBiEAAAAAAABURIMQAAAAAAAAKqJBCAAAAAAAABXRIAQAAAAAAICKaBACAAAAAABARVq3PQAAgNfln/7Tf5qMTSaTMHexWBTFNpbLZTLWbrfD3PV6XRTbaDQaRbHcuG5y32gucvfd2dkJc8/OzpKx+Xwe5u7u7iZjzWYzzO12u8nYbDYLc6NxrVarMDcaV7/fD3NHo1Ey1ul0wtxoDafTaZgbjWt/fz/MjeYyt3+jumq1WsXPm6uraD5ydRXFc2OOaid35pycnBTv316vl4wNh8Mwd3s7/b+qe3t7YW50BudqMrpv9Dy5mry4uCg+J3P3jdY/d+bkzu9INK7z8/PiMyd3XkVjjq6bq7vDw8PifXST/ZszHo+Lz7qbjOkmNRntwej9msvN3Tdao+jdvPGX/tJfSsY++eST4jUCAPgq8wtCAAAAAAAAqIgGIQAAAAAAAFREgxAAAAAAAAAqokEIAAAAAAAAFdEgBAAAAAAAgIpoEAIAAAAAAEBFNAgBAAAAAACgIq3bHgAAQKl//s//eRhfrVbF197eTv8f1Xg8DnMbjUbRdTfa7XYytlgswtxXr14lY4PBIMzt9/vJ2HQ6DXOXy2UyNplMwtydnZ3i5221WkXXzdVGs9ksft71eh3m9nq9ouvmnim3RtFcHh4ehrlXV1dFsdwa5fZCNB/7+/vF943250a3203GZrPZaztzojWKzoWNTqdTnBvV1fn5eZj77NmzZOz4+DjMHQ6HRftk4+DgoOi6ubmKzsGNs7OzZOzi4qK4no+OjsLc6FzJnTk3eadEY472WO5M2t3dDXOjcyX3TonOs9wZG9VObo2i8+zx48dhbrQOuXMymqvcezA663LnZLT+uZqM9mCuJqP5yL0Ho9yHDx+GudE7Z29vL8z9wQ9+EMYBAG6TXxACAAAAAABARTQIAQAAAAAAoCIahAAAAAAAAFARDUIAAAAAAACoiAYhAAAAAAAAVESDEAAAAAAAACrSuu0BAABE/uW//JfJ2GKxCHOvr6+TsU6nE+auVqtkbL1eh7ntdjsZm06nYW6j0Sh+3u3t7eL79vv9ZGxnZ6d4nrvdbvE855736OgoGZvP58X3nc1mW6V6vV7x+o5GozA3Wofourn5uElNNpvNMHcymSRje3t7W6UuLy/DeHTtwWBQvBdy50b0vFHN5fZvdN2N3d3drdfh0aNHYfzzzz9PxobDYfEaRWuQW4fxeBzmRud3rp6jec7twahmo7XPjTk6f3Pnxk3O9twaRefos2fPwtzoLIzer7kz+CbfDLk9Fq1Rbn2jsyH3Llsul1ulorM/txdu8v6N1iE3V9E3Re58jmoydz7v7+8nY++8806YG53fH3/8cZgLAPC6+QUhAAAAAAAAVESDEAAAAAAAACqiQQgAAAAAAAAV0SAEAAAAAACAimgQAgAAAAAAQEU0CAEAAAAAAKAiGoQAAAAAAABQkdZtDwAAINJoNJKx1WoV5vZ6vWRsezv+P6npdFo0po3xeJyMLZfLrVLz+TyM7+3tJWOTySTMXSwWxWOOxjUYDMLc6Nq53GazWbQGG+12Oxm7uroKc4+Pj4uuuzEcDotzozWM5mJjZ2eneC9Eubn7Ruvb7XbD3Gj9z87OwtzcM0XW63Uytru7W7yPbnLmRHWzcffu3eLzajQaFT/v4eFhMvbpp5+GudfX18W1EdVkq9UqPq9u8k6J6ia3DlHd5MaVW9/oPIveGbl1uMkey81zdN/cezA6k3K1cX5+noxdXFy8tjM2el9FNZdbw36/XzxXs9kszH327Fnx/o3iufdgtP653Gif5b4ZojHn9tE777yTjH388cdhLgDA6+YXhAAAAAAAAFARDUIAAAAAAACoiAYhAAAAAAAAVESDEAAAAAAAACqiQQgAAAAAAAAV0SAEAAAAAACAirRuewAAAJHVapWMNRqN13Ldjfl8noxtb28X5zabzeJxdTqdMHc0GiVjy+UyzG21WsW50bgWi0WYG61hv98Pc3u9XjLWbrfD3JcvXxZdN3ftXF2VrkFurm6Sm9tH0fPm7jsej5Ox4XBYfN/Dw8MwN4pPp9MwdzKZJGPr9TrMjeK5fRTFd3d3w9wXL14kY91uN8yN1j+3f3PrEPnkk0+K7/vuu+8Wn7FRTebOnOjsz+39wWCQjM1ms+L1ze3B6Nq5PXhwcFD8vNFc5d6h0Tsld15F79+dnZ0wNxrX9fV1mHtycpKM3bt3L8yN6j1Xk1E9X11dhbnRtaN5zK1D7v1b+jy5ej4+Pg5zo72SOyf39/eTsdPT0+J6/sY3vhHm/vmf/3kYBwC4Kb8gBAAAAAAAgIpoEAIAAAAAAEBFNAgBAAAAAACgIhqEAAAAAAAAUBENQgAAAAAAAKiIBiEAAAAAAABURIMQAAAAAAAAKtK67QEAAL/6/u7f/bvJ2Pvvvx/mzmazZGx7O/5fp3a7nYyt1+utUo1GI4zP5/NkbDKZhLk7OzvJWKfTCXOja+fGPB6Pt0o1m81kbDgchrnRMy2Xy+J5ztVG5O7du2H84uKiqOZy6xvVeu6Zcs8brX8ud7VaFa1B7pkWi0WYe//+/WSs1Yr/jDk/P98q1e12i+s5mufcmKN4bu9fXV1tler1esW50R6Nan1jd3c3GTs7Owtzo/k4OjoKc6M9mjsnB4NB8TxGeyG3vk+fPi1+l/X7/eL9G9Vk7nlz+7vU8fFx8V7Iveeid9loNApzp9Ppa3kf5c6c6Jmitc+d7bkxR7WRe3dHcnUV7cHc91W0z3Lnc3RuRGPK7d/cNwMAwOvmF4QAAAAAAABQEQ1CAAAAAAAAqIgGIQAAAAAAAFREgxAAAAAAAAAqokEIAAAAAAAAFdEgBAAAAAAAgIq0bnsAAMBX34cffhjGT05OkrH1eh3mLpfLZKzT6YS5k8lk63UYDAZhfDabJWPb2/H/Z/V6vWRsPp+Hufv7+0XzmJurfr8f5jabzaK5yK1h7nmHw2HxPEfx3Jhvsr6tVuu11PNqtQpzo2vn7htdezqdbpW6vr4urudutxvmRuM6Pj4urqvFYhHm7u7uFs9zpNFohPF2u11836gmc3sh8vDhwzB+dHSUjH366adh7suXL4vXN5qPi4uLMDequ9w8R2dw7nyO5ipXG9E79uzsrHiP5s666L65MUfvlNxc7e3tFa9vVO+59Y2ufZM9mBtztPdz85xbw9Lc3Pk8Go2K3/vR+uZqI5rnm4w5d05G34y5d8pbb72VjH3xxRdhLgDAz8MvCAEAAAAAAKAiGoQAAAAAAABQEQ1CAAAAAAAAqIgGIQAAAAAAAFREgxAAAAAAAAAqokEIAAAAAAAAFdEgBAAAAAAAgIq0bnsAAMBX3/3798P4zs5OMjYcDsPcXq+XjK3X6zB3NpslY6vVKsxtt9vFuZ1OJxnr9/thbnTtRqMR5m5vbxfNxUarVf5ZOJlMkrH5fB7mnpycJGPL5TLMjWonqpvc+k6n0zB3MBgUXXej2WwmY91uN8yN5jJXG4vForg2SseUm6vcfc/OzpKxt95667XV83g8Lh5zru5K5a4b7ZXcGXvnzp2i625cXV0lY3t7e8W18+rVqzD38ePHxWP+2te+VjxX0dkwGo3C3Ojsv8n7KFcbL168KHpnbJyeniZj+/v7xWOOzqPcXOXO5+i+ueeN4tHZnVv/6JtgY3d3t2iP5Won942Ue+dEondO7vyNzpyc6L1weHgY5ubWv7Suom+gXDxXz9H388OHD4vPSQCA/5dfEAIAAAAAAEBFNAgBAAAAAACgIhqEAAAAAAAAUBENQgAAAAAAAKiIBiEAAAAAAABURIMQAAAAAAAAKtK67QEAAF8N3/72t5OxXq8X5i6Xy2Ss0+mEuTs7O8nY6elpmLter7deh/F4HMYbjUbxtefzeTK2u7sb5l5fXxfft9lsJmOLxSLMPTo6SsZyc7G3t5eMDYfD4jHntFrpz+Dt7e3i+04mkzC33W4Xz3NUz7k9GFmtVq9tni8vL5Oxbrcb5kbzkZurqO4uLi6KazJ335ucR9G1c+dkdDbk9lF038FgEOZGcxntsY39/f1k7I033ghzr66uius1qrvRaFR89kfPs9Hv94ueJ3eu5Ooqys3Vc7SGuXmO3vvRey53bkTzmNsrubM9unZuzNGZk1uj6AzO7f1onqPvp9y4cusbvXNms1mYe3BwkIxNp9MwN3qmm3yL5kS5uW/CSK4mo/vmztg7d+4kYy9fvvw5RgcA1MAvCAEAAAAAAKAiGoQAAAAAAABQEQ1CAAAAAAAAqIgGIQAAAAAAAFREgxAAAAAAAAAqokEIAAAAAAAAFdEgBAAAAAAAgIq0bnsAAMBXw2KxSMb6/X6YG8WXy2WYOxqNkrH1eh3mrlarZKzdboe5zWYzGdve3i6+72w2C3N7vd5Wqfl8XnzdaB1yaxQ908HBQZg7nU6TsYuLizC30WgUj7nT6RTXVfS8ufW9SU1GzxvNY65mr66uwtx79+4V11U0H7lzI8qNan1jMBgkY69evdoqdefOnTAe1V1ujaL1zz1vt9stum5un+3u7oa5rVar6J2R2wtRzW3s7OwU7e1cXUV77Od5pkh07ahec3OVy432d+68itYh9x6MzobcPEdjzp3P0TdDNI+591XunTKZTIpiuXre29srft7cXhgOh8Xnc+7dHonmI3dORmfheDwOc6PzLLe3z8/Pi9Zg4/DwMBl79OhR8Rrl3mWffPJJMvby5cswFwCoh18QAgAAAAAAQEU0CAEAAAAAAKAiGoQAAAAAAABQEQ1CAAAAAAAAqIgGIQAAAAAAAFREgxAAAAAAAAAq0rrtAQAAXw27u7vJ2Hw+D3MvLy+TsU6nE+bOZrNkrNWKP2UGg0HxfSOr1SqMr9frZKzf74e5o9EoGXv+/Hnx8+bGPJ1Ok7FmsxnmXlxcJGPdbjfMXSwWydjV1VWYu7e3t1Uqqqsolqu7/f394vVtNBrFdRWtX26ucmPe3k7/T+FyuQxzo2vn6iqqjVw97+zsFNdkdJ7l5jmaq1xudDbc5L5RbOPZs2dFY8qtYW6NIrk1arfbRXVz07MuknsP5s6VSDSXuXdZtBdOTk6K92/ufRRdOzcX0VkXrf3GZDIpOn83er1e8V64vr4ursnDw8Nk7Pj4OMz90Y9+tFXq4ODgVr4ZovdGtAa5d1luL0S18erVqzB3OBwmY3fv3g1z79+/n4yNx+Mw986dO8nYW2+9tVXq008/Lc4FAH61+AUhAAAAAAAAVESDEAAAAAAAACqiQQgAAAAAAAAV0SAEAAAAAACAimgQAgAAAAAAQEU0CAEAAAAAAKAiGoQAAAAAAABQkdZtDwAA+GrY29tLxjqdTpi7XC6TscViEea2WuWfK41Go2hMG+v1Ohnb3t4uvu9oNApzHz9+nIz1er0wNxrX9fV1mNtsNpOx1WoV5kbj6na7YW40rlzu69Jut4ufN5rHXN1FNbexu7tbXFfRuHJjns/nW6Wi583t7Sh+k/2bu29Ud7m9cHl5WVxX0Vl4dXVV/LzReZRb39lsFuYeHBwkYxcXF8X3za1vtA6591GUmztjo9rI7aPovrk9Fj3TcDgMc6OzITdXUU3m3oPRGubuG+2V3B6Mrj2dTsPc3FxGonFFZ3duLnPvhahmc/s3uvZN9mBuzNH65s7JaK/k1jeq58FgsFUqd25E75zxeBzmRmuYu+8HH3yQjH3ve98LcwGAevgFIQAAAAAAAFREgxAAAAAAAAAqokEIAAAAAAAAFdEgBAAAAAAAgIpoEAIAAAAAAEBFNAgBAAAAAACgIq3bHgAA8NVwdHSUjO3v74e56/U6GRsOh2Fuo9FIxra34/91Wq1WRWPKxaO52JjP58nYkydPwtzFYrFVajQaJWPNZjPMHQwGydjV1VWYG63DcrkMc6fTaXHueDxOxjqdTpgbxXN1FY05WvvcPEe1npuPViv+rG+328V7IXreg4ODMDca187OTpgb1ezFxUWYG61ht9sNc6MzKVeT0fpG51GunnP3vb6+Llr73Hzkzueb7KObnO03OSejmuz3+8U1+fLlyzD34cOHRdfNnSu5NYr2d1RzG5PJJBk7PDwMc6N6zz1vVFe5fbS3t1e896N3aK42ojXKPW9Uz7n1ffToUTJ2dnZWfLbnzGaz4vdRbh1ex5hy9829j6IzKXde5b6hIlHd5Z631+slY//6X//rMPff/Jt/83OMDgD4VeAXhAAAAAAAAFARDUIAAAAAAACoiAYhAAAAAAAAVESDEAAAAAAAACqiQQgAAAAAAAAV0SAEAAAAAACAimgQAgAAAAAAQEVatz0AAOCXw2/91m+F8WazmYw1Go2t12U+nydjs9mseMy7u7th7nQ6LRrTxmg0KrruRqfTScZarfjTrdfrJWOTySTMjcbVbreL53k8Hoe5Ue1sb8f/y7Zer5Ox5XJZnNvtdsPc3FyWrlFuzEdHR8U1eZM9ulqtitcoksuNnvf6+jrMvbq6SsYePXpUPFcXFxdhbrRHz8/Pi3MHg0HxGuXOyWgdcufVYrHYKhWNOfe80Zhzz3t4eJiMvXr1KsyN3hvRmbLx4sWLZGx/fz/MjdZhOByGudG5Eq1B7mzPzXN0TubWN7pv9H7N1UZ0/uaeKTpTcvfNiXJzdRXN1U3knid650TfMblvitx9Dw4Oiu8bnd+59350Pt9kjXJjzp3Bpbm5PfhP/sk/Scb+/b//98VjAgB++fgFIQAAAAAAAFREgxAAAAAAAAAqokEIAAAAAAAAFdEgBAAAAAAAgIpoEAIAAAAAAEBFNAgBAAAAAACgIq3bHgAA8MthvV4X5y4WizC+vZ3+n6R2ux3m7u3tJWMvX74Mc5vNZjLW6/XC3IuLi2RsuVyGufP5vGguNhqNRvGYW630p1232y2+b27MkfF4HMajaw8GgzA3qp3r6+swd7VaFY85Wt/cPEdrtL+/H+a+8847W6Wurq6K1zfaZ7m9H8nN1cnJSfEefPz4cTK2s7MT5vb7/WTs9PQ0zD0/P0/GJpNJmNvpdIrGlDsbcmdsNK7RaBTmTqfTZOzw8LD4vrn3UTQfX3zxRXFdRbHcXsit77Nnz4rOhdw85+YqunbunRKdDdE5mBtzbu9HNZs7n6Nr5/b+TWoydyaVfqtEsdz65s6NSK42oufN7YXoeyN3XkV1lZur4XBY9E2QOxsuLy+3XpdonnP1HL1TcvP85ptv/hyjAwB+FfgFIQAAAAAAAFREgxAAAAAAAAAqokEIAAAAAAAAFdEgBAAAAAAAgIpoEAIAAAAAAEBFNAgBAAAAAACgIhqEAAAAAAAAUJHWbQ8AAPjlcHh4GMa73W4ytlqtwtzt7fT/JE2n0zB3MBgkY8vlMsxtNpvFY57P50WxjfV6nYwdHx8Xz3PO+fl5MnZwcBDm9nq94nlut9vJ2GQyCXOjuYzWb2NnZycZazQaW6VyzxvNVafTCXP7/X4y9sYbb4S59+/fL9onG4vFoniufvaznxVdN7fPcrURrf/7779fXBu5vRCdV0dHR2Hu06dPt0pFczkajYqvG+3Pjd3d3eKzbm9vr/i+FxcXxedgdI5G67fx0UcfJWO//uu/vlUq97zRuXF1dVX8TsnJzUfk+vq6+Hmj2sk9b3SO5s7n2WyWjI3H4+IzJ1eT0bdMbszRGZxb++i++/v7xc+bO3Oi9c897+npafE3Uu6dE4nek7lvwmgdcnssys3dt9VqvZZv71xubn8DAL86/IIQAAAAAAAAKqJBCAAAAAAAABXRIAQAAAAAAICKaBACAAAAAABARTQIAQAAAAAAoCIahAAAAAAAAFCR1m0PAAD45XB9fR3Gx+NxMtbr9cLc7e3toutuzOfzZGwwGIS5zWYzGbu6ugpz2+120fNsLBaLojHlnmm5XIa5rVareMzT6bR4fTudTjLWaDTC3L29vaJ53BiNRlulovmI5jG3RlG95ub5JnMVxXLPlFvfaC/k6jma5xcvXoS5k8mkeO9H8ZvMVa4mo+fNnbHr9ToZ63a7xXV1cXER5h4eHiZjw+EwzH316lUy9lf/6l8tft7oeXJ7f3d3N8z9+OOPi+Zi4913303G9vf3i8d8fn5eXJPRPObMZrMw/vTp02Ts6OgozH3w4EFxTUZn0r1794rPjZxonnNne3R+596/N3kfRWdwdHbnxpybx9VqVTSmXG7u2yyqjdwaRedo7nmfPXuWjB0cHIS50Xzk9mD03Zfb+1Fd5XKjcf2Lf/Evwtx/+2//bRgHAH65+AUhAAAAAAAAVESDEAAAAAAAACqiQQgAAAAAAAAV0SAEAAAAAACAimgQAgAAAAAAQEU0CAEAAAAAAKAiGoQAAAAAAABQkdZtDwAA+OXQbrfDeKvVKoptrNfrZKzf74e5zWYzGev1emHuZDJJxmazWZi7XC6TsZ2dnTC30+kkY9vb8f9nrVarZOyLL74ovu/du3fD3OjaufUtncfcmKO5yMVztRHdt9FoFNdkFMvFc3vw8PBwq9R8Pk/G7ty5E+beu3ev+L7D4TAZOzo6CnNvUnfR8z58+DDMjWont77vvfdeMnZ6ehrmfvTRR8nY1dVVmBvV7Hg8DnNHo1Fx7sXFRTL29ttvF+/fxWIR5kbn901yX7x4EebmztHIdDotrqtut1v0nsvVxmAwCHP39/eLz/ZoXLm9Hd03im08fvy4uDaiuYrOlJu+U6LvgoODg+IzNlcb0V6InieXm5urqO5yuVE8N8/ROzb6Ts3Fc/UcrVEUy4059w6NzpybyH3H/u2//beTse9973uvYUQAwE34BSEAAAAAAABURIMQAAAAAAAAKqJBCAAAAAAAABXRIAQAAAAAAICKaBACAAAAAABARTQIAQAAAAAAoCKt2x4AAPDL4eDgIIwPBoNkbLFYhLnNZjMZ29nZCXMnk0kydn5+vlWq3++H8UajUXztVqtVFNsYjUbJ2HA4DHMPDw+Tse3t+P/ConF1Op0wdzabJWN7e3uvra6icbXb7TB3vV5vlYqu3ev1iq+bG1M0H7m6ys1HZHd3t3ifRM+0XC7D3JvMZXRuRM+TOwvn83mYu1qtkrF79+6FuVH8xz/+cZj7ox/9qHjvR/sot75RTT558qT4vZDbC1G958Yc5V5eXoa5r169Kjp/c+uQO9uPj4+L9/b19XXxPEd7Ibd/o3o+OjoqXqOrq6vid0pOtH9zbnLf6LzKnYPRd1CurqLvr9z7d39/v+ibILcXcrmR3LdKdN9utxvmRvNxcXER5k6n0+J3SrS/c3s/Ogtz6xvVRq6ubrIXAIAvn18QAgAAAAAAQEU0CAEAAAAAAKAiGoQAAAAAAABQEQ1CAAAAAAAAqIgGIQAAAAAAAFREgxAAAAAAAAAqokEIAAAAAAAAFWnd9gAAgF8OrVb8WdDtdpOx+Xwe5kbxxWIR5o7H42Ss0+mEuYPBoGhMG+12OxlbrVZhbnTt6XQa5p6dnSVjBwcHYe6dO3eSsclkEub2er3i+7548WKrVDQfNxlzFNsYDofFNRldO1dX29vbxWOO6jnan7n4crkMc3d2drZKrdfr4uteX18XnQu5a+fWt9lsJmNHR0dhbjSu8/PzMPfi4iIZe/vtt8Pc6Ez62c9+VpwbnYO5MzhXV6Vrn1uj3d3dMLff7xeP+enTp8lYo9Eo3oNXV1dhbjSu6EzJieYxt49yZ84HH3yQjD148KC4JqM1yJ3tuXdK9D66ybnxxhtvhLkfffRR0fPk1iGXG+2V3Bkb1WxuL0R7MLd/I7nzajQaFX8DR7WR2wvvvfde0XVzY859b0Tjit7NuTM4962SWwcA4JeLXxACAAAAAABARTQIAQAAAAAAoCIahAAAAAAAAFARDUIAAAAAAACoiAYhAAAAAAAAVESDEAAAAAAAACrSuu0BAABfnvfffz8Za7Xiz4KdnZ1kbHs7/p+ji4uLZGw2m4W5/X4/GTs5OQlzo3G9ePEizG2328nYarUKc5vNZjL2k5/8JMxdLBbJ2HvvvRfm7u/vb5U6ODhIxgaDQZj77NmzZGw4HIa5o9EoGVuv18VzFV03F+/1emFut9tNxi4vL8PcaJ/duXMnzN3d3U3GlstlmButYW7/RnU1Ho/D3Pl8XjSPObnaiM6rXG1EZ070PBunp6fFdXV+fp6MvXr1qnjM7777bpj7+eefF78XotqYTCbFZ2yj0Sieq729vTA32iu5fRS9N3I1Ge2zXE1eXV0VrX3u3Ij2ycZ0Oi0aU65mc2dd9G6P3lW5d87Tp0/D3Kjec3s/mqvnz5+HudfX18W5h4eHRXssN+bc3o/qLvoGys1lLjc6R3PPG9Vsbv/eZJ6j79xcbvS8uZqMzrNo7XNjzr3LbvItCgB8+fyCEAAAAAAAACqiQQgAAAAAAAAV0SAEAAAAAACAimgQAgAAAAAAQEU0CAEAAAAAAKAiGoQAAAAAAABQEQ1CAAAAAAAAqEjrtgcAAHx5Op3OrVx3MBgkY6vVKsxttdKfK+12O8wdj8fJ2PX1dZh7dHSUjA2HwzD3k08+Kb7vw4cPi2Ib3W63eMzL5TIZWywWxet7//79MHc2mxWNaWM6nSZjl5eXYe7e3l7R2ufG3O/3w9wHDx4Ur2+v1yuai9w+azQaYW507Vzu4eFhUb1uNJvNrVJRzT579izMvXfvXjJ2enoa5v7Zn/1ZcV298847ydhf/MVfhLnf//73k7Hf+q3fCnOjuptMJmFudK6s1+swN9rfUa3n1jc35ig3d9ZF77rRaFRcV++//36Ye+fOnWTs+Pi4eJ6fPn0a5j5+/Ljo/bpxfn6ejL18+TLM/et//a8XxXLrcHV1VXy2X1xchLn7+/tF3zG5usrVc3S2HxwchLnR+Z0bc/T9lcuNaiN3bkR79Cbfk7l3WfRuz405WsOobja2t7eL6jU3rtx3+87OTvG7O/fdBwD8cvELQgAAAAAAAKiIBiEAAAAAAABURIMQAAAAAAAAKqJBCAAAAAAAABXRIAQAAAAAAICKaBACAAAAAABARVq3PQAA4MvT6XSSsdFoFOYOh8NkbDabhbnL5XKrVLfbTcaOjo7C3F6vV3zf6Hk///zzMPfFixfJ2L1798Lcu3fvFj9Pu91Oxvb398Pc3d3dZGyxWIS56/U6Gev3+2Fus9lMxubzeZgbjevNN98Mc+/fv5+MffHFF2Hu9nb6f+zeeuutMPfdd98tro1orqL122g0GsnY9fV1mNtqtYrOlNz6R3t7Y7VaFe3PjYuLi6J63fjTP/3TZOzq6irM/fjjj4vPybfffjsZ+9a3vhXmRmfDf/kv/yXMffDgQVEstxdevnwZ5g4Gg6K1z9VO7syJ7nt2dhbmRvOROyejvfLGG2+EudEenU6nYe5kMknGTk9PX9t7P1r/3PdGVFcffvhhmBud/f/xP/7H4ueNztDc+ypXG9Hz7uzshLlRPHpn/DzPVDpXufWNxhXtz9z7KHc+3+R9FD1TtH65MY/H4zA3el/lzsnz8/PiuorGnLvvyclJMvad73wnzP3jP/7jMA4A/OL5BSEAAAAAAABURIMQAAAAAAAAKqJBCAAAAAAAABXRIAQAAAAAAICKaBACAAAAAABARTQIAQAAAAAAoCIahAAAAAAAAFCR1m0PAAD48iyXy2Ts1atXYe6dO3eSsVYr/qQYj8fJ2M7OTpj79a9/PRm7f/9+mPv48eNk7OjoKMw9PT1NxqbTaZjbbDaTsXa7HeZ2Op1kbHt7u/i+udwHDx4Ur2+j0Siqm43ZbFa0frl6Pjw8DHN7vV4y9t5774W5JycnxXX11ltvJWO7u7th7vX19Vapfr9fXBur1ar4voPBoPi+FxcXydjV1VWY+/nnnydj8/k8zH369GlRref27/n5eZj78ccfF9fzr//6rxetwcZ//s//ORl7+fJlmPuNb3yjuJ5vck5GZ3CuXqOzLlq/3HmVe5dFz5TbC9H+Xa/XYW50jkZnaG6uzs7OwtxoHXL3/eEPf5iM/df/+l/D3O985ztF85g7G6J3Rm4Nc+/Qvb294v0bzWXunRHdNzdXw+GwuCaj+cidz4vFoui6uXFNJpOtUrlzIxpz7ts72ke5uYrOq9y7LKqN3DxHtZOrZwDgy+cXhAAAAAAAAFARDUIAAAAAAACoiAYhAAAAAAAAVESDEAAAAAAAACqiQQgAAAAAAAAV0SAEAAAAAACAirRuewAAwC/OX/krfyWM7+3tFV/75cuXydhyuQxze71eMnZ0dBTmHhwcFF03N65WK/4Munv3bjI2n8/D3BcvXhSPud1uJ2Or1SrMjcbV7XbD3Hv37iVjZ2dnYe79+/eTsW984xvFdbW9Hf8v28OHD4vqJrcOubmKxrW7uxvm9vv9ZGw6nW6VGo1GxXthNpuFufv7+8X7t9PpFNfVkydPkrHnz5+Huc+ePUvGzs/Pw9yLi4tk7OTk5LXNc1Qbk8kkzH369Gky9v7774e50bj+8A//sHjMb775ZvF91+t1mBvt79xcRedorp7H43FRref2Ue4dGtXscDgMc6N9lpurt956q/iMjc6zy8vL4vP5Jz/5SZj74YcfJmN37twJc6Nr59YoqtnFYlFck7lvlWazWby+kdxeuMn3RnSO5s7nn/3sZ0XfTxvHx8fF69toNLZKRfOR+66LxpU7J6PaGAwGYW60v3Njjvb+H/3RH4W5AMCXzy8IAQAAAAAAoCIahAAAAAAAAFARDUIAAAAAAACoiAYhAAAAAAAAVESDEAAAAAAAACqiQQgAAAAAAAAV0SAEAAAAAACAirRuewAAwC/Oo0ePwvg3v/nN4mvPZrNkbLlchrnb2+n/SVqtVmHueDxOxtbrdZjbarWKYjl37twpnufd3d3i+zabzeLcfr8fxgeDQTL26aefhrmdTicZu7y8DHPn83kydnR0FOb2er1kbH9/P8ydTqfFNRnNZW59ozXM7aOoZqM9ttFut5Ox09PTMDdah1xdXV9fJ2MvXrwIc6P448ePw9zhcFh0puTGHJ2DuXp+9epVmHv37t1kbGdnJ8w9OztLxp48eRLm3r9/Pxn7x//4H4e53//+94vPjYcPHyZjh4eHYe7Lly+3SkVrlNu/b7/9dvEezNVOZDKZFD1P7plyY47qKpcbnXXR8+TiP/zhD8Pc3/iN3ygaU+4Mzp3P0Xuj0WgUn+3Ruyp3NuTqOTono2+C3Hs/N1fn5+dF52/u+ys3V5FcbUT7LHc+R9+qufdR9I7NjTlao1xtRPWcW6NoXP/sn/2zMPff/bt/F8YBgF88vyAEAAAAAACAimgQAgAAAAAAQEU0CAEAAAAAAKAiGoQAAAAAAABQEQ1CAAAAAAAAqIgGIQAAAAAAAFSkddsDAAB+cT788MMw/rWvfS0Zm8/nYe50Ok3GGo1GmLtarZKxwWAQ5r755pvJ2MuXL8PcnZ2dZGx7O/4/qX6/X3Tdjd3d3WRsvV6HuVF8NpuFuefn51ulzs7OitZ+4/j4uPh5o3Xo9Xphbrvd3ioVjesmY+52u2FuVDuXl5dhbrTPcnMRXXs4HIa5rVaraG9vfP7558nY48ePw9znz58nY6enp8V7IVfP0TznanIymSRji8UizB2NRkXXze3B3Nn+9OnTZOzdd98Nc7/73e8mY9///vfD3C+++CIZu3fvXph7586dZOz6+rp4DzabzTA3OhuOjo7C3GfPniVj4/E4zF0ul8X7KDqvcudGtL9z50Ykd8ZGzxu9q3JnQ+7dHc1HNKZc7eSeN9qjudzobI/O7p8nHom+3a6uroprMvdOic7g/f39MDeay9wejL6/crmRTqdTfN/c9/PBwUFxPUfrkBtztEZ7e3thLgDw5fMLQgAAAAAAAKiIBiEAAAAAAABURIMQAAAAAAAAKqJBCAAAAAAAABXRIAQAAAAAAICKaBACAAAAAABARTQIAQAAAAAAoCKt2x4AAPB/57vf/W4y9t5774W5rVb61d/v94vH1Ov1wnin00nGut1umLtcLpOx3d3dMHdvby8Zm0wmYe72dvr/qObzeZi7s7OTjK1WqzB3PB4XzWNurnLre3FxkYyt1+swN3qm0WhUXJO52ojGlZvn6NrT6bR4jaI12FgsFsnY2dlZmLu/v1+8B4fDYTL27rvvhrkHBwfJ2NOnT8Pc58+fJ2OvXr0Kc09PT4v3YLSGuTWK4lG9bhwfHydjs9kszG00GkU1t3F5eZmMXV1dhbnR2fDixYsw95133knGfvM3fzPM/eM//uNk7KOPPgpzo2tH5/7GkydPitYgt4bROyO3R6PzN7cO0T7ZeOONN4r3UfSezL1DozM4N8/R2Z47n7/44ovib6TBYFD8vNHZkHuHRvFcXV1fXydjR0dHxe/B6F2VOzdy77Ko7qL3XO5dlqvnaH1zNRnNVbPZDHNLx5R7H+XmKrp27p0S1V2uJqO9n9sLAMCXzy8IAQAAAAAAoCIahAAAAAAAAFARDUIAAAAAAACoiAYhAAAAAAAAVESDEAAAAAAAACqiQQgAAAAAAAAVad32AACA/zt3795NxpbLZZjbaqVf/b1er3hM0XU3BoNBMrazsxPmPnv2LBlbrVZhbqfTScb29vbC3Pl8nowNh8Mw9+TkJBm7uLgIc3PxyHq9LnqejfPz8+LnPT09LarXXO3k6jl63mjtc87OzsL40dFRMtbtdsPcaB12d3fD3PF4nIy12+0wN9pn+/v7Ye6rV6+KYhtXV1fJ2PPnz4vnans7/j/H6XRaXFfRtaM1yNVG7oyNajaax9wz5eaq2WwW12S0/vfu3Qtzf/d3fzcZ+x//438Uvxe+8Y1vhLnRXEbvqo3j4+Nk7PLysniuJpNJmJtbw0h0fs9ms+KzPecmY4727/3794v30cuXL8PcxWJRfG5EZ8Ph4WGY22g0it9H0bmSey9EudG5sNHv91/LuZH7Jsxdu/R7I/c9GT1v7nsyqqvc3s99U5TWVU5Uz7kxRXsw97wAwJfPLwgBAAAAAACgIhqEAAAAAAAAUBENQgAAAAAAAKiIBiEAAAAAAABURIMQAAAAAAAAKqJBCAAAAAAAABXRIAQAAAAAAICKtG57AADA/+7b3/52GN/Z2UnGtrfj//1ZLBbJ2Gg0CnN3d3eTsX6/H+b2er1kbDKZbJXK3Td6pv39/TC33W4nY8vlMsyNnmm1WoW5R0dHydif//mfh7mz2ay4Nl69epWMnZ2dhbnD4TAZ63a7YW6j0Siai43pdFpcV1E9dzqdMPfw8LCo1nPjitZv4/nz58XzHJ0buftGY472SU60fhsnJydFc5Gr99z+PTg4KM6N6mowGBSfz9H65dYwN8/j8bh4fVut9J+TL168CHPv3r2bjN2/fz/Mffz4cTL27rvvhrnRuRLVXM4PfvCDMH51dZWMXVxchLnRGkZrkLv2er0Oc6P3VXR253KjWs+dZ7n3wvHxcdG7auPy8rL4bI/mMnfGRvss960SfQfl7hs9U2595/N50Rrk3inRt0iuNnJzFT1v7r2fW/9ItA65b5XovZEbc7QHc+dG9A7N5eZqJ/I3/+bfTMb+5E/+pPi6AECaXxACAAAAAABARTQIAQAAAAAAoCIahAAAAAAAAFARDUIAAAAAAACoiAYhAAAAAAAAVESDEAAAAAAAACrSuu0BAAD/u1Yrfj33+/1kbLVaFV97Z2cnzO31esnYYDAIcw8ODpKxH//4x2Fut9tNxu7cuRPmPn36NBlrNpth7nA4TMam02mYu729XXzfTqeTjN27dy/MHY1GydhHH30U5n722WdFY9r4+te/XlyTl5eXRbWes1wuw3i0DkdHR8W5p6enYe58Pk/Gzs7OwtzFYlG8RtF8rNfrMDdah3a7/drOnGjvP378uPi8ytVkdN/nz5+HudG4cvs3qp1GoxHmRusQnQu5551MJsW1kTvromvnzvbo3JjNZmHu8fFx8T6K5jJ332fPnhXXVTSXuXoej8fFY76JaMx3794Ncx88ePBaauPw8DDMfffdd4vP56g2ou+J3Fzlvq+i3Nw7NBpz7tyIzvbcOyVaw2jtc3vl6uoqzL2+vk7Gdnd3w9zomXLfhHt7e8Xv0OibIXc+R/s7ekfmxpV73mjMuTM290wAwC+eXxACAAAAAABARTQIAQAAAAAAoCIahAAAAAAAAFARDUIAAAAAAACoiAYhAAAAAAAAVESDEAAAAAAAACqiQQgAAAAAAAAVad32AACA/93Dhw/D+J07d5KxXq8X5nY6nWSs3W6Huf1+v/i+0+k0GWs2m2Hu7u5uMnZ1dRXm7u3tJWPj8TjMHY1Gydj29nbxmHO50TqcnJyEuT/84Q+TsT/90z8Nc58/f56MHR4ehrmr1apo7XN1dXFxEeZ2u91kbDAYhLnD4bBo/XLPG9VNblx3794Nc6Nrr9fr17b3W630nwzX19dh7tOnT5Ox2WwW5s7n86LnycnN1XK5LD7rorlqNBph7v7+ftFc5OTqKpqP3DxH8xHtsdx9o7nYODo6Kqq5jW984xtbpV6+fFm8vtFZmDsno7rK1XP0ztnZ2Qlzo2vn9m+0hr/5m78Z5kZncG6unj17VjxX0X3Pz8/D3MlkUvzej+TmOTqvoljuGyp6v+a+r3J7P5qPg4ODMDdah9y7LHp3R3ssF18sFsVzlduD0Xs/um7u2rkxR3slqvXctS8vL8Pc73//+2EcAPjF8wtCAAAAAAAAqIgGIQAAAAAAAFREgxAAAAAAAAAqokEIAAAAAAAAFdEgBAAAAAAAgIpoEAIAAAAAAEBFWrc9AADgf/fGG2+E8ZOTk2Ss2+2GubPZLBlrNBph7tHRUTLWbDbD3NFolIwdHByEucvlMhkbj8dh7vHxcdFc/Dzjiszn82Ts+vo6zO31esnYzs5O8Rr99m//dpj74sWLZOz58+dbpabTaRjvdDpF85ibj1xNRvfN7YVXr14Vj7nf7xfv3+i+k8mk+NzIicacm+f9/f1k7Jvf/GaY+9Of/rRon+Rq4+nTp2HuarUqXqPo/M7V1fb2dtGYNtrtdtF1c3XVarWKz/bo7M7N5Xq9DnOj9f/Rj34U5j5+/DgZ++CDD4rfC7naiNYhN8+LxWKrVHTtq6ur4jHnnvd3fud3it7NuXMlOrtzZ3Dum+Hy8rKo1nPx3Ls7quebnBu592907ejszl07d17t7e0lY8+ePQtzo7Mh+gbK1UaurqJr5+Y52r+5uTo/Py/+NovqKvcO3d3dTcaGw2HxmHNnDgDw5fMLQgAAAAAAAKiIBiEAAAAAAABURIMQAAAAAAAAKqJBCAAAAAAAABXRIAQAAAAAAICKaBACAAAAAABARTQIAQAAAAAAoCKt2x4AANTo7/29v5eMPXr0KMxtNpvJWLvdDnMPDg6KrrvR6/WSsbOzszB3b28vGet2u2Hu6elpMtbpdMLc6+vrZGyxWIS5jUYjGVuv11ulWq3482t3d7d4fR8+fJiM3b9/P8z9kz/5k2Tszp07xes7n8/D3IuLi+LnjdZoezv+P7jomSaTSZg7Go2K9klur+TqOaqde/fuhbmHh4fF910ul0V7LFfPuTOn3+8nYy9fvgxzo3MlmotczebOjSg+GAyKc3PnxsnJSfH5/OzZs2Ts8vIyzI326Ntvv128vrn9G81Hbq6ePn2ajD148KC4nqN9ktsr0ZmSu3buHRrt79xcRXvl/fffD3OPj4+TsdlsVjzm6XRavH9zdRXtwdVqFeZG+zt6V+XWN6q5XDxXG9H7N/cePD8/L/omyBmPx2E8WoebzHPuuy6aj2gucs+UW99or+S+r3Lnd2k9R9/lubrKfTMAAF8+vyAEAAAAAACAimgQAgAAAAAAQEU0CAEAAAAAAKAiGoQAAAAAAABQEQ1CAAAAAAAAqIgGIQAAAAAAAFSkddsDAIBfRV/72teK44eHh2Fuq5V+fQ8Gg+LcRqMR5u7s7CRjV1dXYe50Ok3GOp3OVqnt7fh/nWazWTJ2cXER5na73WSs2WwWjyv3vOv1Ohkbj8dh7mKxSMYODg7C3F6vVxTLzWWuNqK6Ojk5CXOjucytUXTtyWTy2vbgcrlMxlarVXFtRHssVzv9fj/Mvb6+fi1z9fnnn4e50TPlnjcaV+55ozWM9liu7nZ3d7dKRWu/0W63i8/JmzxvNM9R3eRq4+HDh2FutP7RXGx8+umnydg777wT5r711ltFz5OL53KjdbjJHsy99+/du5eM3blzJ8wdjUbFe3A+nxe/U6JzNPf+jXJzZ06093Pv0Nz6R6L1j75jcnsl9w6Nrp2rq6iec2dOtA7R+zV37dx5FdVObp6js//4+DjMjWon+n666fNG8/zkyZPi/Zv7FgUAvnx+QQgAAAAAAAAV0SAEAAAAAACAimgQAgAAAAAAQEU0CAEAAAAAAKAiGoQAAAAAAABQEQ1CAAAAAAAAqIgGIQAAAAAAAFSkddsDAIBfRe+//34Y/8t/+S8nY6PRKMx9+PBh8biazWYydnJyEuY2Go2i2MbFxUUytre3V3zf2WwW5q5Wq2RssViEud1uNxmbTCZh7uXlZTK2u7sb5m5vbxeNaePp06fJ2EcffVR83/Pz8zD3448/Tsba7XaY+7Wvfa2oXjfW63UytrOzE+Yul8tk7Pr6+rXVRq/XK37eaI1y9RzNVc7V1VUyNh6Pw9xofz948KB4zLl5fv78efEZG63D/v5+mHv//v3iunr58mUy1ul0wtxXr14V1U3umXLzHJ0NudxoXNHZnaur+Xwe5n722WdF59HGt7/97eIzJxpXdC5sDIfD4jO21Ur/yX98fBzm3r17t/h5o3dd7jyKzpzcez963ujcz+3RaA1yNRmNKbcXcvs3unYuN9pnuT0YrX+uJqP1z73LptNp8TxHa5Sbq0ju3R2d37nv52iubvL+7ff7xd85uXf3D37wg2TsZz/7WZgLAHz5/IIQAAAAAAAAKqJBCAAAAAAAABXRIAQAAAAAAICKaBACAAAAAABARTQIAQAAAAAAoCIahAAAAAAAAFCR1m0PAAB+Ff3e7/1eGO90OsnYYrEIcw8ODpKx6+vr4vs2m80w98WLF8X3vYl2u52MbW/H/+vUaDSSsdlsFuZeXV0lY61W/An18uXL4rna29tLxsbjcZgbXTv3vFHdffzxx2HuT37yk2Ts7t27Ye6bb76ZjA2Hw61Sp6enYXw6nSZjg8GgeA8+fvx4q9Th4eFrq43JZJKMXVxchLnROiyXyzD31atXxc8b1eyzZ8/C3P39/aJ5zO3v3JkTzUcu9+23394q9eTJk+KzfbVaFb+Potyo5nLj2tnZCXPX63XR2b0xGo2SsR//+MfF93348GHxPsrNVVSz3W63uJ5zY47um6uNaK6iusntld3d3TA3msvo3M+dozfZv7m5ir4Zcu+j6MzJne3RGZurq2hcuf0bzXO/3w9zo3HdpK5yY47mOfpOzX17X15ehrnRM0XfuLlvwty7Ozo37t27F+b+2q/9WjJ2dnYW5j569CgZ++yzz8JcAKCMXxACAAAAAABARTQIAQAAAAAAoCIahAAAAAAAAFARDUIAAAAAAACoiAYhAAAAAAAAVESDEAAAAAAAACqiQQgAAAAAAAAVad32AADgq+pv/a2/lYzduXMnzJ1Op8nY/fv3w9zVapWMtdvtrdfl6Oio6Hk2JpNJMrZYLMLc2WyWjC2XyzB3ezv9v1CtVvwZFD3Tzs5OmLu7u5uMXVxchLnRM7148SLMffbsWdEa5Mb1/Pnz4ud98OBBmPvWW28lY+v1OswdDAbJWLfbDXN7vV4y9sEHH4S55+fnW6/DaDQqzs2tb1TvnU6neB+dnJwUj+v4+Lj4rMvVRrRHc+dkdCbt7e2FudG49vf3w9xXr14lY5eXl2FudO3cXEV7IXffaA/m1jeay+hcyNXz2dlZ8fp+/PHHYe6f/dmfFe+FqCZz+zf3jo30+/2iMeXqKlr73Lvs+vo6zJ3P58X7Nzo3xuPxa/tWieK5PdhsNou/c6K5ajQaYW40l9G5n5vL6Hlyc5XLjcYcfS/m3rHROZi7by43qsncGkX7N3cuRLWT2/vRXH7xxRfF34SPHj0Kc09PT5Oxzz77LMwFAMr4BSEAAAAAAABURIMQAAAAAAAAKqJBCAAAAAAAABXRIAQAAAAAAICKaBACAAAAAABARTQIAQAAAAAAoCKt2x4AAHxV/d7v/V4yNhqNwtxer5eM9fv9MDeK7+/vh7nL5bIottFoNLZKNZvNZGx7O/5/pSiey726ukrGdnd3w9w7d+4kY5PJpHh9c2t0eXmZjA0Gg+IxX1xchLl7e3tF182NK/e8UW3karLT6RSvb/S8s9mseC8cHByEudEz5c6NdrtdfN/I6elpGP/000+TsZOTkzA3qp3oeXJ7odvthrmtVvmfOW+++WZxPQ+Hw+J6fvz4cTJ2fX0d5kbXztVztI/W63WYG63/22+/HeZG6//ixYsw9zvf+U4y9jf+xt8Ic7/3ve8Vn+3RXvmN3/iN4r0wn8/D3Ol0Wlzr0fru7OyEudE7drVaFa9v7tx4+fJlMvb555+HuYvFYqvUeDwuPmOjd050lv08Z2Fpbu4bKaqdqOY2njx5kozdu3ev+Ds2twdvMlfROXp0dBTm5uq9VO7bOqrnm5ztOVFt5Ooqmqvouzw3H9G7eeNnP/tZGAcA/s/8ghAAAAAAAAAqokEIAAAAAAAAFdEgBAAAAAAAgIpoEAIAAAAAAEBFNAgBAAAAAACgIhqEAAAAAAAAUBENQgAAAAAAAKhI67YHAABfVXfv3k3GhsNhmHvnzp1kbL1eh7nj8TgZ293dDXO73e5WqcePHydj8/k8zD08PEzGLi8vw9xWK/250mw2i+eq0+mEuYPBoDj36uoqGWs0GsXPu7OzE+bu7e0VrUGu7ra34/8pu3fvXjI2nU6L75t73uiZornY2N/fL6qb3Jgnk0mY2+v1ivdvlHt8fBzmzmazZOzp06dhbnSe5cZ8fn6ejL18+XKr1MOHD4vP2IODg+Lc09PTMPfs7Kz4vIriuTM2qsmb5ObOq+icjPZYbh2Ojo7C3Kh2fvd3fzfM/U//6T8V7bGc3FydnJwkYz/96U/D3OVyWby+0Trkvgmi9c2dddF7MHrP5Z53sViEuVE8l9vv94vrOdpH19fXYW40H7m5iuoulxu923O50XdQbq6id0runIxqNvfujr5HcrURre9oNApzo7nM7d9oL0Tv9Z/nTIpE319PnjwJc6P1/+CDD8LcaC6j9ysAUM4vCAEAAAAAAKAiGoQAAAAAAABQEQ1CAAAAAAAAqIgGIQAAAAAAAFREgxAAAAAAAAAqokEIAAAAAAAAFWnd9gAA4JfVH/zBH4Tx9XqdjK1WqzC30WgUxTam02nRmHLa7XbxfZfLZZh7eHiYjF1fX4e5/X4/GZtMJmFut9stnqtoDY+Pj8PcxWJRPFfj8bjoeTaazWYy1mq1inOjMd30eXd3d5Oxhw8fhrnROkR1k1v/4XAY5h4cHCRjb7zxRvE+63Q6YW50NkT7c+PFixfJ2NXVVZgb1d39+/fD3CdPniRjFxcXYe6DBw+KxpRb39PT0+K5yu2j8/Pzoj2Wu3Z0hubqPVcb0Tma2wvR/j46Ogpzd3Z2ivbYxnw+T8Y+/PDDMPe73/1uMvb/sO8vsZZlaWLQf8897/t+xY1HRmRGPqqyqC6MBG3awrTEBIFlBkwRQySGYCZmZsuybGQxoCXEEBASHoCYYQSWEULCUoOEG7u7uruqK7PyEZHxuu/neZ/z15n3/r78r0sQFbl/v+mnb++11+NbK2Ld8/Of/7x4DWZ9tbm5WdQX32cMS+fV2tpamBvN2WgMvs++ERmPx8VrP8rN2rS/v1+89rOzTOm+kJ1zojHK9sGor6K9Ods3sjZHe93x8XGY++bNm8pYr9crrlevXr0Kc+/du/dW3pvNq2jORuO3dHBwUHzeiM7A2fdGudkZKZrP0Xli6dtvvw3jAMCfzy8IAQAAAAAAoEZcEAIAAAAAAECNuCAEAAAAAACAGnFBCAAAAAAAADXighAAAAAAAABqxAUhAAAAAAAA1IgLQgAAAAAAAKiR1rtuAAD8ptrd3Q3j19fXlbHRaBTmNhqNyli/3w9zO51OZWx1Nf7bn/F4XJwbtXlrayvMvbm5WSnV6/UqY7PZLMxdLBaVsfl8HuZ2u93K2NXVVZgbjWE0fksvX74sbvPBwUHxeweDQWVsc3MzzP3www8rY69fvw5zo3Y9ePCgeIyyNRithayvotqQjdHFxUXR92RrdDqdhrlRu46Pj8PcaH1n/RzVyex7o3XUasX/jGk2myulor66vLwMc9+8eVMZ+/jjj8PcaL6/evUqzB0Oh5WxnZ2d4r7K+jF6b7YW7qLdblfGzs/Pw9yf/OQnReszqw3ZnPzxj39cGfviiy/C3GfPnhX3c1Qbon7M9tBo7LMzQ/beKJ7Vq6hOrq+vF49v1s+TyaToudl+FMWyNZrVq2gMs76K9oXsHBs9O2tzVAuj/SZbo9kYbW9vF+dGdeXs7CzMjfoy6+foe7P3Rvvz/fv3i+dV9t5Hjx5Vxn7605+GuX/4h38YxgGAP59fEAIAAAAAAECNuCAEAAAAAACAGnFBCAAAAAAAADXighAAAAAAAABqxAUhAAAAAAAA1IgLQgAAAAAAAKiR1rtuAAD8plpbWwvj4/G4Mra+vh7m7u3tVcY6nU6YO5/PK2Oj0SjMjdo1HA7D3Khdh4eHYe7FxUVlbLFYhLmNRqN4jJrNZlE/LnW73crY69evw9x+v18Zu7y8DHO3t7eLnrvUarWK51XUl71eL8zd3NysjE2n0zA3mnez2SzMjfojmjfZ+O/s7IS50Zy9vb0Nc6NxyOrGq1evVkrdZW48ePCgeIyiNRi1KZsbq6urxfW53W4Xr/2bm5swN6rBWZ18+vRpcV9F8Wz9RvM5m5NRbc/GKFqDWT9H35TVyQ8++KAy9tFHH4W50RhubGwU18noTLB0fn5eGTs9PS1+77Nnz8Lcf/Ff/BeL59XV1VXxPhg9O6tX2bwrrRvZc6N2ZX0V1dHsbBatoyw3qhvR2s5qe3aui9r82WefFY/R0dFR8Vp49OhR8fienJyEudE4ZGeGJ0+eFPXF0tnZWdE+l83ZbG5E8zk7X0VnxqzG/qW/9JcqY//n//l/hrkAUGd+QQgAAAAAAAA14oIQAAAAAAAAasQFIQAAAAAAANSIC0IAAAAAAACoEReEAAAAAAAAUCMuCAEAAAAAAKBGXBACAAAAAABAjbTedQMA4F36q3/1r1bGGo1GmLu7u1sZ29zcDHPv379fGev3+2Huzc1NZWx9fT3MbbWqt/6zs7Mwt9lsvpX3rq7Gf6/UbrcrY5PJJMydzWaVsW63G+Z2Op2iNmXPzt776aefFn3P0vn5efF7o3HIxjdq1/b2dpi7s7NTNOeyNmdjdHV1VfTcpcPDw8rYyclJmDscDovHN6pJWd24vLwsqkdLg8GgMjafz8PcDz74oDJ2e3sb5kb9kdXnXq9XFMvqykcffRTm/uQnP6mMffbZZ2HudDotXkdRvbq+vg5zo3UWzfWsNoxGo+J9IRM9O1u/T548KZrr2Rhl773LvPqjP/qj4joZ1aRs/UbzKntv1FfROSYb32xeRe/N9rLxeFxUu5e2traKnpvVpGyMojmbzcmoP6J+zGRns2g/ymp7tLd//vnnYW40htn3Rm2+uLh4a/tRtM6yc060frMzQ2SxWITxaAyzfo7OBVl9ztYoAPDn8wtCAAAAAAAAqBEXhAAAAAAAAFAjLggBAAAAAACgRlwQAgAAAAAAQI24IAQAAAAAAIAacUEIAAAAAAAANdJ61w0AgHdpa2urMrZYLMLc7e3tytiHH34Y5u7v71fGbm9vw9yNjY3KWLfbDXOHw2FlbDQahbmNRqPouUvtdrsy1u/3w9zpdFo8Rmtra5Wx9fX1MHc+nxeN/VKr1Soav6Vms1kZOz09DXOjZ2dtjsYo6+fBYLBSKlorvV4vzD07Oyuar9n3Zt8zHo8rYycnJ8VzMntvNDeytR/NjayvLi4uinM7nU7R2s7im5ubYW40d6Lxy9ZvVq8++uij4poTzZ1o7JdevHhRGTs6Ogpzo2/K+jmaz1E/ZmswimWyeRV9Uza+L1++rIx99tlnxWshe+/9+/eL1mfm3r17YTyad9n4ZmeKSHSmmEwmYW4Uz/aUqE5m++9sNis+10VzdnU1/pvuaPyzfSFaC9kajOpodmaI5k72vVGbozX2fWp/6bzKznVRu7L5HJ1Fo9j3OZtHovHP1tHNzU1RbOnx48fF4/tP/+k/DeMAwJ/PLwgBAAAAAACgRlwQAgAAAAAAQI24IAQAAAAAAIAacUEIAAAAAAAANeKCEAAAAAAAAGrEBSEAAAAAAADUiAtCAAAAAAAAqJHWu24AALxL+/v7lbF79+4V5/b7/TB3NBpVxi4vL8Pc3d3dytjGxkaYu7pa/bdB3W43zL2+vq6MTafTMDd6drvdDnN7vV5lbDabFfdz1lfj8bgydnt7G+aur68Xt/nm5qYy9vDhw+Lxzd4b9XP2vefn50X9mH3v2tpamDufz4vHd2dnp2iuL7148aJ4LTSbzcrYcDgMc6O6Ej13qdPpFI3f0tXVVVGbsvjjx4/D3KOjo+K5EY1v9NysL++yfhuNRpgb7TnZ3Dg5OSmez2dnZ8Vt/vGPf1wZOzg4CHMXi0VlrNWK/5l6eHhYXHMmk0nRvr709ddfF783qt/Hx8dh7tOnTytj/+yf/bMwN5o7r169CnOj2n///v0wN6or0RgsDQaDon1uaXt7u7heRWs/e2/0TdFZJOvnra2tMDf6pmhfz77pLntKllt6fsrqRhTLvjfa57J+zvajaPyztRDVlWidZP+eyPay6Huz+hzNu2xPiepVtqcAAGX8ghAAAAAAAABqxAUhAAAAAAAA1IgLQgAAAAAAAKgRF4QAAAAAAABQIy4IAQAAAAAAoEZcEAIAAAAAAECNtN51AwDgXVpdrf5bmf39/TB3e3u7MjadTsPcRqNR/N5Op1MZG4/HYe5sNquMbW1trZRqNpthfDgcVsZGo1HxGK2vr4e5k8mkMnZ+fh7mttvtythisVgpFc2brM2Xl5dh7ubmZnG7omdn87nX61XGdnd3w9x79+6tlIrGIVsLpWtsqd/vF4/B7e1tcbvW1taKxyhag1FdyOJRLVtqtVpF8yYbh5ubmzB3Z2eneIyi783qVTS+UU3J6tn19XWYG833brdbXGOzMSod+6XBYFC8p0RrMJrrS/P5vLivonn3f/wf/0dx7T84OAhz9/b2itt8dXVVGfv1r38d5kb75Icfflhcr7IaWzp+2fhnfRU9O9u7o2/K6mRWVyLRs7O+ussajNocjX1WC7MxOjs7K2pTNjeyM2F0Ns/2o6ifs7lxl/NzdJ6M6n6Wm9X2aN5l5403b95Uxn784x+HuQBAGb8gBAAAAAAAgBpxQQgAAAAAAAA14oIQAAAAAAAAasQFIQAAAAAAANSIC0IAAAAAAACoEReEAAAAAAAAUCMuCAEAAAAAAKBGWu+6AQDwNv07/86/E8a73W7xsxuNRmVsb28vzJ3P55Wx0WgU5kbxra2tMPfk5KS4zffv36+MXV5ehrnX19eVscViEeaOx+PKWLvdDnMfPnxYGXv58mWYOxwOK2Pr6+th7upq9d9gNZvNMHdzc7Mydnt7G+b2er3iNkdjGI1B9t5sfKN2XV1dhbk3NzfFa7vT6RTPq1arVdxXUd2I2rQ0nU6LxiAb3+y9h4eHlbG1tbXi+fzmzZswN2rXwcFBcV/dZT5HtXtpMplUxi4uLorrZJYbjUPUF9l8z/aUaC1k8ypav7PZLMyNxnAwGBTX52j8lh48eFAZ+7M/+7MwN6rf9+7dC3P7/X5xbY/mzs7OTph7dHRUGfsLf+EvhLnRXpftg9GczWpO9Oxs7UfjH9WybP1morUSzddMVq+i9bu9vf3WvjeqsdHZKxvDLHd3d7f47B3Vq6xulK7t77O3l+Zm8yr63uzfC1Gty7432zci//F//B9Xxv7e3/t7xc8FgB86vyAEAAAAAACAGnFBCAAAAAAAADXighAAAAAAAABqxAUhAAAAAAAA1IgLQgAAAAAAAKgRF4QAAAAAAABQI6133QAAeJvu3bsXxg8ODipjq6vlf0fT7XbD+O3tbfF7O51OZWxzczPMPT09LX5vFJ9Op2Fuv9+vjF1eXoa5Ozs7K6UuLi6Kc+/Sz1FfRX2R5WZms1llbDweFz83mq9L8/m8KLZ0fn5eGVssFmHu+vp68RpsNBorpQaDQVEsG9/9/f0w9+bmpjI2HA7D3O3t7crYxsZG8Rhl751MJpWxdrtdvAazdRKNw/X1dXHu2tpamHv//v3ivvr222+Lxj7rq7vIvvfBgwfFdfIuNSmqddGcy+bd3t5emPv06dPK2OvXr8Pc0WhUGbu6ulop1Ww2i+dGVidPTk4qY48fPw5zf//3f7+4tkf1udWK/wtja2ur+LwRjUO2FqJ5lc3JaC1ke1XUl9E6yc5I2fqN4tl7o73766+/DnOzPTYSnUd6vV6YG41DtodGbc5qezSvsjGKcrM1GO1Xd5nP2d4dzZ2zs7MwN6vfAMCfzy8IAQAAAAAAoEZcEAIAAAAAAECNuCAEAAAAAACAGnFBCAAAAAAAADXighAAAAAAAABqxAUhAAAAAAAA1IgLQgAAAAAAAKiR1rtuAAC8Tffu3Qvja2trlbHNzc0wd2NjozI2Ho/D3Ol0GsZLc7vdbph7fX1dGfv000/D3NPT08rYZDIJcx89elQZu729DXMXi0VlrNfrhbmdTqd4jBqNRmVsPp+vvC2rq6vF743mRtZXUT9H6ySLZ3P97OysMtZsNsPc+/fvV8ZarfiYOxqNKmPtdjvMjeZ79r3RN2XvjXKPjo7C3P39/eL33qWvovWd5UZz9uLiIsyNxiEbo6hd2Zx88+bNSqloHWX1KurnqA4ubW1tVcYePHgQ5u7u7haP7+HhYWVsMBgUz4319fUwN+rLqC+yvnz27FmY++233xbtN1k8m3PZN0XOz8+L3xvN52x8sz2ndHyvrq7e2jqK1ko2J1+9elV09srqWbQ+s3h2NovWb1avonHI9rJoLWRjdHl5WVyvomdnZ+/oXJftZTc3N8XzKjqrZOMbGQ6HYTw7b5a2OasbWR0FAP58fkEIAAAAAAAANeKCEAAAAAAAAGrEBSEAAAAAAADUiAtCAAAAAAAAqBEXhAAAAAAAAFAjLggBAAAAAACgRlrvugEAcFf//r//71fGdnZ2wty9vb3i3GazuVJqMplUxm5ubsLcfr9fGWu322Hu6elp8fdsbW1VxhqNRpg7nU6Lvmep1+tVxmazWZh7dXVV1KaljY2NovHLxqHVio9fi8WiMra2thbmnpycVMZWV1eL18Ll5WWYOxgMitfRfD6vjF1fXxfP52xeReOQ9VUWj0Rr5fz8PMyN+iNb+9F8v7i4CHOjdZb1c7ZGS3W73eJ1lPVVtM46nU7xGGXzJnp2ti9ENeng4CDMvX//fmVsc3OzeBxGo1Fxfc5ENSfby6J2RfVoaX19vTL29OnT4jZn6+Tly5eVsbOzszA3GsNsfLe3tytjf/Znf1Y8N7J9MBrDbHyj9Z2twaw2lNbY7L3D4bB47T98+LD4zBDtR3fpq2wdvXnzpqgvsjWYtTk6x2a1PaobWS2L9vbsLBqtwWify/oj27ujb8pqe/TebO1HNSk6l991TwGAOvMLQgAAAAAAAKgRF4QAAAAAAABQIy4IAQAAAAAAoEZcEAIAAAAAAECNuCAEAAAAAACAGnFBCAAAAAAAADXighAAAAAAAABqpPWuGwAAd/X06dPKWLvdDnO3traKc3u9XmXs9vY2zB2NRpWxyWQS5p6fn6+Uir7pxYsXxX314MGDMPfq6qoytra2FuY2m83K2Gw2C3MHg0FlrNFohLn9fr8y1mrFR6jpdFr0PZn19fUw/vXXX1fGjo+Pw9zHjx8Xt2s+n1fGOp1OmBv1ZZYbxTc3N8Pc09PToli29ldX47+/G4/Hb2UtZDUnGqPse+9SJ6P3ZusoqoVZP0fPjr4nW/uXl5dhblSTstq+sbHxVvoqqxvdbrd4fKNxyPaqs7Oz4vUbyb43enY2vpFsH7x3715l7A/+4A/C3F/+8pdF83Xp+vq6MvbkyZMwd39/v2i/yeZOtn6jGhvtr0uLxWLlbciee5dzXbS+s7Uf9dVdzkjZWeXVq1eVsb29vTA3m7ORaPyz743232x8oz02y4322E8++STM/fDDD4vGIJt30XzNzlfZ3IjmbLTf3PXMkNUGAODP5xeEAAAAAAAAUCMuCAEAAAAAAKBGXBACAAAAAABAjbggBAAAAAAAgBpxQQgAAAAAAAA14oIQAAAAAAAAaqT1rhsAAHfV7XYrY61WvNX1+/3i9zYajcrYixcvwtzr6+vKWKfTKX7v0dHRSqmrq6swPplMKmPtdjvMnU6nlbHZbBbmjkajytja2lqY+/jx45VSX3/9dWVsf38/zI3m3enpaZi7urpaNAZLBwcHlbGtra2VUlmbo3XU6/XC3OibsvUbrZVo3iyNx+OiMVgaDAZFz11aX18vWtvZ92brKGpzVnOicVgsFmHufD4vqoNZu6K5vtRsNitjl5eXYe7m5mZxrYu+KZsbUV9G+9zSzs5O0fdk35SNb7TOsvdm8710bmT9HK2V4XAY5r569apobWd99eWXX4a5UU360Y9+FOZG8z0b38hdzlfZXhbtG1FNyfoqq3W3t7fFbY7OUNn6jfoya3M0r6I6mPVz1uaoXdna3t3dLT6XR/P5Ln2VfW90Dsr2hag+Z+fJ6NnZe6Nal52RonHIzoR3aXM0d6JzzPepowDAn88vCAEAAAAAAKBGXBACAAAAAABAjbggBAAAAAAAgBpxQQgAAAAAAAA14oIQAAAAAAAAasQFIQAAAAAAANSIC0IAAAAAAACokda7bgAAvE2bm5th/ODgoDI2HA7D3PPz88rYYrEIcy8uLipjjUYjzH3y5Ell7PLyMsy9ubmpjO3u7oa5vV6vMjaZTFZKZX0Vvff+/fth7vX1dWVse3s7zJ1Op8Xfe3V1VRmbzWZhbqvVKhq/pXa7XRkbj8dhbhS/vb0NcweDQWVsY2Oj+Huj78na/Pr16zA3mu9Rm5bOzs5WSq2vrxev36huNJvNMDeas9kYra2tFa/f1dXV4vGNcqM1lj17Pp8Xr/275HY6nTA3+qZsfPf29ipj/X4/zI2enY1RFI/6IpO9N5p3UT3K4tm8evHiRfEe+vOf/7wy9gd/8AfFazDaI7P1nfVzJMsdjUbF56torWTvjepztndHNSfr5/39/eL3RvMu23+jPSWrG9E4ZN8bPTs6Hy8dHh5Wxh4/fhzmRmsle280Dtl7o/Hd2toKc7vdbnE/R/M524+idZSdJyPZGSmqz9k+uLOzUxn75ptvwtyvvvqqMvZX/spfCXP/5//5fw7jAPBD5heEAAAAAAAAUCMuCAEAAAAAAKBGXBACAAAAAABAjbggBAAAAAAAgBpxQQgAAAAAAAA14oIQAAAAAAAAaqT1rhsAAJm/9bf+Vhifz+eVsX6/H+aORqPK2M3NTZg7m80qY81mM8yN4lGblk5OTipj19fXYW707NevX4e57Xa7MtZqxUeK7e3toucura6uFo3B0qtXrypj3377bZh7eHhYGev1emFu1K5sfKPcrK9K+yLr552dnTD3/Py8MnZ0dBTmPn78uDI2nU7D3PF4/FZyM91utzI2GAyK+2qxWBS/9y7rKKqhWbuytR+tlU6nE+ZOJpPi+hzJ9oWoP7J5E/Vz1ldRP2fj22g0ivs52jei+Zr1ZTZG0RpdW1sLc29vbytjGxsbYW40htH+mr13b29vpVQ2N6J+zsY3qknZe6OzSlZjo/UbrZNsPmeidmW1LpLN56g+Z2MUxbO1EH3TcDgMczc3N4ueu/T8+fOi81M2RtF5cemTTz6pjH3zzTfFa2F9fT3M3d3dLd5Trq6uis+EUX3O1mC0frM1Fu05W1tbYW7Ul/v7+8Xf++WXXxavo6geAUDd+QUhAAAAAAAA1IgLQgAAAAAAAKgRF4QAAAAAAABQIy4IAQAAAAAAoEZcEAIAAAAAAECNuCAEAAAAAACAGnFBCAAAAAAAADXSetcNAIDMRx99FMZfv35dGWs2m2HueDyujLVa8TZ5eXlZGbu9vQ1z2+12ZWw6nYa5b968qYzNZrMwdz6fFz13qdvtVsaGw2Hx9/b7/TA3+qaLi4sw98GDB5Wx8/PzMDd7dqTX61XGFotFmLu6ulo0Btl8z+ZG9L3ROlna3NwsnhvRWslyO51OZWxnZyfMHQwGxX01mUyK+yp69tbWVpgbxaM2ZfOq0WgU142oH7P47u5umBv15cbGxlurG9E6iuZc9t6bm5swN3r23t5emBvVhmxuRPFo3mTrN1tH0R6btTnaJ58/f148J6O5nsWvr6/D3GjejUajMPcnP/lJ8Xujvsrmc7QGs7kR1ZVsDd6ltke1ITq3ZftztndHayEb37uMUTQOd8nN6lXU5oODgzA3qg3ZGtzf3y/ey6IxzPaj6BybnVWieHYGjs6TZ2dnxe/N5kbUH9lZNJpX2b+Pvv322+L3RnPj2bNnxTX2F7/4RZgLAO87vyAEAAAAAACAGnFBCAAAAAAAADXighAAAAAAAABqxAUhAAAAAAAA1IgLQgAAAAAAAKgRF4QAAAAAAABQI6133QAAyEwmkzC+sbFRGev3+2HucDisjK2uxn9Hc3V1VRm7vb0Nc9fW1ipjm5ubYe58Pq+MHR0dFfdl1BdLrVb1sWGxWBR/bxTL2jwYDMLcaAyz743mTjQGSycnJ8VtfvDgQfFaGI1GxfOq2WxWxs7Pz8Pcvb29ytjOzk6Ye3x8XBnrdrthbqfTKVqf2fg3Go0wd319vTK2u7v71uZVFI/alI1hthbG43HRvMlMp9Pi8c36KloL2byK6sZdcmezWfFeltXJqC+zvSyqK9n6jfa6rF5FdSOrkxcXF8X1KuqrbF7dpU5GffXRRx+FudE4ZLVua2urMnZ5eVnczw8fPgxzozmbnRmiGpzVjWiMsjoZ9WW2ftvtdvG8ir4pWifZWsnqVdTm7Dx5cHBQtK8v9Xq9ovmajVE2vtH+G+032Z6Srf3o2dkYRXUjOpe/zf0324+eP39eXK+iZ9+7dy/MPTs7q4zt7++Hudk+CQA/ZHZBAAAAAAAAqBEXhAAAAAAAAFAjLggBAAAAAACgRlwQAgAAAAAAQI24IAQAAAAAAIAacUEIAAAAAAAANeKCEAAAAAAAAGqk9a4bAACZk5OTML67u1sZm81mYW4WjzQajcrYYrEIc4+Ojipjh4eHYe7qavXf91xeXoa50+m0MraxsRHmXl1dVcYGg0GYu7OzUxn7/PPPw9z5fF4ZOz09DXN7vV7Rc5f6/X5lrNPphLnX19fFfRWNUZYbjWE2vq1Wq6hNS+fn50V9sTQcDovXQtTmbrf71nKjeLROspqTvTeqG9kYXVxcFK+FaP1G62Tp5uamqJZl8azNe3t7xbnRnMyMRqOiepS1OdrnlsbjcfEYTSaTonmT1cKsTkayMYrW2YsXL8LcaK1k7436OVuD0fhnZ4bXr18Xn2OiZ7fb7eI1mO1HzWazeE5GfZn1c/Tezc3N4n0hq+1R3chqXdQf2dyI5my0tu+6fqP5HPVjFs/eG83ZaL/JZPX5zZs3lbE/+7M/C3N/+7d/u/i9t7e3xesoOve9fPkyzD07OytuczRG2ZkwWqPZGSnaQ7M6+Q//4T8M4wDwQ+YXhAAAAAAAAFAjLggBAAAAAACgRlwQAgAAAAAAQI24IAQAAAAAAIAacUEIAAAAAAAANeKCEAAAAAAAAGqk9a4bAABL/8V/8V9Uxm5ubsLcZrNZGbu6ugpz19bWKmPD4TDMXSwWRW1aGo1GlbGXL1+GuYPBoDJ2fX0d5na73ZVSq6urxc+Nvjcb36ifM41GozLW7/eL2xz1RdYfh4eHYW673S7uq93d3crYZDIJc7/55pvK2Mcff1z8vb/61a/C3FarVTTXs3GInputlWzt32Ud3d7eFr836o/xeBzmZv1RmjubzYrXYK/XC3On02llbD6fF78364toX8jee3Z2Vhnb2toqnldRPcpqw5s3b4rXUdQXWX3O+jn6pmztX15eFsWy92Z7d/RN0ZzL+jJbv1Gbs73s1atXxXtZtEaz741qXafTCXOjuhI99/uMYWluVuui82b2vZubm8X9HD0764uobmxsbIS50dzJavtd+jl6b3R+ynKzmhP185MnT8LcqD+i9ZnVhmxuROe+/f39MDd69tHRUZgbzZ319fUwNzoHZfMqGt9sPv9r/9q/Vhn73//3/z3MBYD3nV8QAgAAAAAAQI24IAQAAAAAAIAacUEIAAAAAAAANeKCEAAAAAAAAGrEBSEAAAAAAADUiAtCAAAAAAAAqBEXhAAAAAAAAFAjrXfdAABYOjk5qYyNRqMwd3d3tzI2GAzC3MViURmbz+dh7nQ6rYydn58X57Za8fZ8e3tbnLuxsVEZ29vbC3OHw2FxPz958qSoL7L4bDYLcy8vLytj9+7dC3N7vV5Rm7LcaPyWOp1OZWx/f7/4e6O5vtRoNCpjNzc3Ye7q6mrxvLpLX11fXxevhWjurK2thblRX0bjl3n58mVxbrvdDuPb29tFdSHrq2wt9Pv9yliz2Vx5W98bjX+2FiaTSfF7Dw8Pi/eUaA1mojUa7a/ZHpvVyW63+z1a9///e7M9NNqPopqS1Y3oudl8zsZvPB5XxtbX14vfm+2/pW3Kxjf73midZe+N9pSsbkS5maj2Z+eNaL/Kvjcaw6h2Z/M5q3Wbm5vFtT3qj2wMoty7jG+29qPafnZ2FuY+ePCgMvbw4cPi+vz8+fMwN5o72Vnl4OCgaOyz8c/+XRbNyWwPzeZdqWxuRHs3APzQ+QUhAAAAAAAA1IgLQgAAAAAAAKgRF4QAAAAAAABQIy4IAQAAAAAAoEZcEAIAAAAAAECNuCAEAAAAAACAGmm96wYAwNL19XVlbD6fh7nT6bQotjQej4tzB4NBcW6n06mMtVrx9txoNCpjGxsbxbnD4TDMvbm5Kf7eV69eVcYODw/D3G63G8ZLc6MxWGq325Wxi4uLMPf29rYyNpvNwtz9/f2i5y6dnp5WxlZXV4v7Klqf2Tp6+PBhmNtsNitjo9EozI3m3WQyWSkVre1sHKI19n3meyQaw2i+Lm1ubhbNuaXLy8uiOZeNbyb7pkiv1yuuV9G8y+pz1JdXV1fFfZWt32iNZnUjyl0sFsXzud/vh7lRf2T7UbS+szbfZV5Fa2F9fT3MjdqV1atoTp6cnIS5UV9m+2BUz7J+XltbK2pTtkajtZ3lZv28tbVVPJ9fvnxZ/L1RPKtXUU3K6kb07Cw3GodsXt2l1pWeRbJ+zvaqaA998eJFmBvV4Oi52b+BojWW1aRsXkW1LnvvXeZklJvV7uzsFvn888+LcwHgfecXhAAAAAAAAFAjLggBAAAAAACgRlwQAgAAAAAAQI24IAQAAAAAAIAacUEIAAAAAAAANeKCEAAAAAAAAGrEBSEAAAAAAADUSOtdNwCAevi7f/fvhvGLi4vKWKvVKs6dTqdh7vb2dmVssViEudfX15Wxbrcb5kbfNBgMwtybm5viNq+vrxf3VbPZrIx1Op0wdz6fV8ba7XaYmz27dHzPz8/D3LW1tcrY3t5emBuNf/TcbF49f/48zN3a2qqMTSaTMDeaO9l87vf7lbHLy8swN2rX1dVVmNtoNCpjvV6v+L1ZzYnmbLaOorWQvTf63mwdldbQrM2bm5thblTPsjZHYxj1RZZ7dHS0UipbC9H4Z987HA4rYycnJ2Hu6elpcZsfPXpUvKesrq4W15yoBkd1MKsrWW5kPB6H8dFoVNzPUV9mdSOa79l7o31/NpsV52aivsr6OaqF2ZyM+mpjY6O4bmRnhqgWRn2RjX+2L2TjH4n22Kyv7nI2i8Yw2m+yfo7OqVlfRrUsq8FZm6O+ys6E0bOzc060zrLvjeZkVjei+Z59b7QfvXz5MsyN9pzsrLKzs1MZ+53f+Z0w9//6v/6vMA4Av+n8ghAAAAAAAABqxAUhAAAAAAAA1IgLQgAAAAAAAKgRF4QAAAAAAABQIy4IAQAAAAAAoEZcEAIAAAAAAECNtN51AwD44fgP/oP/oDI2m83C3PF4XBlbW1sLc6Nnb2xshLkXFxeVsfX19TB3dbX672yurq7C3G63Wxlrt9th7vb2dmXs5OQkzJ3P50Xfs9RoNIqeu3R2dlYZu7m5CXObzWbx3FgsFkWxTDRfl1qtVvF7X716VRkbjUbFfXUX2fqNvjfLjcZwMpmEube3t0Vtyp6dzcmorkQ1Zenbb78tXoNRXw2HwzA3qkmdTifM7fV6K6Wiepa9N8rN+ipbo6W1Lltjd6mTUZuPjo6Kxzd779bWVmVsZ2cnzI32yW+++SbMjfarwWBQ/L3RfpPNu2wdRfFob87il5eXYe719XXx+EbrKOvn6XRavP9GfZXtg9H6zupR9L1RP36f8Y/s7u4W791RP2e1LlpH+/v7Ye7m5mbxe6M2Z/tvVEfvUmMzUbuyPSOaO9GZ/vuM/9vaf6Mxyvbf6JyTten4+Lh4bkTrNzofLz148KB4jKKz2+HhYZgLAO87vyAEAAAAAACAGnFBCAAAAAAAADXighAAAAAAAABqxAUhAAAAAAAA1IgLQgAAAAAAAKgRF4QAAAAAAABQIy4IAQAAAAAAoEZa77oBAPxwfPTRR5Wx09PTMPf29rYy9uGHH4a5jUajMtZqxVtdFJ/P52Hu2tpaZWw6nYa5i8WiMjYYDMLcq6urytje3l7x947H4zA36o/t7e0w98GDB5WxjY2NMLfdblfGRqNRmNvv9ytj3W53pdTNzU0Yj8Y/m5O9Xq9ozmXtitbYUqfTWSkVjVGz2QxzJ5NJZWw2m4W50VrJvjdaK6ur8d/Q7e/vF4/RixcvimtO1FdZbvRNd8nN5vPu7m5xrYvi2byKcrOaE/VHtN/ctV5FNTjaM+46vtGzs31hOBxWxs7OzsLc6NnZmeHy8rJ4XkVz9i77QrbvR/Us6+coN5sbUW2P1uf3me+RaJ1dXFyEudE3Rft61pfRfM3GMKsbUU2Kzm1ZbY9i2Z6TzauoXdnc2NraKt67o/eur6+HuVk9Kx2jrJ+jeLYPRmswW2NZXYlEz87O7VFuNq+iNZqt36i2R+fjbByyM+Hm5mZl7H/8H//HMBcA3nd+QQgAAAAAAAA14oIQAAAAAAAAasQFIQAAAAAAANSIC0IAAAAAAACoEReEAAAAAAAAUCMuCAEAAAAAAKBGWu+6AQD8cPR6vaLY0u7ublEsc3V1FcY7nU5lrNWKt8nJZFIZW1tbC3MHg0FxX3333XeVse3t7TC30WhUxobDYZjb7XaLc+/fv1/UpqV+v18Zu7m5CXPH43FlbDabhbnT6bQytroa/41VNHfm83mYG7VrsViEuVFfZnOy3W4Xtznqq0y0jjLR3Li4uAhzo77M+ipqczavopqT9WM077IxitZK9t6NjY2iNi2dn58X1cFsHLJaF9Wk0WhUvH6z+Rqto2jss2dnudEYZXvZXfbYN2/eVMYuLy+L58bJyUlxX2V7SjT+zWbzrfVVtM6iWpZ9b7aOovdmcyOad9H+mj37be4pUW3PzleRbA1GsjkZfW9Wr+7Srig3qinZWsnGN5qz2TknqrHZWojGIVv7UTx7bzTvsu+N9rJsjKJnR2f67Juy2h6dg7K5EfXzvXv33toZKVujAPBD5heEAAAAAAAAUCMuCAEAAAAAAKBGXBACAAAAAABAjbggBAAAAAAAgBpxQQgAAAAAAAA14oIQAAAAAAAAasQFIQAAAAAAANRI6103AIAfjslkUhk7PT0Nczc3Nytjl5eXYW673V4p1Ww2K2PHx8dh7snJSWXso48+CnPn8/lKqQ8++KAyNp1Oi8doOByGuRsbG5WxXq8X5nY6ncrYbDZbKXVwcBDGF4tF0dgvtVrVx6Tb29sw9/r6ujI2Go2K53P0Pdn4Zt8bzZ1o7DNZX0X93O12i+dVFMuenc3n8XhcGbu5uQlzozEcDAbFbc7Wb9TP29vbxfUqem4W39raCnOjvszqc7TOsnkV1ZVo7JeePXtW3FfR3Mjm8+rqanHNiXKz+hztg1999VWYG+3t2XyOxiGrk41GY6VUNCezuRHVlWzvjmrDXb43m5PR+Gf9GO1He3t7YW60X2VnvqgvsxobvTfr5/X19eLvzcY/Eq3vbO+O4hcXF2FuNP7Z9x4eHhY9N/vebIyimvTy5cvis/dd1lE2n6NauLa2FuZGfZmdc6J9IVtHUZuzvrrLua70e5aurq4qY//uv/vvhrl//+///eJ2AcBvAr8gBAAAAAAAgBpxQQgAAAAAAAA14oIQAAAAAAAAasQFIQAAAAAAANSIC0IAAAAAAACoEReEAAAAAAAAUCOtd90AAH44+v1+ZWyxWIS5g8GgMvbs2bMwdzKZVMYajUaY2263K2Pj8TjMHY1GlbFPP/00zN3d3a2M/epXvwpzb29vK2P3798vbvPOzk7x+Ha73TD37OysMra9vR3mRnOn1YqPMhcXFyulojGazWbF8zkav6WDg4OiuZ71x83NTZgbrZWNjY0wt9lsFq/9KDdbg8PhsDLW6XSK53PUpqyfo+cuzefzytjh4WGYG/VltLazb4r6MZvPP/rRj4rnVbY+o7qRtTmqK/v7+2Fur9crrjnT6bR4TkbvzdbR3t5eZezy8jLMjepZNPZZf2S1/erqqnhPifojmxuRtbW1ML66+nb+vjbr52j9ZjUn6o9sT4ni2Zkhem+2h0bzKlpj2bOzPSWas9m+ENna2grj19fXxd8brYXojJvlZmtwfX29eJ1ENTjLjfaFbF5FczKrsVH9zvo5Wt9ZP0dnwuicuvTq1avi/TdaC9HYZ+ecbA+NzsjZOSfaQ+8yRm/evAlzAeB95xeEAAAAAAAAUCMuCAEAAAAAAKBGXBACAAAAAABAjbggBAAAAAAAgBpxQQgAAAAAAAA14oIQAAAAAAAAasQFIQAAAAAAANRI6103AID3x7/+r//rYXw0GlXG9vf3w9zb29vK2HQ6DXP7/X5lbDgchrmXl5eVsUajEeYOBoPK2B/90R+FuU+fPq2M7e3thblRf0wmkzD3+vq6MtZqxceCm5ubojFYuri4KBqDTLvdDuPr6+tFc25pPp8Xf+/a2lrRvFlaLBZFY5DlZusoanP2vdFaycYoWqPZGozGKJtXOzs7xesoiq+uxn9/F827jY2NMHc2mxW1aanZbBbNm+zZ3333XZgb1ZVsbkTjm82Nu8znu7w3mlfRc7P1PR6Pw9xo3h0cHBTPyaxeRft+9r2l83Wp1+sV72XZfC9dC91uN8yN2vXq1aswN3p2to6yfaN0HWXfG41/1qaon7P1G/Vz9D1LW1tblbFOp1O8FjY3N4vfe3Z2Vrz2s3UU1atsfKPvzdZgFM/qRrQPRrHsvPH69esw98mTJ8X7fnSuz/b9qPafn5+HudF+lZ0Jo2dn+1G0zrK5EfVlto6iOXl0dBTmRvM9azMAvO/8ghAAAAAAAABqxAUhAAAAAAAA1IgLQgAAAAAAAKgRF4QAAAAAAABQIy4IAQAAAAAAoEZcEAIAAAAAAECNtN51AwB4f8zn8zA+HA4rY2tra2Fus9msjN3c3BS3q91uF7/36uoqzL2+vq6MbW9vh7mvXr2qjD148CDM3d3dLRqDpfF4XBmbTCZhbq/XK54b3W636LlLi8VipdT6+nrxvLq4uKiMtVrxESr6pq2treJ51Wg0wtzNzc3K2NHRUZi7t7dXNOeWXrx4URk7PT0tXoPR92S5q6vx38FFczaar9kYRWssa/NgMFgp1el0wvjt7W1xbrSOzs/Pw9yoP+7fvx/mRvU7qxvRGJ6cnIS50fq+yxrM6kbUH9G8WZrNZiuloloY1cFsXmXr6PDwsOi52RrM9v1IthYuLy+Lnx2Nfza+UW429nepk5Fs7U+n0+L3Rm3Ovjd6djY3onNftndH59zsPDkajVZK7ezsFO/d0XzP1mA0vtnefXZ2Vlxjo/GNzjFLBwcHlbFf/epXYe7x8XHxuT36puzcHo1Ddj6OanC2jqLan51zHj16VDw3ohp7lzNSltvv94v/DQsA7zu/IAQAAAAAAIAacUEIAAAAAAAANeKCEAAAAAAAAGrEBSEAAAAAAADUiAtCAAAAAAAAqBEXhAAAAAAAAFAjLggBAAAAAACgRlrvugEAvD8+/PDDMN7tditjFxcXYe50Oq2MzefzMLfVahW1aWk0GlXGDg8Pw9zV1dWiWNYfWe5wOCzqi6W1tbXi3H6/XxmbTCZhbjQO+/v7YW7UH9G8WXr58mVlrN1uh7kHBweVscFgEOZG7drc3AxzG41G8VqIcu/duxfmPnjwoLivzs7OKmNXV1dh7tbWVmVsNpuFudmcjdze3haPUfTebG5EfRmNX7bOovW51Ov1ivux2WyulIpqbFTLljY2NoprTjS+2TqKas719XWY2+l0KmM7Ozth7mKxKKrd2bw7PT0tXr9ZP0djlM2bqDZkudGczb43WoPZOoqeHY1fNifvUstubm7CeFRHo7qQrd9sHY3H4+Jzzvr6enGdjMY3e2/0Tdm+EPXV0dFR8VqI+iLbQ7PxjeZstgajWpfVjaheRc/N+jmbG9G/Y/6f/+f/CXOj/So7I0Vn/iw3imd9Fa39bD+K5s7Pf/7z4jr55MmTMDcaw+x8tb29XVxjo2dn+wIAvO/8ghAAAAAAAABqxAUhAAAAAAAA1IgLQgAAAAAAAKgRF4QAAAAAAABQIy4IAQAAAAAAoEZcEAIAAAAAAECNtN51AwB4f3zyySdh/OzsrDJ2c3MT5rZa1VvSYDAIc5vNZmVsPp+HuRsbG5Wx6XQa5vZ6vcrYYrEofm+n0wlzT09PK2ONRiPM3d7eroxdX1+HuVFf7u3thbnj8bgydnx8HOY+evSo+HujOfn06dMw9/z8vDI2Go2Kx3dzczPM3draqoydnJwUf+/qavx3YV9++WXR92TP3tnZKV6/2RqM5kY2r6L5nI1Rt9tdKfXixYuiOpi1K6s5WS2MvHz5svi97Xa7MjaZTMLcaJ1l3xPtOcPhMMyNvuni4iLMjdoV1e6l9fX1onWSfW9Wr6I2Z/tR1FfZ3h21K9ozsu+dzWZhbr/fL55X0dyJzgTZ+r7LOsreG9XCbG5E782sra1Vxi4vL8PcaO5kdTKSnRl2d3eL3xvVs6wfo3i2H0VzNhvfu9Sc6L1ZX0Xvzfb9aH1n9eqLL74obvMHH3xQfM6Jztd32QezvrrL+i1dJ9l5Mlv7P/rRj4rXbzQnszoZ1fb/9r/9b8NcAHjf+QUhAAAAAAAA1IgLQgAAAAAAAKgRF4QAAAAAAABQIy4IAQAAAAAAoEZcEAIAAAAAAECNuCAEAAAAAACAGnFBCAAAAAAAADXSetcNAOD9sbOzE8ZPTk4qY9fX12Fur9erjA0GgzC33W5Xxvr9fpjbbDYrY5eXl8VtjtqUfVPUj0uNRqPoe5ZGo1FlbGtrK8zd2NiojK2uxn9zNBwOi+dG9Oz5fB7mdrvdovHLjMfjMH5xcVE8N9bX14vGL5OthWfPnlXGOp1OmHtwcFAZe/PmTXG7svGN2vXpp5+GudE6i8ZvaTKZVMZms1lxm6O1nTk+Pi5+76NHj8Lc58+fF9ec/f394rUQ9fNisQhzo3HI+iqad1mti74pm8/Rs7P1G31vNifvUp9brep/Tk6n0+I6mr036svt7e0wN5s7pe/N9pRoDZ6dnRXvZVH9zdoVjV+2vs/Pz+90Ziydk9FZJJPtZVF/RG36PvO9dC1k+37U5qw+R7Uhqr937eeor7J6tba2Vrz2o7N3Nq+i2p6thWh8sz3lLmeG6Juyf1tFZ7fd3d0w9+nTp0Xniawvs5pyl3mV7c8A8EPmF4QAAAAAAABQIy4IAQAAAAAAoEZcEAIAAAAAAECNuCAEAAAAAACAGnFBCAAAAAAAADXighAAAAAAAABqpPWuGwDA+2M2m4XxwWDw1p4dWV2t/nuXxWIR5l5cXBTnRt87Ho/D3K2trcpYp9MJc29vbytjrVa8tc/n85VSUV9lz93f3y/+3uFwWBnb3NwMc3d3dytjJycnxXMymnPZOPR6vTB3Op1WxhqNRpgbtSuac0sff/xx0XOXJpNJcV1oNpvFfXV0dFQZe/ToUZh7cHBQGXv58mWYG833bD5vbGwUre2l8/Pz4rX/+PHj4nkVfe/29nZx7mg0CnOjeRfVhey9WT9H/RGNX9bmbD5H+0a2H92lr6JxyMYoWvvHx8fF35vtoVFfZv0ctfnm5ibMffHiRfFaiPardrsd5kbtysY3ena2d0fxLDeaO1mdvEubo/dme1nUl1mbs2dHomd3u90wN+qPbB1Fudm+EK2zLDfar7J/D0TfFJ0JMlltPzs7K869yzqKan/Wz+vr68Vns+h7szkZ9Ud2bo/atbOzE+ZGz76+vi5e+//mv/lvhrn/y//yv4RxAPhN5xeEAAAAAAAAUCMuCAEAAAAAAKBGXBACAAAAAABAjbggBAAAAAAAgBpxQQgAAAAAAAA14oIQAAAAAAAAasQFIQAAAAAAANRI6103AID3x3A4LM7t9XphvNWq3pKazWaYO51OK2Oz2SzMjZ4dtWnp8vKyMrZYLMLcTqdTGVtbWwtzB4NB8ffu7OxUxubzeZgbPbvf7xf38+pq+d8rTSaT4n7O+ip6djTnlvb29oq/9/T0tDK2vb0d5kbfNBqNwtxut1v8vScnJ8VrIWpz9t5ozp6fn4e5u7u7RW3K5tXt7W2YG8XH43GY22g0imts9N7r6+swd3NzszL28OHDMPfo6KgydnNzE+beu3evqJZl8y76nky73Q7j0dxZX18Pc1++fFk8N6K+yupzVJOyuhHtR9EemfVVViej/Tn73qjWffvtt2FuNA7ZGixt09LV1VXx+o3WQnbOieJZm6MxzGp71M/ZOorqZHbOyeKRbN+IRDXp4OAgzD0+Pi7u52gvy9ZgtM6yOhntR1nNifaNaJ1k9Sprc/TebB1Fc/bNmzfF8yo7E0bfm9WN6IyUzcmo9u/v74e5UV9mY3SX9RvN9+xcBwDvO78gBAAAAAAAgBpxQQgAAAAAAAA14oIQAAAAAAAAasQFIQAAAAAAANSIC0IAAAAAAACoEReEAAAAAAAAUCOtd90AAN4fo9EojHc6ncrY6mr8NyndbrcyNpvNwtzBYFAZ29raCnN3d3crY8PhMMydz+dFsaXxeFycG/XzZDIp7qu1tbUw9+DgoDJ2e3sb5p6cnFTGHj9+HOb2er2ivlhqNBqVsVYrPgYtFovi3IuLi+LxjcYoWifZ997c3IS50XzP+rnf7xd/b1Qb2u12mBvN2el0GuZGdeXw8DDMvb6+roydn5+Huc1mszK2ublZvBaiObf0J3/yJ8XvffDgQWVsfX29uNZF35PNqyiW9XP0Pdl8z/aFq6urytjR0dFbW/vR+Ed98X3qWSSqK9H33PV7o9oQ1cGsP05PT4vnxt7eXvF7o3WSrdFsLbx+/bo4N/rebE+Jxjebk9vb25WxjY2NMDfqy+wcG+0b2byK9rqsn6O+fPHiRfH6vcvZO6vP0XuzmhLVySiW1eBob87GMDrzZf2Rnb2jM3J2Rvruu++K12D07GiNZXt7Viej/sjWb3YeKX1vtndHaz/rZwB43/kFIQAAAAAAANSIC0IAAAAAAACoEReEAAAAAAAAUCMuCAEAAAAAAKBGXBACAAAAAABAjbggBAAAAAAAgBpxQQgAAAAAAAA10nrXDQDg/TEej8N4p9OpjLVa8ZYTxafTaZjb7/eL2rS0s7NT1Kalw8PDytj5+XmYG8VfvXpVPA5bW1vFuaur8d8NZfFI1Jez2SzMXSwWlbFerxfm3tzcrJSaz+dFsaVms1kZ63a7xbmTyaQ4t91uF/dz9t7omzY3N8Pc0jZl8cvLy+I2r6+vh7nRGs3WSVSTRqNRmBvFr6+vw9zom/b394vrZPbeaO5kNXYwGFTG9vb2wtxsnUWimhS1KasNV1dXxW3O5lU037O+ivaF4XBYXGOzM0NWR0u9fv26eE5+9913Ye7t7W1xrYu+N1sLd1n72T4Zic5fjUbjre3d0XzPxiiqsVldiPo5O0+enp4Wn3Oi/oiem+Vm/RythWwfjM4U2XyOzqpZPx8fHxf3c1S/T05OivfB7Kzy7Nmzytj29nbxuS6rz9k3lX5vtqdE/XFxcVFcJ7N9MOqr7N+S0R4azTkA+CHwC0IAAAAAAACoEReEAAAAAAAAUCMuCAEAAAAAAKBGXBACAAAAAABAjbggBAAAAAAAgBpxQQgAAAAAAAA10nrXDQDg/TGdTsN4o9GojC0WizD3/Py8MjaZTMLcjY2NytjFxUWY+/Dhw8pYu90Oc58+fVoZe/HiRZi7trZWGdvZ2Qlzv/7668rYbDYLc1dXq/82qNvtrpTKclut6iPHeDwOc0ejUfG86nQ6b6XNv/jFL4rf22w2w9xer1f8vdH4RrEsnq3BqM1RbOnq6qp4jPr9fvFaiOpZlhv1x/r6eph7eXlZVEOzdmVj9Pjx4+I5GdXnwWAQ5kZzNlpjWe7NzU1xbrRnZGsh6otsHLL1m+05keibonWydHJyUjxG0V62vb0d5kZzZzgchrnz+bx4jG5vb4ti2X6VraNIViejPSVb+9EYZTUnmrNZmyN3qbHZ90ZnhmyNRf2c9dXm5mZxvYrmTnYmjNbCXWpddmaI+ur09DTMjebO1tZWmBs9O6s5UX/cZS+L+iKLZ7Uuqkn3798vnhvRWSQbo6xORrJ5FZ3Nsn6O1uDx8XGYe3R0VBn75ptvwlwAeN/5BSEAAAAAAADUiAtCAAAAAAAAqBEXhAAAAAAAAFAjLggBAAAAAACgRlwQAgAAAAAAQI24IAQAAAAAAIAacUEIAAAAAAAANdJ61w0A4P2xWCzC+HQ6rYy12+0w9+rqqjK2trYW5kbxN2/ehLnX19eVsc3NzTC31+tVxj744IMwd29vrzL29ddfh7ndbre4nzudTvH4zmazyli/3y/Ovbm5CXNfvXpV/L0fffRRZezi4qK4r6LxW5pMJsVtjvpjPB4Xz8lofWbtytZgNCezeTWfz4ueuzQcDov6IsvN3hvVhmiuL62urhaPb6vVKv7eKDebG1FfRd+zdHZ2VjT22bNHo1GYu7OzUxnb3t4uXgvZ+t3d3S0ag2w/isYgk83JjY2Nojq4tL6+XlwnX758WbwvRG3+5S9/GeZeXl4Wz8lo7Wd7StQft7e3YW7UrmazGeZG6zsb32jeZXUjimf7QrRWojl31/0oanO0r2e1IRujaPyzuRGNYbb2t7a2itv8+vXrolq29OGHH76VMcr27miMsjP/XWpwNGePj4/D3KiuROOXxbN5Ff1bJNsHDw8Pi/bmpXv37hXXnOh7s1qXnWUA4IfMLggAAAAAAAA14oIQAAAAAAAAasQFIQAAAAAAANSIC0IAAAAAAACoEReEAAAAAAAAUCMuCAEAAAAAAKBGWu+6AQC8PxqNRhgfjUZFsaV2u10ZOzg4KG7XbDYLcy8vLytj9+7dC3MHg0FlrN/vh7m9Xq8y1u12w9yoP87Pz8PcaByy3Pl8XvQ92Thk47u1tVUZWywWK6U2NjbCePTs1dXV4txWKz5+jcfjyliz2Qxzd3Z2KmPPnj0rbnM2n4fDYWVsd3f3rfXVxcVF8TqK5uTR0VFxvcrWQjTv3rx5E+ZOJpPi751OpyulojmZ1dio5mTrKPreLPfq6qpo3iw9ffq0KPZ9+qN0L8vGL+rn7Huj+RyNQWZtbS2MR3M2qxsvX76sjP3xH/9xmBvVlazWRftRdkaKal20v2bzPZtznU7nrcyraN5kbc7232j9Zm2OzhTRvFl68OBBZWxzczPMjfaN7KwSrZXse+9yfo7mRraOTk5OKmMff/xxmHt7e1sZu76+DnOj2pDVq7ucGaO6sb29HeZG54KopmTrO/u3VVTPon09O49k8+rRo0fFYxDN9+x7o2/a29sLc7/++uswDgA/ZH5BCAAAAAAAADXighAAAAAAAABqxAUhAAAAAAAA1IgLQgAAAAAAAKgRF4QAAAAAAABQIy4IAQAAAAAAoEZcEAIAAAAAAECNtN51AwB4f+zs7ITxFy9eVMaur6/D3O3t7crY7e1tmDsYDCpjm5ubYW6n06mMtdvtMHc2m1XGFotFcW723kePHlXG9vf3i987Go3C3IuLi6LnZmOYjVHUH6ur8d86RfNubW0tzG02m5Wxhw8fhrmnp6fFc+PBgweVscvLyzB3PB4XzfWlm5ub4vGN4q1Wq7jNR0dHYe76+nrRc5c2NjaK59XV1VVxm6N5l639aB1lbY7GP/qe7L13qRu7u7vFudPpNMzt9XrF/Rx90/HxcZgbPTtbg41GoyiWydZvtFbOzs7C3MlkUlRTlobDYdGZYOnrr78uOhMsPX78uHg+3+XMEH1vtn6j+Z6dkaI9J6vP0V6XrYXoe7O+ivqj3+8Xj9H9+/fD3Kg/zs/Pi9dCtn6j3Gz9RntZdr569epVZezZs2dh7uHhYfEZ6Ztvvinuq+jfItm+n+0bkWjeZbU9qknZWTQ680d7ZFbPsja/fPmyMvbdd98Vz6uDg4Mw9/Xr10XrJBujrNZl+xUA/JD5BSEAAAAAAADUiAtCAAAAAAAAqBEXhAAAAAAAAFAjLggBAAAAAACgRlwQAgAAAAAAQI24IAQAAAAAAIAaab3rBgDw/rh//34Yf/36dWXs8ePHYe7t7W1lrNlshrmdTqcydnNzU/zeViveJtvtdmWs0WiEuVF8MBiEub1erzJ2eHgY5o5Go6LnLp2enhaNwdJ4PK6Mra6uFvfV+vp6mLuxsbHyNmRzMmpXNr5bW1vF7z0/Py9qUzYO2RhdXFxUxn79618Xf29Wc6I1mq396Juyfo6efXJyUlxzHj58GObu7OxUxq6ursLc4XBYGbu+vg5zu91ucV9F/ZG1eT6fV8am02lxzYn6Yun4+Li41u3u7lbG+v1+mHt5eVlcN6LcaI1l/fHixYswd3t7u2j8lmazWfF737x5Uxk7ODgIc9fW1or3/ejZ2b4fyfoq2n+zNkfrLBqDbO1Hc+6uZ7Oo1mWic052JojW2WKxCHOjmpTV2Oi9Wc2JzqJZrYvOBdl5cnNzszJ2dnZWXJ+zs0o077I5GZ1zs7kRre9sHWXxSDT+0dlr6dmzZ5Wxn/70p2HukydPiutzFM/qZLSnZOeNP/zDPyzeQ6Pv/eKLL8JcAHjf+QUhAAAAAAAA1IgLQgAAAAAAAKgRF4QAAAAAAABQIy4IAQAAAAAAoEZcEAIAAAAAAECNuCAEAAAAAACAGnFBCAAAAAAAADXSetcNAOA3y9/8m3+zMjYYDMLcnZ2dyli/3w9zr66uVkpNp9PK2Opq/Lcw29vblbFutxvmjsfjythsNgtzO51OZWx9fT3Mjb7p7OwszB0Oh5WxJ0+ehLmPHz9eKTWZTCpjNzc3Ye7W1lZlrNVqFc+NLPcu1tbWir/35OSkMnbv3r3i97558ybMjeZ7tn7n83nR2GfrKJqv2VpZLBZhbtQf0bxZGo1GxXUjqqN//Md/XFyvMtG8y8Yoqle3t7fFcyPLjdbo9fV18fhGcy57b7an9Hq9ylij0Sjuq+y9l5eXlbGNjY0wNxqHbIyieNQXWT8/f/68uE7u7e2FuYeHh8V7d/RNWV/dZQ1GczY6e2Xnq2jOZWs/m1dRX2brN6r92d4d1f67jFG2fqM2Z3tKNA7Z90Z7yvHxcfF8zsY3mhvZOrrLXhaNb/beqK+ys3cUz94bzY1ms1m8fr/77rswN4pndSM6T3722WfF3/tP/sk/CXMfPnxYFMvWb7vdDnPv378fxgHgh8wvCAEAAAAAAKBGXBACAAAAAABAjbggBAAAAAAAgBpxQQgAAAAAAAA14oIQAAAAAAAAasQFIQAAAAAAANRIY2VlZfGuGwHA++E//8//8zA+Ho8rY5PJJMx9/fp1cbtarVZlbDqdhrl7e3uVsb/8l/9ymLu2tlYZu7y8DHNXV6v/Rqfb7Ra/N3ru0tbWVmVsNpuFuf1+vzI2n8/D3OjZzWYzzN3e3i5q01Kn01n5TXN9fR3GR6NR8bN3d3eLxzdqVzavrq6uKmPtdjvMPT8/r4y9evUqzI3mTlZzhsNh8fdGfdloLI/XZXPy4uIizI2+KaqDmWwNLhaL4vmc1eDImzdvivsqqsFZm7O6EtnZ2SleC9E6urm5KZ5XUZuyeZXV0Oib7rKOfvGLX4S5z58/r4w9evQozN3c3CxeR9HcePjwYZh7dnZWPJ+jNkfr865rP6qTUZuWjo6OKmPHx8fF+/76+nqYG8Wj81NWrwaDQZgbnYOy9XtyclL8vb1er7jmRO3KznXRe7N5FX1T1lfRHhvN12x8o3/DZP9e2NjYCHOjNZqd+f70T/+0+IwU1bN//p//58PcDz74oPg8eZe9+8GDB8XnumgdZf+2isYh6+d//I//cRgHgN90fkEIAAAAAAAANeKCEAAAAAAAAGrEBSEAAAAAAADUiAtCAAAAAAAAqBEXhAAAAAAAAFAjLggBAAAAAACgRlwQAgAAAAAAQI203nUDAHh/HB8fh/HNzc3iZ3c6ncrYdDoNczc2Nt5K7ng8DnO73W5lrNlshrm9Xq8ytroa//1O1K7se6M2LxaLMHcymRR9z11zo76czWZh7mg0KnruUqv1do5J2XOjOXl7exvmRnMnm1e7u7thvPS9w+EwzD04OCieG2dnZ5Wxo6OjMDfqy6yWRXMnmutLNzc3RXVwaX19vbifo3kV1YWs9mc1J/rewWAQ5n7zzTeVsfl8HuY2Go3i90Z1IxqDpevr6+I5GY1/Nq8ePHiwUirqq2xfaLfbxfP5yy+/rIx9/fXXxXU0+p6sXVmdjMbw8PAwzF1bW6uMnZ+fh7nRfL+4uCiusdvb2yulsrUQ1YasXkXnnGjOZWMY1cGlra2t4nkVjUO2fqM9JTszRP2R1clI9t7o/JWNURTPcqOalI1RtNdl9Tla39na/+KLL4r/bRXFnz59GuZ+/vnnxW2Oxjfa15f29/eLxyh6b7/fD3M/+OCD4n/TXV5eVsb+8T/+x2EuALzv/IIQAAAAAAAAasQFIQAAAAAAANSIC0IAAAAAAACoEReEAAAAAAAAUCMuCAEAAAAAAKBGXBACAAAAAABAjbTedQMAeH80m80w3ul0KmODwSDMXV1dLYotDYfDytjm5maY+/Tp08rYaDQKcxuNRmVsY2MjzG21WkXfszSdTitjs9kszD05OamMbW1tFb+33W6HuVF8bW2tuK+yebW+vl703LcpWieZrK/elW63W5wbrdFs7b98+bK4TdEazdbvZDIpimXxxWIR5kbt6vf7xf2cfe98Pi9eg1Edzcbo8PCwMnZ5eVm8X2VtfvPmTWXs6uoqzN3Z2amM7e7uFo/R7e1tmLu9vV0ZG4/HK6V6vV4Yj/acbC1E8z2bz9GzLy4uwtzHjx8X7/vRPnhwcBDm/umf/ulKqevr6+LvjdZZtu9HfZXtoa9evSpqUzavsvdG543o3JbJ+vn8/LzoLJKt/bucVbI1GNX2aK5n55HsrBI9O2tzNL7ZHnpzc1Ncnz/88MPivvr1r39dXNujf6d89NFHYW5UR7NaF+0b2f4bjVG0V2V7TrYfRXUy+/dRNoYA8EPmF4QAAAAAAABQIy4IAQAAAAAAoEZcEAIAAAAAAECNuCAEAAAAAACAGnFBCAAAAAAAADXighAAAAAAAABqxAUhAAAAAAAA1EjrXTcAgPfH9vZ2GF8sFpWx2WwW5vZ6vcrY1dVVmHt+fl7c5tvb28rYvXv3wtxut1sZGwwGYW7UH9Fzs75qNBrF7x2Px8XvbTabK6Xm83kYn0wmxfOq0+m8lXatrpb/jdVdcn9TRf3capUfN7N5FdWcbD73+/3i90ZjmK3B58+fV8Zubm7C3MPDw8rY7u5u8TqK6uDSdDotbvNwOCx67tLp6Wlx3bh//37xGEW57XY7zH316lVRLOvLbC+7vr4uns9Rf4xGo+J5Fe3N2Rr96U9/GuY+e/asqE3ZfL/LPpiN74MHD4rPDFHdyOZzFM9yo/7I5sbHH39cGdvc3AxzX7x4UdSmbF/Ivvf4+Lh4797b2yuusdE+mdXJqMZm9Srau7PzVTQO2fdG45B9bzQOBwcHxTU2m5PR+s7WQjS+2bx68uRJZWxra6v4nJO9N6ujkejfbdkY7e/vv5U9JTsjRXsKAPzQ/fD+hwoAAAAAAACo5IIQAAAAAAAAasQFIQAAAAAAANSIC0IAAAAAAACoEReEAAAAAAAAUCMuCAEAAAAAAKBGWu+6AQC8P87OzsL4xsZGZWw6nYa5jUajMra7u1vcrsFgEOaenp5WxtbW1orbfHt7u1Kq0+mE8agvV1fjv/2J4sPhsDi31+uFuc1mszJ2c3NT3B9bW1srpSaTSRifzWbF3/s+iubVYrEIc9vtdvGcLH1uNg7Z2i8d+6VWq1W8fqNnn5+fh7lRPOurk5OTlVLj8bi4bkS52dzY398vXr9RfY7qUdaXWT/fpSZF8yrbj+bzefF8jtb+5eVlmBvVhmzfj9Zo1BdLh4eHK6Wi/sjmZDSfv/322zD3s88+K35v1JfZ+I5Go6JYdpbp9/th7qNHj1ZKffPNN5Wxq6urMDdq1wcffBDmRvUse2+0FrIzYbSXZTU2qoXZOorqWbZ+o3mX9VX0vdvb22FuVJOyORnVyejfA0vr6+vFbY7adX19/dbGKJKdvV+8eFF8Bo7mXVRDs3WUvTdq813ODP/Sv/Qvhbn/5J/8kzAOAL/p/IIQAAAAAAAAasQFIQAAAAAAANSIC0IAAAAAAACoEReEAAAAAAAAUCMuCAEAAAAAAKBGXBACAAAAAABAjbggBAAAAAAAgBppvesGAPD+2NzcDONv3rypjLVa8ZZzc3NTGev1emHu+vp6ZazZbK6Uurq6CuPX19fF37uxsVEZm81mYe50Oi3+3vl8XhkbjUZh7upq9d8VNRqNlVJra2thfDweF+dG2u32neI/NIvFojg3mrN3WYPZWojWWfY9p6enRWt7qd/vV8a63W6Y2+l03kqNzfrq8vKyMjaZTMLcqC/vUuuiup/15dHRUfH6zcbo9va2qIYuDQaDorHPRPP1rrUwms9ZbY/2jWxuRPPu+Pg4zH369Gnx+EZrJRq/7HuzdfT69evK2MOHD8Pcra2tytjFxUWYm+3tpeerbC188cUXxfvCj370o8rYs2fPis8MWV89ePCg+HujdmVrITrXRWevpe3t7aJatjQcDovbfO/eveI5Fz07muvZs7Nze9TP2f4b7WV3qbHR+GX7b/Q9WX9k8zmad9F5ItvrsvNV1B/ZWoj2yayvonmVna8A4H3nF4QAAAAAAABQIy4IAQAAAAAAoEZcEAIAAAAAAECNuCAEAAAAAACAGnFBCAAAAAAAADXighAAAAAAAABqpPWuGwDA+6PX64XxV69eVcY+/vjjMLfZbFbGJpNJmLu+vl4ZWywWYe7NzU1lbD6fh7n9fr8y1ul0wtzo2cPhMMxttaq37263W5y7urpa3ObRaBTmRvFsXs1ms+LxfR9F/Twej4ufm83Jdrtd/Oyrq6vK2ObmZvFzo7qQrf2NjY0wN5rv0+m0uF3n5+dh7vHxcfH4RvO90WiEuVFtyPo5qpNZX0WyuhHZ398vnpNv3rwpnhtR3c++KavP0bOzfSEao6y2R+OfjW8Uv76+DnOjNZrtv1F/7O3thbk7OzvF6zfq57vs3XdZC/fv3w/jL168qIydnZ2FuT/+8Y8rY7//+78f5kbP/u3f/u3i9Z2dCaOz6M9//vMw9/Hjx8XzKloL2Tnn5OSkeF+I9vYsN5rPWY2N6ka2Fm5vbytjX331VZgb7XVra2th7r1794rHN/qmaL/JzrEffvhh8fhme0okq88PHz4srhvRfM/236gvT09Pw9yvv/66qP4uPX36tGjeLP3Tf/pPwzgA/KbzC0IAAAAAAACoEReEAAAAAAAAUCMuCAEAAAAAAKBGXBACAAAAAABAjbggBAAAAAAAgBpxQQgAAAAAAAA14oIQAAAAAAAAaqT1rhsAwPtjPB6H8fv371fGrq+vw9zZbFYUW2q1qrez1dX4b2G63W5x7mQyqYwNBoMwdz6fV8bW1tbC3K2trcpYr9cr7qvpdBrmnp+fF7Upa1e/3w9z19fXK2OdTmflhyYah8ViEeY2Go3i+RzNySy33W6vvA3ZOoq+N6sbNzc3xd/TbDaL129Uc4bDYfF7j4+Pi+t31I/ZN11dXYW5o9GoeF6V1t+sP7Lczc3N4joZ1bpsTkYePHgQxs/OzornVbTOsrkR7SmZaPyjdZL1ZbROlg4ODor7OerLFy9ehLlRX3733XfF9eqjjz56a2sh2vejtb20vb1dnBu9Nxvfvb294rPol19+WRn75JNPVkrdpW5k+2C0BrOzWdSuqKZk783W78uXL4vfG+1HGxsbYe7+/n5xrYvmXbaXRfvkZ599tlIqW0fRWsj6Oeqr7OwdtSubk9G/CbL37uzsFJ/ron3/Rz/6UZgLAO87vyAEAAAAAACAGnFBCAAAAAAAADXighAAAAAAAABqxAUhAAAAAAAA1IgLQgAAAAAAAKgRF4QAAAAAAABQI6133QAA3h//0X/0H4Xxv/N3/k5l7Pb2Nszt9XqVsdlstvK2rK5W/63MYrEIc+fzeWVsfX09zG00Gitvo81RLOvn7e3tMLfVqj42jMfj4r6KnrvU7/eLv/c3UdZXnU6n+NlXV1dFY3/Xvsye/bZsbm5Wxk5PT4v7ajgchrnfffddZWxvby/M7Xa7Rc/N6sZ0Og1zLy8vi9bn0r179ypjk8kkzI36Mptz0drP5tzGxkZRLGvXxcXFytsS7XXZnIzGIavtd1n70Xvb7XZxbrPZDHOjPfb8/DzMHQwGlbHPP/88zI3GIdv3o9yjo6PiuhHVsmz9ZmeRP/zDP6yMvXnzJsx98OBB8TqKanu2h0bjcHBwEOb+/Oc/L96bo37O1kJ0Djo5OQlzR6NR8TqKamzW5rW1tcrY7u5umHtzc1Pcz9HZPDtPRntdtEdme072vVFfHh8fh7kPHz4s/vdRtFaiOrj0+vXr4n8fReeRbHyjft7a2gpzo3GI5mtWn//6X//rYS4AvO/ev/9VAwAAAAAAAIq5IAQAAAAAAIAacUEIAAAAAAAANeKCEAAAAAAAAGrEBSEAAAAAAADUiAtCAAAAAAAAqBEXhAAAAAAAAFAjrXfdAAB+OJrNZmVsNpuFuZPJpDK2vr4e5g4Gg+L3tlrVW2G/3w9zNzY2KmONRiPMjb5pNBqFud1utzK2vb0d5m5tba28DdkY3WVu3NzcVMY6nc7K+yZr83w+r4xNp9OVH5po7Udjn+VeXV2Fud9++21l7Be/+EWYG7Vrb28vzI3ix8fHxesoMxwOi9fgr371q8pYr9crrlebm5th7sOHDytj7XY7zD05OSmu7dGeEq3PpcViURkbj8fFudFeldXgrG5E45/Vqyg3m6/R92ZzMtonX716Febu7+9Xxv7iX/yLYe6PfvSjlVK//vWvi783ikffk827ly9fhrmnp6dFz81qQ7Z+oxqb7QuffvppZWxtba24Tn755ZfF8/mnP/1pmPv8+fPiNRj1c9ZXUW2Ianc2/ufn58X16vr6urifs/Pz5eVlcW1fXV19K/2crf2ojmZtfvPmTdH56a77YDQO2b8Xotys5kRrZXd3N8zNahIA/JD5BSEAAAAAAADUiAtCAAAAAAAAqBEXhAAAAAAAAFAjLggBAAAAAACgRlwQAgAAAAAAQI24IAQAAAAAAIAaab3rBgDwwzEejytja2trYe58Pq+MDQaDMDeKb2xshLmdTqcytrW1FeZ+8sknlbHRaBTmHhwcFPVF9r3b29thbr/fr4zd3NyslNrd3Q3jq6urxX2VPbtO66jVio9um5ubK++bdrtdGbu9vQ1zLy4uKmOvXr0Kc7/++uvK2BdffFE8J7PcR48eFY/vyclJZWw6nYa5UTxan1ndyEQ1+PHjx2Fu1K7r6+swdzgcFq2xpclkUrRnLM1ms+IxWiwWRbGlZrNZ9D1LjUajaH1msn6O5nu32y2ek9EYLJ2fnxfFlp4+fVo055a+++674jGK6lmWG50LsvPG5eVl8d791VdfFcWytZKtwSg3O08eHR0V1+c/+ZM/qYz9+Mc/DnOjZ+/v7xevhWxORnUlW/t7e3vFc/LevXtF+/rSr371q+K++uCDD4rnVdQf0dq+6/k6enb2vdG+kO1H0f6b5Ubj3+v1wtyo9h8fHxevo6gvsnb9l//lfxnm/nv/3r8XxgHgN51fEAIAAAAAAECNuCAEAAAAAACAGnFBCAAAAAAAADXighAAAAAAAABqxAUhAAAAAAAA1IgLQgAAAAAAAKgRF4QAAAAAAABQI6133QAAfjj+xt/4G5Wx/+Q/+U/C3NFoVBlbLBZh7u7ubmXs5uYmzD06OqqMdTqdMHc2m1XGDg8Pw9ydnZ2i2NJ0Oq2Mra7Gf/vTalVv/aenp2HufD6vjK2vrxfnbm9vh7l10+v1Vt430fhmc7L0uUvD4bAydnZ2FuZ+9dVXRXUhWytZ3dja2ir6nqWXL18Wvzdao1Fd+D41OPLhhx9Wxh49ehTm/uIXv6iMtdvtMDeKZ7nRGszGKOrLrB+jdkV1P9NsNotzo31uaTwev5W+ajQaxe3K6sb5+Xll7Je//GWY++DBg+J59erVq6I2Zf383XffhbnX19eVsW63G+Zm4xC5urqqjF1eXhZ/b7anrK2tFbUp66vsnBO9N6pl2ZkxqxtRm7O1EO0b2dhHcyfr5+hsvr+/H+Y+e/bsrZyBb29vw9yonkX/hlnq9/vF/16IakM2vnepk9E3ZX0Vrd9s7R8cHBS3OVor2RkpavPJyUmYCwDvO78gBAAAAAAAgBpxQQgAAAAAAAA14oIQAAAAAAAAasQFIQAAAAAAANSIC0IAAAAAAACoEReEAAAAAAAAUCOtd90AAH44/q1/69+qjPV6vTD35uamMtZoNMLcKD6fz8PcwWBQGXv58mWYe3l5WRn7yU9+Eub++Mc/roxtbW2Fuaurq0WxzM7OThifTCaVsU6nU/xevr9sPk+n03cyRneZd5HZbBbGj4+PK2Nv3rwJc09OTipji8UizL29va2MXVxchLnD4bAy1mw2w9zr6+vKWLvdXil17969MP7BBx9Uxvb29sLcg4ODytjp6WlxX92/f7+4Pke1LOvn0WgU5kb1O5tX0feur6+HudEee3Z2Vlw3svdGa7/f74e50ZzN+ioaw/F4XNzmL7/8Msx9/Phx8VklqlfRGej71IbSWheNfTYnM9H4R2ssq/1ZrYvWfhTL6ne2/0a1IcuN6kZ2Nouene2h0fiura2FudEazdoc7c9Zmzc2NorbfHV1VbSvZ2eo7AwUxbOzSiT7d0pUJ1ut+L8Co/7Ivjcao8yvfvWr4joZzbvz8/MwN6qF2V721/7aX6uM/d7v/V6YCwC/CfyCEAAAAAAAAGrEBSEAAAAAAADUiAtCAAAAAAAAqBEXhAAAAAAAAFAjLggBAAAAAACgRlwQAgAAAAAAQI24IAQAAAAAAIAaab3rBgDww/EP/sE/qIz9K//KvxLmrq2tVcZms1mYu1gsKmN7e3th7unpaWXs+Pg4zL26uqqMra7Gf4NzeXlZGXv8+HGY+7Of/ayoHzNZm7vdbtEYLDUajeJ28f3H6Ifm9vY2jL948aIy9vz58zD3/Py8MjadTsPc+XxeGdvY2AhzP/jgg8rY5uZmmPvtt98W1bKl0WhUGev3+2Hu06dPK2MHBwdh7q9+9auiNmWyMYpq4cnJSZjbbDaLYtk3ZXUw+qZozi0Nh8Oi2NL29nZlbDweF/dzth9F33Rzc7NSKhujaL5n7/3yyy8rY1tbW2HuYDCojF1fX6+Uyvr58PCw+NlRm1++fFn83PX19TAezbtOp1P83mx8oxqcrcHo2fv7+2FutG9k4xudkbOzWTS+2X4UPTurG+12u7g+R32ZnZGiMcz6eTKZVMZevXoV5kb9kf0b5/79+5Wxs7Oz4n+nPHjwIMy9uLgo+vdANobR92TxN2/eFO+h2fhGczJbC9F5EgDeB/X6XyYAAAAAAACoOReEAAAAAAAAUCMuCAEAAAAAAKBGXBACAAAAAABAjbggBAAAAAAAgBpxQQgAAAAAAAA10nrXDQCgHv74j/84jP+lv/SXKmOj0SjMHQwGlbHJZBLmrq5W/61Mu90Oc9fW1ipj19fXYe6f/MmfVMa+/fbbMDfqjydPnoS56+vrlbF79+6tlJrNZmG81XLk+P9Cp9Mpzr29vS2a65lsDUbr7OzsLMy9vLwsnpPRWri6ulop1ev1Vt6WqF5tbGyEuY8ePXordePrr78Oc4+OjoprznQ6LYotNZvNythwOAxzo7lzl/m8vb0d5mZ7XeT09LRobWdz9ptvvglzP/vss8rY/fv3i+fGfD4Pc7Pxj4zH48rY5uZm8bzK9v3om7J6FVksFsW5v/Vbv1U8N/7hP/yHxWP0+PHjMDeqwdnciMa32+2ulMreG41DNG+yvTs642bnq+xMEPVHthai/Sjbu6O1Ej03O49k743mZPa9UR29uLgIcw8ODorHKNpzor156auvvqqMPXz4sHhu3NzcFM/J7N8D0fhn743mVdZXe3t7xfv+7/3e74VxAPhN5xeEAAAAAAAAUCMuCAEAAAAAAKBGXBACAAAAAABAjbggBAAAAAAAgBpxQQgAAAAAAAA14oIQAAAAAAAAasQFIQAAAAAAANRI6103AIB6+Pt//++H8d/+7d+ujI3H4zB3sVhUxra3t8Pcy8vLythkMglzB4NBZWx1Nf4bnOjZw+EwzP1H/+gfVcYODw/D3M8++6wy9ujRozD34cOHxd+7v78fxvl+srXQbrcrY9PpNMxdW1tbeRtarfi4GbUrWwvROup0OmFutFb6/f5KqazN33zzTfE6aTabRWt76fPPP6+M3b9/P8w9OzsrqoPZvMr6qtfrFc/n2WxWtE6yZ2e5W1tblbHb29swd319vTJ2dXUV5v7xH/9x8RqM1kq2h+7u7hbXlGjfiPb1pUajUTRvlubzefF8Ho1GRW36PnMnEvXH9fV18frNcn/nd36nMvbxxx+Huc+fPy/ey7rdbvF8jvaFrG6Ujn02vlluNCdfvnwZ5kb7RraOonq1ublZfH7Oxjeqz9l5Mnp21ubovVHs+9SGyOPHj4vrVbQWspoT1fZs/436I/v3UTSvsvF9/fp1ZWxnZ2elVPa9UV+enJwUvxcA3gd+QQgAAAAAAAA14oIQAAAAAAAAasQFIQAAAAAAANSIC0IAAAAAAACoEReEAAAAAAAAUCMuCAEAAAAAAKBGWu+6AQCw9OrVq8rY/v5+mDuZTIrfe3t7Wxm7uLgIc3u9XmVsY2OjuE3z+TyMD4fDytibN2+K3/vrX/86jD9+/Lgytr6+Xpz75MmTMHdtbS2M10mn0wnj4/G4eF612+3idk2n08pYq9UqbvPNzU2Ye3R0VBl7/fp1mDsYDIrW2FK32y3u52itbG9vh7m7u7uVsadPn4a50bOzunF2dla8PqPxj8ZgqdlsFtf9qF3R+GWiup/JvvcXv/hFZezq6irMjcbw888/L54bm5ubYW6/3y9u87uq7VG9yvbuqDZk3xPVurfZV6urq8Xv/fbbb4vXYFS/R6NRcd3I1m80RtEYZH0V1aOl2WxWvJdF78325qgmnZ+fh7nRs6N1snR9fV08N6J4tocuFovK2M7OTpgb9UfWz9G8y3KjOpr11SeffFIZ+9M//dN3Mr7ZvhCdVbO+ivbJaJ0sNRqNlVLROvrmm2+KnwsA7wO/IAQAAAAAAIAacUEIAAAAAAAANeKCEAAAAAAAAGrEBSEAAAAAAADUiAtCAAAAAAAAqBEXhAAAAAAAAFAjLggBAAAAAACgRlrvugEAsPT3/t7fq4z97b/9t8Pc+XxeGRsMBmHu5uZmZazZbIa5k8lkpVS73S5+bqtVvX1fXV2FudPptOi5S8PhsDLW7/fD3JcvXxbFlj755JPK2L1798LcTqdTPL7vo2wMS81ms5V3IVon2RhGcz2bz7e3t2Hu9fV10ZxbevToUWWs2+2GuU+ePKmMffTRR2FutM7uUjdGo1GY2+v1KmPr6+vF8+7m5qZ4bmTzOZp3i8WieG7s7++Huf/r//q/FvdVtJdtb28Xf2+0Tu7aV41Go7jN0fi+evUqzI3GP6s5R0dHlbGHDx8Wr4VsTmZ9WdrP2fj+6le/Kq51UW3Ivifay7I6Gclq++rqanFuNHey/Siys7MTxi8uLornVfTs7CwarcFsjKL6ne0pdzkDra2tFbUpE63tpcePH1fGnj9/HuYeHx8Xr6PsjFzal1k/R2shWmPZWSUbo6dPnxaPUbQWsjoJAO87vyAEAAAAAACAGnFBCAAAAAAAADXighAAAAAAAABqxAUhAAAAAAAA1IgLQgAAAAAAAKgRF4QAAAAAAABQI6133QAAyFxcXITxDz74oDI2Go3C3GazWRkbDodh7mw2q4xNp9Mwd3V1tahNWW673V4plb33/Py8uK+Oj48rY8+ePQtzv/3228rYZ599FuZ+/PHHxX3VaDQqY/v7+yu/iW5vb4vHt9/vF+feRbRGX79+Hea+ePGiaJ1kxuNxGF8sFpWxbrcb5q6trVXGPvzwwzD3yZMnlbFWKz7WX19fF6/faC1E35PNncvLyzA3GsPJZBLmnp6eVsYePXpUvI4Gg0Fxm6M2LW1tbRXPyWje3dzchLn37t2rjPV6veLvjfbIbJ/M3hs9O5vP0fdm8+ouZ4a71NhoDLO1H43RfD4vPn9lYxS1K6vPGxsbRfU3m1fZmTD6pqzNnU6neF+I5nNUf7PasL6+HuZG7cq+N6r9UQ3N5ka2Bjc3N4vXUdTP0XOz80i2FqJ4dp6M5mw057L4q1evwtyonmXrKDp7b29vh7nRGB4cHBTP57vMjf/uv/vvwlwAeN/5BSEAAAAAAADUiAtCAAAAAAAAqBEXhAAAAAAAAFAjLggBAAAAAACgRlwQAgAAAAAAQI24IAQAAAAAAIAacUEIAAAAAAAANdJ61w0AgMzXX38dxp88eVIZGwwGYe7u7m5lrNlshrnj8bgy1u12w9zs2ZHr6+vKWKfTCXNbreqtfzQaFbd5Pp+HuZeXl0X9mMWn02mYe3t7Wxm7f/9+mLu/v1/83qif36aNjY3K2NXVVXE/NxqNMLfdbq+U2t7eLu7nZ8+eVcYePXoU5q6trb2V9fv48eMw9+nTp5WxDz/8MMyN1uhwOFx5W6L5vLoa/73hbDYrnpPr6+srpSaTyVupv1k/9/v9yliv1wtzP/7448rYL3/5y+Ixusv6zER7bFY37lLb7/JNUW3Pxjfa646Pj4vHaGtrK8w9Pz+vjC0Wi+I2Z2shGodsjKLzSFQXsrNZVPezOpmtwaieZbXu5uamMvbgwYPivsrGKKqj2Zlwc3Oz+HsvLi6K10J0Joz25uybonWy9Pz586K+yM6T2b6f1cJItr5La050Xszmc7b2o30wG99ojWZzMqrf2ZkwmzsA8EPmF4QAAAAAAABQIy4IAQAAAAAAoEZcEAIAAAAAAECNuCAEAAAAAACAGnFBCAAAAAAAADXighAAAAAAAABqpPWuGwAAmf/hf/gfwvi/8C/8C5WxVive6m5vbytje3t7Ye6LFy8qY4vFIsxtNBqVsdlsFuaOx+OiWNauqE2Z+Xxe/N4sdzqdVsaOjo7C3OfPn1fGHj16FOZ+/PHHlbHT09Mw9/Hjx5Wxfr8f5na73ZW3IZsb0Thsb2+vvC2rq9V/r7a2thbm9nq9ytgf/dEfhbnR+v7kk09WSj19+jSMf/rpp5Wxra2tMPfNmzfF4xvVwqxORv08HA7D3GazWbz2b25uKmPtdjvMPTg4KO6rqM1RX2R7SraOotqfvXd3d7e4tkfjkO1l0frNxih6dvTcLLfT6RTvKdlaGI1GRW1a+vDDDytjl5eXYe4/+2f/rDI2mUyK95RsP4q+N+rHLDd7b1QLs5oTre9sfLPaEFlfX6+MPXnypLjmDAaDMDeKb25uhrlRf5ycnBTXjayfo7mTtTka/2jOZeMQ7TdLDx48KP73wsXFRWUs2jOyfs720Kg/NjY2iudkVuui+KtXr97a+o322Gz//dM//dMwDgA/ZH5BCAAAAAAAADXighAAAAAAAABqxAUhAAAAAAAA1IgLQgAAAAAAAKgRF4QAAAAAAABQIy4IAQAAAAAAoEZcEAIAAAAAAECNtN51AwDgrr744ovK2G//9m+HuUdHR5WxyWQS5vZ6vcrY6mr8Nzij0agyNhwOw9yNjY2VUuPxuOh7ll68eFEZ29nZCXN3d3crY9fX12Hu5eVlZWyxWBR/75dffhnmXlxcVMY+/PDDMDca/w8++CDM7Xa7K6WiORv1xVKz2Vz5TZO1eTabVcbW19fD3E8++aQydnBwUNyuzz77rHgt3NzchLmDwaAydn5+HuZGayV7b+lzlzqdTmWs3W6HuY1GoyiWzY2o/i71+/3K2Pb2dpgbPTtbY9k3RaK+zGpKVPujvshqXfY9Ub1qtVrFudm8itZvNkZ3mVfR3p6dGabT6UqpqK/29/eL50a0N2f9kY1vtP9monk3n8+L61k2N6J94+nTp2Hu2tpa8RkpGt9sH4zWQrb/RnMy2quWtra2KmPfffddmHt4eFg8r6Lxvbq6CnOjZ2f/XojWSjZGZ2dnxTU2Goestkftyv6dEq3fbG1HNSfrq2he/Yf/4X8Y5gJAnfkFIQAAAAAAANSIC0IAAAAAAACoEReEAAAAAAAAUCMuCAEAAAAAAKBGXBACAAAAAABAjbggBAAAAAAAgBppvesGAMBd/Tf/zX9TGfut3/qtMHdtba0ydnNzE+YOh8PK2GAwCHO73W5RbGk+n1fGGo1GmHt+fl4Z29vbC3MfP35cGbu9vQ1zZ7NZce54PK6MtdvtlVKTySSMn5ycFH3P0mKxqIw1m80wNxr/Xq8X5p6enha1aWl9fX3lN83Z2VkY7/f7lbGf/exnYe6DBw+K50Y0Dtvb22FuVFei9bk0Go2K6kK2VrJ5FdW6rOZsbGxUxu7duxfmRnU0atPS9fV1Zezg4GClVLb2o3oVtWlpc3OzeIyi8Y2em+Vm8/ni4qJ4H4xqTrYWojZH+3q2VqbTafH3ZnUj8vnnn4fxV69eVcZev35dPGezORnJ9pRor4tqd7aXZXtoNIatVvzfH6urq8VnwqjW7e7uhrlRu7I5GcWzNRjVhqzWRfMuO9dFaz+rdffv3y8+E0ZrNDtvRP2R7YPRWtna2gpzr66uitdRNJ+j5y7t7++/lTWYzedoHWXr9y7/JgCAOvMLQgAAAAAAAKgRF4QAAAAAAABQIy4IAQAAAAAAoEZcEAIAAAAAAECNuCAEAAAAAACAGnFBCAAAAAAAADXighAAAAAAAABqpPWuGwAAb9Nf/+t/PYz/7b/9tytjnU4nzD06OqqMNRqNMHc+n1fG2u12mLu6Wv33PbPZLMzt9/uVscFgEOZub29XxsbjcZgbxdfW1sLcm5ubythoNApzW61W8fdeX19Xxm5vb4tzs/GdTCaVsZ/97Gdh7vr6emXs9PQ0zL28vCyaN99nDEv91m/9VhiP1mjWpmgc9vb2wtyLi4uifszmxnQ6DXOj9Z2t/UjWV9HcydZC1JfZWojWfiZaR1dXV2Fu1K6NjY0wN4pn4/vo0aPK2Ndffx3mfvXVV5WxBw8ehLndbrcyNhwOw9yojma5+/v7lbGDg4MwN5p30RrL9t9ms1k8r6LnLh0fHxfXuidPnlTGXr58WbwvZOs3GsNo3mT7b9ZX5+fnxft+VM+yvSz63qzN0XzOat3z588rY69evQpzNzc3i8coOk9mcyM610VtyvbQbO1HNTY710Xjm43RBx98UBk7PDwMc6O6cnJyUpybtfkuYxT1c7YW3rx5UzT22TrK1n62TwIAfz6/IAQAAAAAAIAacUEIAAAAAAAANeKCEAAAAAAAAGrEBSEAAAAAAADUiAtCAAAAAAAAqBEXhAAAAAAAAFAjrXfdAAB4ly4vLytjnU4nzL2+vq6MbWxshLnHx8eVsYODgzD38PCwMnZzcxPmLhaL4tyozePxOMxtNBqVse3t7TB3NptVxiaTSZi7urpaFMvGP8v99ttvK2PT6TTMjcZhf38/zF1fXy+ez9E3XV1dhblra2srb8Nf/st/OYw/evSoMvbdd9+FudG8m8/nYe6bN28qY8PhMMw9Ojoqnhvdbre45kS5g8EgzI3WWbYWon6O6kLWV1lu9N5svkZrJaqhWT9nfRWt39evX4e5jx8/rox99tlnYW5Uv09PT8PcaK1kYxStla2trTA3evZoNApzLy4uKmO9Xi/MjeLZ2j8/P6+M/cmf/EmY+xf+wl+ojL148SLMjeJZm6O13+/3w9ydnZ3i/Sgao2xuRGshO+dENTjab5aePHlSGXvw4EHxe7Pz1ebmZtFzs70sq5MPHz6sjDWbzTD39va2uE6W1t+lV69eFX9v1M/ZHhqd21++fFm8jqJ/w2TrN/qepXa7XXQuz2Q1Nmpz1s9R3QAAqvkFIQAAAAAAANSIC0IAAAAAAACoEReEAAAAAAAAUCMuCAEAAAAAAKBGXBACAAAAAABAjbggBAAAAAAAgBpxQQgAAAAAAAA10nrXDQCAd+k//U//08rYX/trfy3M7fV6lbHT09Mwt9FoVMY+++yzMHc4HFbGBoNBmLtYLCpjGxsbK6VWV+O/OZpMJpWxTqcT5q6trRU9N4tPp9MwN4qvr68Xz42Tk5Mw9+c//3llbHNzM8z99NNPi9v8tsa33W4Xvzfqx6Xd3d3K2M3NTZjb7XaLc+fzedEaWzo/P6+MtVrx0fz+/ftF6ySrG9l79/b2KmPj8bh47tze3oa5UV9mtS5av1nNiebd9fV1cZuz743e22w2w9xozm5tbYW5r169Kn5vtBay3Eg2r6JamNWNo6Ojytjl5WWY+8knnxStsaxdUV3Iauy/+q/+q2HuP/gH/6B4PkdnlaxubG9vV8YuLi7C3J2dncrYxx9/XJz7xRdfFNerf+6f++fC3I8++qgydnx8HOb+8pe/XCnV7/eL97Jo/A8PD8Pc6MyYrYUHDx4Ur4XRaPRW6lU0X7N+js4TmWwdRXtZ9m+NaC3c5VyX1Y1oT9nf3y+u/VE9uuueAwB15heEAAAAAAAAUCMuCAEAAAAAAKBGXBACAAAAAABAjbggBAAAAAAAgBpxQQgAAAAAAAA14oIQAAAAAAAAaqT1rhsAAL+pfu/3fi+M/92/+3crY6enp2HubDarjJ2cnIS5V1dXK2/DYrEI46PRqDI2n8/D3GazWRlrteLjyGQyqYxNp9Mwt9vtrryN/sje2263K2PD4TDMPTs7q4z92Z/9WZgbjcP9+/fD3AcPHlTGNjY2wtzom6K+yGRzfXV1tXiMonnX6XTC3MFgUBm7vr4OcxuNRlGbsrWQzavb29vi743i0Rhkbb64uAhzo/7I3pv1Zem8W19fL66TmeibPvvsszC33+8Xr4VINq+i7836KtoHs7lxl5oTvTdrcySbk1F8e3u7eB198sknYe6/8W/8G5Wxf/SP/lGYe3l5Wbyn7OzsFNecR48eFY9R1FeHh4fFdTLaI7N98uXLl8X7wuPHj4vPOdl5MhqHqB+XxuNx8T4YrdFsLfR6veKzd1QLs36O2ry/v1/cV9laiMYhqznR3Mj2yCie7QuR7N8L0bN3d3fD3PPz8+J2AUCd+QUhAAAAAAAA1IgLQgAAAAAAAKgRF4QAAAAAAABQIy4IAQAAAAAAoEZcEAIAAAAAAECNuCAEAAAAAACAGnFBCAAAAAAAADXSetcNAID3Vb/fr4xtb2+HuVdXV5WxN2/ehLndbrcy1ul0wtzFYlEZu729XSm1trZWnDuZTIpzp9NpcV+12+3ids1mszD3/Py8MjYej8PcjY2NytjLly/D3Pl8XhkbDofFuc1mM8x98OBBcT9HczYav6zNUWxpNBoV99Vd1mCUG9WU7JtarVbxe7O+isY/WwvRGs3WQtSXm5ubxeP76tWr4jWYvTfq52w+R/NufX19pVQ2vtG8u7m5CXMHg0Fxm6P+2NraKp5X2Z4S9fPh4WGYe319XRlbXV0t3iejvXnpq6++qoydnZ2FuT/5yU8qY7/7u78b5v76178urnVRTcrWUbRvvH79unjtP3z4MMz9/PPPK2M//elPV0plaz+qOdn6jeZztndHY5idN6Ixuku92tvbC+PRvhGtk+x7szZH5/Zvv/02zI3q2cHBQZh7eXlZ9NysfkdzLpt3FxcXYW5pm5b29/crY71eL8x99uxZcbsAoM78ghAAAAAAAABqxAUhAAAAAAAA1IgLQgAAAAAAAKgRF4QAAAAAAABQIy4IAQAAAAAAoEZcEAIAAAAAAECNtN51AwDgfXV9fV0Z63a7Ye7R0VFlrNPphLmNRqMyNplMwtzV1eq/DZrP52Fuu92ujLVa8ZHi6uqqMjYYDMLce/fuVcaOj4/D3Jubm8rY5ubmSqmoH5d6vV5lbDabFb/38vKyeIz6/X6Yu76+Xhnb29sLcxeLRWVsOByGudG8i9qUzbuNjY0w9+XLl5WxN2/ehLlR/Pb2NsydTqeVsWazWTzvorqQjUO0TrJxiOrg0u7ubvEYRXUjqznRGEXrc+mzzz4rrpPR+o7WZ/bs8Xgc5kb7RjTnlk5OTora9H2+KRJ909bWVpgbzZ1obWfrLKvP0TrL+jkbw0g037Mae35+Xhn7i3/xL4a5//K//C9Xxv63/+1/K16DH374YZj71VdfvZW9+2c/+1kY/7f/7X+7uMb+/u//fnGdjPbn7Huj/TerdWdnZ8Xnq2hfiGpodlbNzrEXFxfF+8Knn35afK5bW1srbnM0/tH6zObd9vZ28Zkxq0fR+s3O7aXzdemjjz6qjP3BH/xBmPt//9//d3G7AKDO/IIQAAAAAAAAasQFIQAAAAAAANSIC0IAAAAAAACoEReEAAAAAAAAUCMuCAEAAAAAAKBGXBACAAAAAABAjbggBAAAAAAAgBppvesGAMD76te//nVl7Hd+53fC3PX19crYzc1NmDsajSpjvV4vzJ1MJpWx1dXyvxu6vb0N491utzI2Ho/D3EajURnb2toKc6fT6crbkLU5G4fSZ8/n8+Lxvby8DHO/++67ylin03lrczIao6yf2+12ZazVio+5x8fHlbHBYBDmRv2Rrd9oDIfDYZgbxbO5EcWzdRLVhqxuROOQzavZbLZSKpp32dyI6tnGxkaYG83ZtbW14veenp6GuY8ePSpqU/befr8f5kbzfbFYFOdmfRXFo7W9dHh4WFyvojmZzde77EfZGEaePXtWGfv000/D3L/6V/9qZezk5CTMjeKbm5th7vX1dWXsRz/6UZgbfdPv/u7vhrn3798vHoOoFmZnpKg+Z2s/ku0pr169KjqnZmswOhMsNZvN4r66S5u3t7eL9+5sv4pE/RHN9WytZHUyem82N7799tvivtjf3y+KZePw3//3/32YCwCU8QtCAAAAAAAAqBEXhAAAAAAAAFAjLggBAAAAAACgRlwQAgAAAAAAQI24IAQAAAAAAIAacUEIAAAAAAAANdJ61w0AgPfVf/1f/9eVsZ/97GdhbqtVvgV3u93KWKfTCXNns1nRc5fa7XZl7Pj4OMzd3t6ujG1uboa5k8lkpdTqavXfQo1GozB3PB5XxqbTaZi7sbFRGev1eitv43uWBoNBZez29rb42dm82t3dLe7naF5lfRXN57vMm0w0/s1ms3jtR3PuLm1ams/nlbHhcBjmRuOf1bKjo6PK2GKxCHP7/X5xvYpyr6+vi9uczclo/LP1e3FxURm7ubkpHqM3b968tfG9uroqXvvRGGb93Gg0isY+qw3ROslq3dbWVnFfnZychLnRnI36ItuPsvGNxuF3f/d3V0p9/fXXYfzhw4eVsZ/85Cdh7pMnT4rGL9tTXrx4EeY+f/68aJ/L9u6stkfPPjs7Kx7ftbW14jG6vLwMc6N1lq3BaJ09evQozI32umwfjOpKVp+jdZat36heZe+N6kZ2Joz6I6ux0dzJ9u4/+IM/COMAwP/7/IIQAAAAAAAAasQFIQAAAAAAANSIC0IAAAAAAACoEReEAAAAAAAAUCMuCAEAAAAAAKBGXBACAAAAAABAjbggBAAAAAAAgBppvesGAMAP0fPnz8P4w4cPK2Pn5+dh7traWmXs9PQ0zO31epWx+Xwe5k6n06I2LS0Wi8rYyclJmLu5uVkZ6/f7xW1uNBrFuVFsaTabFfXF0nA4rIytr6+HuaPRqDJ2c3MT5u7s7FTGrq6uwtzXr18XzbmlJ0+eVMa2trbC3MlkslKq0+kUr6Pb29vKWKsVH6/b7XbxGmw2m8Xvvby8LO7n6HuzvorWbxT7Pmu0dHyzdTQYDCpj4/E4zI3GIRvfbrdbVFOydmVrMGtXZHV1tbjmvK39KGpT1s/7+/thblS/z87OiutVVLuzvor2jGxuRDVl6ZtvvinaM7J1FNX9pe3t7eLc7Jsi0Tj8/Oc/D3NfvHhRXGMjWb06Ojoqqt1Ljx49Kp5X0RrN9uaoXVmbo77M5mS0X2W50X50l+/NzpPR+To7m0VrP6s5UT9ne3c0Z7/99tsw93/6n/6nMA4A/L/PLwgBAAAAAACgRlwQAgAAAAAAQI24IAQAAAAAAIAacUEIAAAAAAAANeKCEAAAAAAAAGrEBSEAAAAAAADUSOtdNwAAfoj+s//sPwvj/9V/9V9Vxr766qsw9/b2tjK2WCzC3MlkUhnrdDph7nQ6LXru0mw2K3pu9r2tVnyUWV1dLW5z1B/9fj/MbTQalbHRaBTmttvtytju7m6Ye3x8XBm7uLgIcw8ODorbfHJyUhm7d+9emDscDovmTTb+0dgvdbvdytjGxkaY++bNm8pYs9ksbvPNzU2YO5/Pi/ox68utra0wN1orvV4vzI3mTrYG19bWimtdtI6i9Zl5/fp1cZuzdfTw4cPK2P7+fph7dXVVXK/Ozs7eynzOans0htH33HUdRXN2PB6Huc+ePauMXV9fF78328u2t7eL11G0vrP5/OjRo8rY4eFhmBvN9w8//DDMjeZsNicj2ZyMxjc7m2VnqNLvjWpKNoZ3OZtldSNaK1lfRHMjqkfZWeXy8jLMjdqVzefnz58X7c3Z/pzlZt9UWjeydTQYDIrnZFQLv/jiizAXAPj/nl8QAgAAAAAAQI24IAQAAAAAAIAacUEIAAAAAAAANeKCEAAAAAAAAGrEBSEAAAAAAADUiAtCAAAAAAAAqBEXhAAAAPD/a99efizf6vrh1659rdp176rupo94uASihLkz/BtM9A8wMY6AQASSozMjOVGDEIUJkjAiMWqCjokRURMHig5UCAfo4+k+p7uruu67at/3/qUGT8yT51mfBat/TQHr9Zp+8t57fdftuzufLgAAgIq0bnsAAFCji4uLZO0973lPmP3+97+frLVa8au92Wwma5PJJMx2u91krd1uh9npdJqsra+vh9nFYpGsLZfLMLuxsZGsnZychNnV1fT/o2o0GmF2NpsVr1Gn00nWhsNhmJ3P50VrcOPy8jJZ6/V6Yfb58+fJ2g9+8IMwG63h7u5umF1bW1spFe3Z3BpdX18X7bncGkV7LrfvojHlnjca04vu59FoVHznRGchN+bc3VB65+TmOTorufMb1be2tsLs8fFx8fdGa5T73v39/WTt6uqqeK5y91X0Luv3+2F2PB4Xz9W9e/eStVdffTXMPnz4sPgcRfU7d+6E2bt37xbd+zcODw+L3/vR3smtUe6zS8/vYDAIs9H5zr0Ho/sql43uq//+7/8u3s+58xvtq+iM3Tg9PS363Fw29/sqek/m7uednZ2iMeXqubsuOmebm5thNto70f2be3c/e/YszOZ+y0S+853vJGv//M//XPy5AMDL4S8IAQAAAAAAoCIahAAAAAAAAFARDUIAAAAAAACoiAYhAAAAAAAAVESDEAAAAAAAACqiQQgAAAAAAAAVad32AACgRm+88Uay9qEPfSjM3r17N1m7vLwMs4vFIllbLpdhtt1uF31ublyrq/H/V+p0Oiulut1usra5uRlmm81msjYej8PsxsZGsjaZTF7aPEdrOJ1Ow+xgMEjWer1emD09PS16nhtbW1vJ2nw+D7PRZ49Go5VSuXmO5M5gtA65vR6t7/X1dZiNPjs3V9F+n81mYbbVahXvyWj9c3sj+t6olquvra2F2eiZonsh9727u7th9urq6qWsUW5vROvQ7/fDbDSu4XBYvJ/v379ffEZz93O0/rn9HN1X0T2YW4fcHRs9U259ozXK3ZPRfs9lG43GSqnoeXOfG/0eiX4T5N6huTV6+vRpsnZyclI8zxcXF2H27Oys6HNzv6+i3wS5771z585L+71xfHycrJ2fn4fZ6Ddj7n0UzdX6+nqYffDgQfFvhh/84AfFv+ui9X/06FGY/bu/+7uwDgD8dPEXhAAAAAAAAFARDUIAAAAAAACoiAYhAAAAAAAAVESDEAAAAAAAACqiQQgAAAAAAAAV0SAEAAAAAACAimgQAgAAAAAAQEVatz0AAKjRl770pWTts5/9bJjd3d1N1kajUZidzWbJWrvdLs5OJpMw22w2k7XFYhFmV1fT/5/p+vo6zO7s7BTNY25cuedtNBrJ2sbGRvE854zH4+K9MRwOV16GwWAQ1t96663iMd27dy9Zu7q6Kp7naM/d6PV6xd8bfXan0yle3+iMveh+vry8TNbW1tbC7MHBQbL29OnTMDufz1dehmgec3OV2xvL5bL4eU5PT4vXqNvtJmvT6XSlVO5+juq5543G1e/3w+z29nbR5/4ozxSJ7qRnz56F2eh9lTtH0fs5l724uCgaU+7+zs1jdCdFd2hOdB/l3r+5c3R2dlb8vdF8RGf7xtHRUdHZzt05ufdCdJ+dn5+H2eizo3nM/Q7K7efovX///v0w+4//+I9FY7qxublZPM/Rfm+1WsXZd955J8xGa5ibq7fffjtZ++u//uswCwD8bPEXhAAAAAAAAFARDUIAAAAAAACoiAYhAAAAAAAAVESDEAAAAAAAACqiQQgAAAAAAAAV0SAEAAAAAACAirRuewAAwP/b7/3e74X1P/mTP0nWms1mmL26ukrWGo1GmB2NRsna+vp6mN3Y2EjWBoNBmG210j9XhsNhmI3G1e12w+x4PE7W5vN5mH377beTtXe9611httfrFa1Bzos8b+57d3d3i7OHh4fJ2vX1dZiN6rk9GZ2VxWIRZtvtdrK2uhr//7vcGS3N5s5vNFe55432xtbWVpjd29tL1p49exZmo71z586d4jXKnd+1tbVkbblcFo85d19tb28XrUFu/aPnyd3B0f2bu6/Ozs7C7P7+fvE8R3fsbDYLs5PJpHiuonXIncF+v/9S9mT0PC969kvv/R/lbih1fn4e1qO7/+nTp2H28vKyeI2ivZE7v9Fn594ZnU6neA2i34TRfs29u4+OjsLse97znuL9HM1H7o69e/du8W+z6JmiNcj9Loh+H+fu59w8R+/f3G+zv/zLvwzrAMDPD39BCAAAAAAAABXRIAQAAAAAAICKaBACAAAAAABARTQIAQAAAAAAoCIahAAAAAAAAFARDUIAAAAAAACoiAYhAAAAAAAAVKR12wMAAH48z549S9bW1tbC7OXlZbLWbrfDbFRfLpdhttFoJGu9Xi/MRp+9uhr/X6eTk5NkbX19PcxG4+r3+8XzPJlMwmzumUrXqNvtFs/z8+fPw2w0l7nnub6+Lp6rwWCQrB0cHBSPeTweh9lWq1V8BqN5zp2FaK5ms9lKqdzzvqx9lRM9b25fbW5uJmudTifMLhaLZO38/DzMjkaj4vWN7pXoTsmtUe55S8eU8yLfOxwOw3p0N8zn8+JstG9yZyW3109PT5O1vb29MLuzs1N0TnL7Offej8aVO4PRez8nt4aRo6OjotqNq6urolquPp1Oi89Kbp6jeu4MRucsd/Zz743S9Y3u0NxdmLsno+/94Q9/WPx740XOb86L/I6Nfo9885vfLB4TAPDzxV8QAgAAAAAAQEU0CAEAAAAAAKAiGoQAAAAAAABQEQ1CAAAAAAAAqIgGIQAAAAAAAFREgxAAAAAAAAAq0rrtAQAAP54//MM/TNY+85nPhNlOp5OsPX78OMy+973vTdbG43GYnU6nydrW1laYPTk5SdaazeZKqevr67B+dXWVrI1GozDbarWKPvdHmcvI6upq8Vw1Go3iMUdrdPfu3TC7XC6L9k3OkydPwvr29nbx+rbb7aLajclkUrRvcmPOPW/kRcacW6OLi4tkrdfrFY/r7OwszEafHe313PpHc5E7g1Et99nn5+dhdnNzs+jez+n3+2H98PCw6F7I1e/fvx9m19fXi793sVgUr+9sNis+R3t7e0Xrl/ve6Hly2dyds7+/X3x+5/N58fdG99mzZ8/CbHQ3DAaDMBt99uXlZfGezO2r6E7qdrthNnq3R+/X3J6N7u7cffbud7+7eMy5/TwcDldehuh83jg4OCgec/Q7KPc8L/IO/cEPfpCs/eu//muYBQDq4S8IAQAAAAAAoCIahAAAAAAAAFARDUIAAAAAAACoiAYhAAAAAAAAVESDEAAAAAAAACqiQQgAAAAAAAAV0SAEAAAAAACAirRuewAAwP89f/RHfxTWX3vttWRtfX09zB4fHydr+/v7YXY4HCZr7XY7zHa73WRtMpmE2fl8XpxdW1tL1hqNRvHzrq6uFj/vcrkMs9FndzqdMDsajVZKXV5eJmv9fj/MtlqtonnM1XPPG1ksFsVjzq3vbDZL1s7Pz8Ps7u5u0X7NrVHuDEZjzs1VVM/N1fb2dtE5ycnt9eh5Dw4Oip83d29E91U0ptzeaTabYTZa/0ePHoXZ09PT4jHfu3ev6IzduLi4KNrrubs/973RM+XOUfSefJH7+fr6uvh5NzY2wux4PC5e36urq6K9nlvDt99+O8wOBoOi2o0nT54Uv4+iZ8rNc/TZufd+9Nm5MU+n0+J78kV+I0Vyv0WjPfki5zc3zzs7O8Vjzr3rSs/R0dFRmP33f//34u8FAOrhLwgBAAAAAACgIhqEAAAAAAAAUBENQgAAAAAAAKiIBiEAAAAAAABURIMQAAAAAAAAKqJBCAAAAAAAABVp3fYAAICfnNdffz1Ze+2118Lsf/3XfyVri8UizN67dy9ZWy6XYbbdbidr8/k8zDabzaLPzX12r9crft7V1fj/Z0X1q6urlVK5572+vi4aU26uTk9Pw+z6+vpLed5o7W9cXl4WjelGq9Uqmscb4/G4qJabj62trTA7nU5fyvPm5jl6ptzZX1tbS9Zms1mYnUwmydrGxkaYjT4797yNRqP4HH3ve98r2q83PvKRjyRr/X4/zHa73WTt7bffDrPPnj1L1t773vcW35ODwaB4nnPnaDQaFe2b3N7JzXN0F+7s7ITZTqeTrD1//jzMRu+r7e3t4vfG2dlZmH3y5EnRfXTjzTffTNYODw9XSp2fnxffsbl9Fd39ub1x9+7dov2a27O530jROuTuuhe5n6M7J/dbJbd3ItG4cr9jozMYzUXuHs3tjWj9v/vd7xZ/LwDA/8NfEAIAAAAAAEBFNAgBAAAAAACgIhqEAAAAAAAAUBENQgAAAAAAAKiIBiEAAAAAAABURIMQAAAAAAAAKqJBCAAAAAAAABVp3fYAAICfDq+//npY/83f/M1krd1uh9lut5usNRqNMNvv95O1Xq8XZufzebLWbDbD7Gg0Ks7u7u4ma1dXV2F2OBwma8vlMsx2Op1kbTKZhNnxeJysbWxsFM/zxcVFmI2eKTfPUXaxWITZ6+vrorW/sbm5WbTXb6yvrydr0+k0zEZ7J7c3orOSy+bOdySayxeZq9yYDg8Pk7Wjo6Pi85vbV9Ea5e66aE+ura2F2YODg2Tt2bNnYTa6G6K9nrs3ors797y5sxDdk9F9dGNraytZW11dLc7mztHp6WnRnsvtq2gNbmxvbxfVcs90cnISZqNz9vDhwzAb1aO9nrtXLi8vw2x0vnPnN3r/5rLRuy7a67nzmzsL0b7K7Y3oLER3d+6cPX78OMxGnx2twY3ZbFb0uTcGg0Hx/Rz9Dsr9zonuwu9///thFgDgR+EvCAEAAAAAAKAiGoQAAAAAAABQEQ1CAAAAAAAAqIgGIQAAAAAAAFREgxAAAAAAAAAqokEIAAAAAAAAFWnd9gAAgJ8NOzs7xdnJZJKs9Xq9MDscDpO1xWIRZqfTabLWbrfD7Gw2S9aurq7C7HK5LPrcXHZ1Nf6/XVF9NBqF2WgdWq1W8ZijWm59d3d3w+zFxUXx966vr6+UivbdeDwu/txms1m8RrlzFK3h4eFhmI3OSqPRCLPRvuv3+2H2+vo6Wet0OmH24OAgWXvy5EnxOYr2a279c3vu3r17ydr29naYPTk5KRpTbi5z6xu9F3J3XTTmXPbp06dF+yY3l7k7NjpHue+NzsL5+XnxmPf398Ps3t5esraxsRFmnz17lqwdHR2F2bfeeitZOzs7C7Pz+bzo90SuPhgMwmy0hrn1XVtbK36HXl5eFr8XIrlzFL03ut1umM3dDZFoLnOfG435Rc7v1tZW8T0Z3Ue53wyvv/56mAUAeNn8BSEAAAAAAABURIMQAAAAAAAAKqJBCAAAAAAAABXRIAQAAAAAAICKaBACAAAAAABARTQIAQAAAAAAoCIahAAAAAAAAFCR1m0PAAD42TCfz5O1d73rXWH25OQkWRuNRmH2+vo6WVsul2G20+kka9PpNMy22+2VUtEzRWO6sVgsij43Nx/R+t3o9XrJ2nA4DLMbGxvFz3txcZGsNZvNlVK57GQyKarltFqt4vrm5maY7Xa7xfs5Wt87d+6E2cvLy5VSjUajaK/n1iGXPTg4SNbG43GYjc5Kbl/lxlW6vrm7bjabJWtra2vFY86dhej85uY5Ogu5/byzs1O0525sbW0VrUHuXZY7v9GYc+sbzUe09jlXV1dh/ezsLFl7/PhxcTZag9x8RL8Jct+bew9G79joc3N3Q+4cRWch91skOmf9fj/MRu/n6L2ee6e8yL3xIu/93O+NaJ5XV+P/Ox890+npaZjN3cEAALfJXxACAAAAAABARTQIAQAAAAAAoCIahAAAAAAAAFARDUIAAAAAAACoiAYhAAAAAAAAVESDEAAAAAAAACrSuu0BAAA/G956661k7cGDB2F2a2srWfuf//mfMDsej5O15XIZZvv9frI2m83C7OrqavH3XlxcJGt7e3thNvrsxWIRZlutVlEtZzqdhvXBYJCsra2thdmdnZ3i5+31eslap9MJs9Fn57LR3mg0GmG23W4na91uN8xG44rOyY3r6+uXsq+iNchlR6NRmN3Y2EjWhsNhmP3hD39YfH6juYz2643Nzc3iuYqeKdpzuTOam6vos3NjjvZsbk9Gn91sNsNstIa58xt9b+6ui+Yyt6+id07uLERye+P4+Lh4zOfn58na6elp8V2Xex9F48rtq6urq+K5Kv09kdt3ufWN3hvz+TzMbm9vF61BTu7sR3LfG93t0e+n3Lhy79Bo70wmk+J9FT3PjSdPnoR1AIDb5C8IAQAAAAAAoCIahAAAAAAAAFARDUIAAAAAAACoiAYhAAAAAAAAVESDEAAAAAAAACqiQQgAAAAAAAAV0SAEAAAAAACAirRuewAAwM+Gv/mbv0nWdnd3w+yv/uqvJmvL5TLMfuc730nWFotFmB0MBslao9EIs9G4Wq34J1S73U7WxuNxcXZzczPMRs+Um6vhcJis9Xq9MLu+vp6szefzMNvv95O1i4uLMBuNK7evor2RW99ms1mc7Xa7RZ97Y3U1/X/7Op1OmH3+/HnxGkX7LjfP0RpFa5Bb/9w5Oj8/T9YODg7C7GQySdaurq7C7P7+frI2Go3C7MnJSbL2yiuvFO+NnCgbnc9c/c033yye59zzzGazZO3u3bvF33t8fBxmo3G9yDsldxaieyV3P0f77vr6uvgcRXdZrh6twY3pdJqsXV5ehtnt7e3ibLS+uXmO7tGzs7Pi593b2wuza2trxc/7Ir9VovrGxkaYzc1l6VnIjTn6nXN6elr8Ds2do7//+78P6wAAt8lfEAIAAAAAAEBFNAgBAAAAAACgIhqEAAAAAAAAUBENQgAAAAAAAKiIBiEAAAAAAABURIMQAAAAAAAAKtK67QEAAD/7vvrVr4b1ZrOZrH34wx8Os/fv30/WhsNhmF0sFsnaZDIJs+12e6VUq5X+idVoNMJsp9NJ1vr9fphdXV0tft4omxPNVW6NSucxZzqdFu/Jra2tMDufz5O18XgcZmezWdHn5rI50b7LjTnak+fn52F2fX19pdT19XXxOdrb2yve69G+e5E1uLi4COsnJyfJ2vvf//4wOxgMis9RtEa585vbO5Hos3P7Znd3N1nr9XrFY7pz505Yv7q6eil3Tm5PRu+y5XIZZtfW1or3ZHQnbWxsFD9vNI+5ucy9m3N3Q+k85+7nyOnpafGYDw4Oiud5c3MzzI5Go6K5yO3Z3L0QreH29naY7Xa7xWf/8ePHxe+yy8vLZO1b3/pWmAUA+GnmLwgBAAAAAACgIhqEAAAAAAAAUBENQgAAAAAAAKiIBiEAAAAAAABURIMQAAAAAAAAKqJBCAAAAAAAABXRIAQAAAAAAICKtG57AADAz7+vfOUrydrnP//5MPvqq68ma2+++WaYbTQaydr6+nqYnc/nydpoNCr+3l6vF2ZXV9P/f2s4HIbZ/f39ZK3dbhd/73g8Ls5ub2+H2WhcuTFHazSZTMJss9lM1jY2NsJs9Nm5uRoMBsnabDYLs9HeifZc7rM7nU6YXVtbK96T19fXxXsj2s/dbjfMRud7uVyG2VYr/U+ki4uL4r1xeXn50tYomudcdrFYFGejudrc3Cy+N6I9lzu/uXkuHdOPsu9Kx5w7+9G9knunROubEz1v7hxFd1JuTFE9l43Gtbu7G2aj85173miNcusbjSv3TonqW1tbxe+jnBdZo0huniNHR0dh/fj4uPgcfetb3yoeFwDATzN/QQgAAAAAAAAV0SAEAAAAAACAimgQAgAAAAAAQEU0CAEAAAAAAKAiGoQAAAAAAABQEQ1CAAAAAAAAqEjrtgcAANTtk5/8ZFj/8pe/nKw9ePAgzD58+DBZa7fbYXY6nSZrrVb8E6rX6yVro9FopVRuzIvFouh5ctlmsxlmo2daLpdhdjweJ2vz+TzMrq2tJWudTifMXl9fF40ptw7r6+th9uLiomhMObk9ubW1laxNJpMwu7pa/n8KZ7PZS3mm3FmIvjd3FqJ7Jfc80d45OTkJs9GePTg4CLOPHj0q3pNXV1fJ2mAwKD77GxsbYfbVV18tPvvD4bB4P0efnTtHuXGV3le5s7+5uVm0frm7PbevovXNnYXo7o/GlJNbo2jf5d5H/X6/eFzR+c6dweg+i/b6jW63W/zuju6c3J58kbMQndGdnZ3iPXl+fl782yyXBQD4eeUvCAEAAAAAAKAiGoQAAAAAAABQEQ1CAAAAAAAAqIgGIQAAAAAAAFREgxAAAAAAAAAqokEIAAAAAAAAFdEgBAAAAAAAgIq0bnsAAACR3/7t307Wvv71r4fZ09PTZO3w8DDMzufzZK3X64XZZrNZnG2328nacDgsft5utxtmO51OsrZYLMJsNK7c8y6Xy2Tt+vo6zDYajWRtMpmE2aurq2RtZ2cnzG5ubhY9z421tbVk7ezsLMzOZrOiucitQ25vjEajlVLRvsrt52gNLy8vi8eUm+fos6OzfWN/f79o/W60Wul/mk2n0+I9mRtzVM+d/dK9ntt3R0dHYTYaVzSPubOQe96Li4uiz829U3JzFY0rd47u3LmTrG1tbYXZwWCwUiq6C6O5eJnv39z3vsj7KDrfuTs2eu/nzm90P0fvudxn594pq6urxWPu9/vF75toHaLPvfHFL34xrAMA1MhfEAIAAAAAAEBFNAgBAAAAAACgIhqEAAAAAAAAUBENQgAAAAAAAKiIBiEAAAAAAABURIMQAAAAAAAAKtK67QEAAJT6zne+E9Y/8pGPJGvf/va3w+yjR4+StWazGWYHg8FKqbOzs+Lv3dnZSda63W6YXS6XxdnFYpGszWaz4rmaTCZhdmtra6XUi4x5NBola+vr68Xz/PTp0+LnXV2N/9/ffD5P1jqdTvGYW63yf070+/2w3m63k7Xr6+swmzsrkWgdfuEXfqH4c3/xF38xrP/whz9M1h4/fhxmd3d3i9Yvt4a5uyw6K7k9Gd11p6enYXZtba1oLm5cXV0Vn8GNjY2iO+VGo9EonquLi4vi5717926ydnl5GWajeu6ue5EzGK1vdC/ceP78ebL2yiuvhNmTk5OVUvv7+8nadDotnqvcHRu9n6M9d2M4HL6U743OSe6s5OYq2nef//znwywAAP9f/oIQAAAAAAAAKqJBCAAAAAAAABXRIAQAAAAAAICKaBACAAAAAABARTQIAQAAAAAAoCIahAAAAAAAAFARDUIAAAAAAACoSOu2BwAAUOp3f/d3i7OvvfZaWG+328las9ks/t5Op1OcbbXin27z+TxZm06nYbbRaCRr3W43zPb7/WTt+Pg4zPZ6vaIx5Z5pbW0tzE4mk2Tt/Pw8zI5Go2Rtb28vzC4Wi+J9Fc3Hi8xVtNdzazQcDsNs9Nm5743GfHBwEGbPzs6K1iD3vNHa37i8vCx+3sFgkKy9+eabYXZ/fz9Z293dLT6/uXMUrUNub0R79s6dO2F2PB6vlIruydzzRvWrq6vi+zta+9x9lTsLpXNxY2Njo2hMN2azWdGe+1Hus0h0f+feg9EaRWcsd38/ffo0zEZ75969e8X31XK5LN7PufO7ublZvH4XFxfF2c9//vNhHQCAH4+/IAQAAAAAAICKaBACAAAAAABARTQIAQAAAAAAoCIahAAAAAAAAFARDUIAAAAAAACoiAYhAAAAAAAAVKR12wMAALgNr7/+elj/6Ec/mqxtbGyE2fl8nqwtFoswO51Ok7V2u71SqtFoFGcHg0FY393dTdb29vbC7OnpabLWasU/VZvNZrJ2cnISZmezWbK2uhr/H7rRaJSsPX/+PMxubW0la/v7+8XrEM1Fbt/lnjfa7xcXF8VjPj4+DrPRM3W73TB7dHSUrPX7/TAb7dmrq6swO5lMVkq9613vKl7f6HtzY97c3EzWDg4OwuyzZ8+Kv/f+/fvF8xjtq9z3Rvdop9Mp/t6c6D7LvVOi9Y/eGTeGw2Gytlwui++N3LtsPB4na9vb28V3bK/XC7PRGr7zzjth9gMf+EDR3Z173tx9Fd3Bufs5Woe1tbUwmxtX6X7OnZPo/fy1r32teEwAAPz4/AUhAAAAAAAAVESDEAAAAAAAACqiQQgAAAAAAAAV0SAEAAAAAACAimgQAgAAAAAAQEU0CAEAAAAAAKAiGoQAAAAAAABQkdZtDwAA4KfRF7/4xeLsxz/+8WRta2srzK6trSVrs9kszHY6nWSt3W6H2fF4nKydn5+H2dXV1aLnuTGZTIrGlJPLdrvd4uxisUjWGo1GmBtnIj8AABeKSURBVB2NRkXrd2NzczNZm8/nYTZ6ptz3TqfTZG25XIbZ3L6LRM/03e9+N8xG52xnZ6f4e6N9c+Pq6ipZe/78eZi9c+dOsnZwcBBmo7shdwbv3r2brF1cXITZhw8fFs/V0dFRsnZychJm+/1+US23RtF9lJvnXDY6Z9Ha58acu5+jcTWbzeLnje6F3N0QPU9uXMPhcKXU+vp68Zhz79/BYFD8Xuj1esXvo+iZcmfw+vq6+O6O7qTcmL/2ta+FdQAAfnL8BSEAAAAAAABURIMQAAAAAAAAKqJBCAAAAAAAABXRIAQAAAAAAICKaBACAAAAAABARTQIAQAAAAAAoCKt2x4AAMDPmz/90z8tzn7iE59I1pbLZZgdj8fJ2vr6ephdLBbJ2snJSZgdjUbJ2r1798Ls2tpa0ZhuDAaDZG02m4XZZrNZVLvRaqV/Qnc6nTA7n8+TtaurqzDb7/eTteFwGGaj+YjGdOP4+Lhoz+XmI9o3N46Ojoq/d2dnJ1mbTqdhNvrs6HNvHB4eJmvdbjfM/vIv/3Lxfr6+vk7W9vf3w2y0Dt/+9rdXSuXmKtqzuTPYbreTtclkEmZz9dKzEJ3P3Drk7rros6P7KLd3cnMRnZUXOYO5MUf7+ezsbKXU3t5eWI/GlTuDvV6veFwv8k5ZXX05/+f7H/7hH8L6P/3TP72U7wUA4CfLXxACAAAAAABARTQIAQAAAAAAoCIahAAAAAAAAFARDUIAAAAAAACoiAYhAAAAAAAAVESDEAAAAAAAACqiQQgAAAAAAAAVad32AAAA+F9f+MIXkrXf+q3fCrMf/OAHk7UnT56E2cFgkKy12+0we319nawdHh6G2V6vV/y9V1dXydp8Pg+zi8UiWWu1yn8ir67G//8uGtfz58/D7Pb2drJ2586dMButQzSPN8bjcdH63VhbW0vWLi8vw2y0/hsbG2F2MpkU1W50u91kbblchtloLnPZ6XSarJ2dnYXZV155pfh7v/3tbxefo/v37xetfW7vnJ+fF+/JnGg+cmc/Omfve9/7iu+ck5OT4u/NrVHk6OgorDcajWRtZ2cnzHY6neKzH52j3FnY2toqquXuldw9Gd0bL/Le6Pf7YTZa/9w9Gb2733rrrTALAMDPB39BCAAAAAAAABXRIAQAAAAAAICKaBACAAAAAABARTQIAQAAAAAAoCIahAAAAAAAAFARDUIAAAAAAACoSOu2BwAAwI/mK1/5Slj/xCc+kazt7OyE2cvLy2St1+uF2cVikaxdXV2F2eizW634p+rqavr/um1tbYXZzc3Norm4MR6Pk7Xt7e3ibLPZLJ7n0WgUZtfX15O1brcbZs/OzorHvFwui9YgN67c3ri4uCiq5ca1sbGxUio35mjv5M5gNM+Hh4fF2U6nE2aHw2Hx3phMJsnayclJ8X7OzVWj0Si+Jx88eJCszefzMPvmm28ma3fv3g2z0T2a+95oz0ZzcaPdbhdno/XNZaN6bn1fffXVZO3OnTvFY86J1ih3b0TPFN37uXsj9zzf/e53k7W33norzAIA8PPBXxACAAAAAABARTQIAQAAAAAAoCIahAAAAAAAAFARDUIAAAAAAACoiAYhAAAAAAAAVESDEAAAAAAAACqiQQgAAAAAAAAVad32AAAA+L/jC1/4QrL2sY99LMzu7e0la1dXV2F2dTX9f84Wi8VKqdlsVjzm8XgcZqNn6vV6K6WGw2FYj+aj0+mE2efPnydrGxsbYfZ973tfsnZ8fBxmB4NB8Rq1Wul/biyXyzC7u7ubrM3n8+L1zY252Wwma+12O8xeXl4ma+9+97vD7NbWVvEaPXz4MFkbjUZhdnt7O1mbTCZhNqrn1rf0bL/oGd3Z2Smq5fbdyclJ8dk/OjoKs6enp0X7Jrffc+eo2+0W76uoHt0Lue/d3NwMs3fu3Cl+L5yfnydrjUZjpVTubo/OUe55o7n6z//8zzD79a9/PawDAPDzz18QAgAAAAAAQEU0CAEAAAAAAKAiGoQAAAAAAABQEQ1CAAAAAAAAqIgGIQAAAAAAAFREgxAAAAAAAAAq0lhZWVne9iAAALhdn/70p5O1VqsVZgeDQbI2Go3C7Gw2S9a2trbC7Pr6erI2HA6Lv3cymYTZqH51dRVmV1fT/z+v2+2G2cVikazt7OyE2c3NzeLvPT8/T9aePn0aZnu9XrLW6XTCbLT+0VzcuL6+Ll7f0rm4cXp6mqx98IMfDLMHBwfJ2nw+D7PRvjs+Pg6z/X4/rJd+b+5zozUcj8dhNtrv0Z7LjavRuPnncdrjx4+Lzlhuro6OjsJsdEZz93P0TLlztFwui7PT6XSlVLRG+/v7xXd7dC/ksrn1jdYot6+azWbxOXr48GGy9ud//udhFgAA/AUhAAAAAAAAVESDEAAAAAAAACqiQQgAAAAAAAAV0SAEAAAAAACAimgQAgAAAAAAQEU0CAEAAAAAAKAiGoQAAAAAAABQkdZtDwAAgNv3x3/8x8XZj33sY8nazs5OmL28vEzWJpNJmF1dTf9ft/l8Hmb7/X6yNh6Pw2yv1yuq3RgOh8naaDQKs9EzRfOYm6utra0wGz3TYrEIs9EaRmO6cXp6mqw1Go0wu7Gxkay12+0w++jRo2Tt7OwszHa73WRtuVyG2WgNc/sqWofZbFa8r3LrG9Vz5yjaG+vr62F2bW2t+BxFY87tq+izc/McfW+z2Qyz19fXRXsu90y5OzYa1+bmZpiN9ux0Og2z73vf+4rP0RtvvJGstVqt4vdCbo2iz86d3+hO+o//+I8w+xd/8RdhHQAAIv6CEAAAAAAAACqiQQgAAAAAAAAV0SAEAAAAAACAimgQAgAAAAAAQEU0CAEAAAAAAKAiGoQAAAAAAABQkcbKysrytgcBAECdPvrRjyZrzWYzzPZ6vWTt2bNnYbbRuPkZ/P9vf38/zA4Gg5VSrVYrWTs6Ogqz5+fnydre3l6YvX//ftFc3JjP50W1G6enp8nadDoNs9E6DIfDlVKXl5dh/Xvf+16ytrGxUbwnHzx4EGbf+973Fq39jfF4nKydnZ0V78nc8y4Wi5dyBj/84Q+vlHrjjTfC+u7ubtHz3Dg+Pk7W2u12mO10OsnabDYLs5PJpPj8jkajZK3f74fZnZ2dlVLRGY3OSe7sX11dFX9vtAY3tra2Xsr76Pnz52H2c5/7XFgHAICXxV8QAgAAAAAAQEU0CAEAAAAAAKAiGoQAAAAAAABQEQ1CAAAAAAAAqIgGIQAAAAAAAFREgxAAAAAAAAAqokEIAAAAAAAAFWmsrKwsb3sQAADw4/qd3/mdZO34+DjMttvtZO3OnTthdrlM/3wej8fF2evr6zB7eHiYrK2trYXZqN5qtcLsxsZGstbpdMLs+vp6snZ0dBRmo3H1+/0wO5lMkrXvf//7YfbJkyfJ2r/8y7+svCyf/OQnk7XRaFT8vC+yNwaDQZiN9uxwOAyz29vbyVqz2Sw+v7lsdEZns1nx8zYaN/+0fjlnMFrfd955J8x2u91k7Rd/8RfD7GKxKF7faO/cv38/zG5tbSVrl5eXYTa6k6K77Mbu7m6y9ujRozD7xhtvJGtf//rXwywAANwWf0EIAAAAAAAAFdEgBAAAAAAAgIpoEAIAAAAAAEBFNAgBAAAAAACgIhqEAAAAAAAAUBENQgAAAAAAAKhIY2VlZXnbgwAAgB/Xr//6rydrH/jAB8Jsq9VK1t56660wu7a2VlS70e/3k7Vmsxlmo3FNJpPi5+10OmF2Npsla1dXV2H2gx/8YLK2sbGxUmqxWIT1f/u3f0vWvvnNb4bZ4+PjlZ82H//4x8P65eVlsrZcxv/cu3fvXrL2/PnzlVK5sxDtnel0Gmb39vaStXa7HWYPDw9XSkVnYT6fh9nt7e3is3B2dpasjUaj4vXNzVX0vRcXF2H27bffTtYODg7C7K/8yq8Un/2Tk5PiMUfnKHcWvvGNb4R1AAD4aeQvCAEAAAAAAKAiGoQAAAAAAABQEQ1CAAAAAAAAqIgGIQAAAAAAAFREgxAAAAAAAAAqokEIAAAAAAAAFdEgBAAAAAAAgIo0VlZWlrc9CAAA+En6/d///WRtfX09zE4mk2Tt8vIyzDabzWRtNBqF2cFgkKydnZ2F2evr62RtdTX+P4PdbrdoLm70+/1k7d69e2H2Pe95T7I2Ho/D7Kc+9amVmvzar/1asnZwcFC8RhcXF8X7udPphNlov+f2ZFTPfW+0n3P7KjpHufMbnZXcmKOzsrW1FWaPj4+TtTfeeCPMRs+UO/tR9u7du2H2l37pl4r2640/+IM/COsAAMD/8heEAAAAAAAAUBENQgAAAAAAAKiIBiEAAAAAAABURIMQAAAAAAAAKqJBCAAAAAAAABXRIAQAAAAAAICKNFZWVpa3PQgAAKjBn/3ZnyVrw+EwzK6upv9v3xtvvBFmDw8Pk7XpdBpm2+12stZsNsPs5uZmsnb//v0wu7u7m6x95jOfCbP8r09/+tNh/f3vf3+ydnFxEWaPj4+TtdlstlIqtycXi0WyNp/Pi7Pr6+thdjKZJGuj0SjMXl9fF4/5lVdeKb43orvh0aNHYXZraytZu3PnTpjt9XrJ2t/+7d+GWQAA4CfDXxACAAAAAABARTQIAQAAAAAAoCIahAAAAAAAAFARDUIAAAAAAACoiAYhAAAAAAAAVESDEAAAAAAAACqiQQgAAAAAAAAVaaysrCxvexAAAFC7j3/842H9Qx/6ULI2n8/D7MXFRbJ2eHgYZqfTabK2uhr/f8MHDx4ka3t7e2H24cOHydrrr78eZvnRffazn03W1tbWwmyz2UzWhsNhmI327PX19UqpXDb63uVyWfy87XY7zA4Gg2St1+uF2Vy99By9+eabYXZzczNZ+8Y3vlE8JgAA4KeDvyAEAAAAAACAimgQAgAAAAAAQEU0CAEAAAAAAKAiGoQAAAAAAABQEQ1CAAAAAAAAqIgGIQAAAAAAAFSksbKysrztQQAAAD+dvvSlLyVrg8EgzF5cXCRr77zzTpj96le/+iOMjtv0qU99Kll79dVXw2yv10vWjo6OwuxsNkvWptNpcfbtt98Os6+88kqy9uDBgzD7+PHjojHd+NznPhfWAQAASvgLQgAAAAAAAKiIBiEAAAAAAABURIMQAAAAAAAAKqJBCAAAAAAAABXRIAQAAAAAAICKaBACAAAAAABARTQIAQAAAAAAoCKNlZWV5W0PAgAAAG689tprYb3VaiVr0+k0zJ6cnCRrX/7yl1delt/4jd9I1v7qr/7qpX0vAABAir8gBAAAAAAAgIpoEAIAAAAAAEBFNAgBAAAAAACgIhqEAAAAAAAAUBENQgAAAAAAAKiIBiEAAAAAAABUpLGysrK87UEAAAAAAAAAPxn+ghAAAAAAAAAqokEIAAAAAAAAFdEgBAAAAAAAgIpoEAIAAAAAAEBFNAgBAAAAAACgIhqEAAAAAAAAUBENQgAAAAAAAKiIBiEAAAAAAABURIMQAAAAAAAAKqJBCAAAAAAAABXRIAQAAAAAAICKaBACAAAAAABARTQIAQAAAAAAoCIahAAAAAAAAFARDUIAAAAAAACoiAYhAAAAAAAAVESDEAAAAAAAACqiQQgAAAAAAAAV0SAEAAAAAACAimgQAgAAAAAAQEU0CAEAAAAAAKAiGoQAAAAAAABQEQ1CAAAAAAAAqIgGIQAAAAAAAFREgxAAAAAAAAAqokEIAAAAAAAAFdEgBAAAAAAAgIpoEAIAAAAAAEBFNAgBAAAAAACgIhqEAAAAAAAAUBENQgAAAAAAAKiIBiEAAAAAAABURIMQAAAAAAAAKqJBCAAAAAAAABXRIAQAAAAAAICKaBACAAAAAABARTQIAQAAAAAAoCIahAAAAAAAAFARDUIAAAAAAACoiAYhAAAAAAAAVESDEAAAAAAAACqiQQgAAAAAAAAV0SAEAAAAAACAimgQAgAAAAAAQEU0CAEAAAAAAKAiGoQAAAAAAABQEQ1CAAAAAAAAqIgGIQAAAAAAAFREgxAAAAAAAAAqokEIAAAAAAAAFdEgBAAAAAAAgIpoEAIAAAAAAEBFNAgBAAAAAACgIhqEAAAAAAAAUBENQgAAAAAAAKiIBiEAAAAAAABURIMQAAAAAAAAKqJBCAAAAAAAABXRIAQAAAAAAICKaBACAAAAAABARTQIAQAAAAAAoCIahAAAAAAAAFARDUIAAAAAAACoiAYhAAAAAAAAVESDEAAAAAAAACqiQQgAAAAAAAAV0SAEAAAAAACAimgQAgAAAAAAQEU0CAEAAAAAAKAiGoQAAAAAAABQEQ1CAAAAAAAAqIgGIQAAAAAAAFREgxAAAAAAAAAqokEIAAAAAAAAFdEgBAAAAAAAgIpoEAIAAAAAAEBFNAgBAAAAAACgIhqEAAAAAAAAUBENQgAAAAAAAKiIBiEAAAAAAABURIMQAAAAAAAAKqJBCAAAAAAAABXRIAQAAAAAAICKaBACAAAAAABARTQIAQAAAAAAoCIahAAAAAAAAFARDUIAAAAAAACoiAYhAAAAAAAAVESDEAAAAAAAACqiQQgAAAAAAAAV0SAEAAAAAACAimgQAgAAAAAAQEU0CAEAAAAAAKAiGoQAAAAAAABQEQ1CAAAAAAAAqIgGIQAAAAAAAFREgxAAAAAAAAAqokEIAAAAAAAAFdEgBAAAAAAAgIpoEAIAAAAAAEBFNAgBAAAAAACgIhqEAAAAAAAAUBENQgAAAAAAAKiIBiEAAAAAAABURIMQAAAAAAAAKqJBCAAAAAAAABXRIAQAAAAAAICKaBACAAAAAABARTQIAQAAAAAAoCIahAAAAAAAAFARDUIAAAAAAACoiAYhAAAAAAAAVESDEAAAAAAAACqiQQgAAAAAAAAV0SAEAAAAAACAimgQAgAAAAAAQEU0CAEAAAAAAKAiGoQAAAAAAABQEQ1CAAAAAAAAqIgGIQAAAAAAAFREgxAAAAAAAAAqokEIAAAAAAAAFdEgBAAAAAAAgIpoEAIAAAAAAEBFNAgBAAAAAACgIhqEAAAAAAAAUBENQgAAAAAAAKiIBiEAAAAAAABURIMQAAAAAAAAKqJBCAAAAAAAABXRIAQAAAAAAICKaBACAAAAAABARTQIAQAAAAAAoCIahAAAAAAAAFARDUIAAAAAAACoiAYhAAAAAAAAVESDEAAAAAAAACqiQQgAAAAAAAAV0SAEAAAAAACAimgQAgAAAAAAQEU0CAEAAAAAAKAiGoQAAAAAAABQEQ1CAAAAAAAAqIgGIQAAAAAAAFREgxAAAAAAAAAqokEIAAAAAAAAFdEgBAAAAAAAgIpoEAIAAAAAAEBFNAgBAAAAAACgIhqEAAAAAAAAUBENQgAAAAAAAKiIBiEAAAAAAABURIMQAAAAAAAAKqJBCAAAAAAAABXRIAQAAAAAAICKaBACAAAAAABARTQIAQAAAAAAoCIahAAAAAAAAFARDUIAAAAAAACoiAYhAAAAAAAAVESDEAAAAAAAACqiQQgAAAAAAAAV0SAEAAAAAACAimgQAgAAAAAAQEU0CAEAAAAAAKAiGoQAAAAAAABQEQ1CAAAAAAAAqIgGIQAAAAAAAFREgxAAAAAAAAAqokEIAAAAAAAAFdEgBAAAAAAAgIpoEAIAAAAAAEBFNAgBAAAAAACgIhqEAAAAAAAAUBENQgAAAAAAAKiIBiEAAAAAAABURIMQAAAAAAAAKqJBCAAAAAAAABXRIAQAAAAAAICKaBACAAAAAABARTQIAQAAAAAAoCIahAAAAAAAAFARDUIAAAAAAACoiAYhAAAAAAAAVESDEAAAAAAAACqiQQgAAAAAAAAV0SAEAAAAAACAimgQAgAAAAAAQEU0CAEAAAAAAKAiGoQAAAAAAABQEQ1CAAAAAAAAqIgGIQAAAAAAAFREgxAAAAAAAAAqokEIAAAAAAAAFdEgBAAAAAAAgIpoEAIAAAAAAEBFNAgBAAAAAACgIhqEAAAAAAAAUBENQgAAAAAAAKiIBiEAAAAAAABURIMQAAAAAAAAKqJBCAAAAAAAACv1+D+FoExcn25mEAAAAABJRU5ErkJggg==;" vertex="1" parent="1">
          <mxGeometry x="40" y="240" width="80" height="80" as="geometry" />
        </mxCell>
      </root>
    </mxGraphModel>
  </diagram>
</mxfile>
